<svg width="30" height="30" viewBox="0 0 30 30" fill="none" xmlns="http://www.w3.org/2000/svg">
<path d="M12.1525 0.000725457C12.1569 0.000491856 12.1614 -0.000139453 12.1659 2.78563e-05C12.2734 0.00406537 12.3915 0.0999934 12.4795 0.155783L12.8274 0.369282L15.1341 1.78195L19.2783 4.31825L22.0534 6.02215L24.6198 7.62727L27.7334 9.55417L28.6641 10.1348C28.8455 10.2452 29.0531 10.3454 29.2192 10.4767C29.3175 10.5545 29.357 10.6338 29.3702 10.7576C29.4001 11.0402 29.376 11.3503 29.3766 11.6362L29.3781 13.4418L29.3822 19.2403L29.3856 21.7888C29.3868 22.1941 29.4136 22.6151 29.3908 23.0188C29.3879 23.0704 29.3704 23.1108 29.3364 23.1496C29.2643 23.2317 29.1464 23.2883 29.053 23.3437L28.5708 23.6311L25.3742 25.5865L20.4243 28.5839L18.9662 29.4588L18.1951 29.9235C18.0857 29.9836 17.9763 29.9927 17.8549 30C17.7719 29.9882 17.6982 29.9721 17.6223 29.935C17.4764 29.8638 17.3362 29.7681 17.1974 29.6835L16.5016 29.259L14.4808 28.0159L9.25356 24.8138L8.13128 24.1135L2.74366 20.8275L1.47235 20.0611C1.23784 19.9226 0.959019 19.7898 0.748205 19.6194C0.690709 19.573 0.642988 19.5229 0.62191 19.4503C0.590527 19.3422 0.616526 19.151 0.616664 19.0342L0.616837 17.8571L0.609151 12.2275L0.605186 8.73315L0.604924 7.62317C0.604972 7.44547 0.592452 7.25727 0.60706 7.08055C0.612746 7.01176 0.638525 6.93742 0.673459 6.87823C0.708877 6.81822 0.760303 6.76702 0.817384 6.72769C1.09471 6.53651 1.41441 6.3776 1.70613 6.20748L3.37246 5.2173L9.89415 1.32438L11.4584 0.384517L11.8681 0.140949C11.9597 0.086795 12.0483 0.0271571 12.1525 0.000725457Z" fill="#17161E"/>
<path d="M28.5911 11.4914C28.6138 11.4934 28.6022 11.4896 28.6243 11.5072L28.639 22.7101L18.2 29.0713L18.194 17.6564L28.5911 11.4914Z" fill="#E3FE0F"/>
<path d="M1.37551 7.81183L17.4606 17.6525L17.4627 28.9846L1.36841 19.108L1.37551 7.81183Z" fill="#E3FE0F"/>
<path d="M12.1439 0.839966L28.3226 10.7776C28.2618 10.84 28.1538 10.8823 28.0771 10.9275L27.4586 11.2903L25.2163 12.6085L17.8326 17.0157L1.67194 7.09405C1.80459 6.99265 1.97174 6.91405 2.11637 6.83023L2.72538 6.46487L5.20674 4.98608L12.1439 0.839966Z" fill="#E3FE0F"/>
<path d="M17.4888 11.8373L17.4941 11.8358C17.6672 11.8177 17.8485 11.822 18.0223 11.8257C18.7094 11.8402 19.4755 12.004 20.0155 12.4565C20.2295 12.6359 20.3927 12.8564 20.4144 13.1435C20.4265 13.304 20.4189 13.4706 20.4184 13.6317C20.418 13.8092 20.4301 14.0024 20.3817 14.1747C20.3515 14.282 20.2913 14.3762 20.2196 14.4602C19.7812 14.9737 18.9204 15.175 18.2816 15.2279C18.0367 15.2547 17.7703 15.2468 17.5246 15.2271C16.8946 15.1765 16.1845 15.0419 15.6783 14.6361C15.5089 14.5002 15.3599 14.3072 15.3422 14.0828C15.3262 13.8808 15.3377 13.6692 15.338 13.4663C15.3382 13.3312 15.3222 13.1816 15.3505 13.0494C15.3816 12.903 15.4594 12.7588 15.5542 12.6443C16.0047 12.1 16.8178 11.8989 17.4888 11.8373Z" fill="#17161E"/>
<path d="M17.5901 12.1714C18.2674 12.1118 19.1679 12.2206 19.7161 12.6542C19.8579 12.7663 20.0529 12.9631 20.071 13.1507C20.0891 13.3381 20.0371 13.5022 19.9167 13.646C19.513 14.1284 18.7546 14.2896 18.1602 14.3384C17.463 14.3666 16.5952 14.2731 16.0274 13.8291C15.8635 13.701 15.6888 13.5155 15.671 13.2968C15.6589 13.1488 15.7429 12.9663 15.8345 12.8559C16.2393 12.3678 16.9968 12.2316 17.5901 12.1714Z" fill="#E3FE0F"/>
<path d="M11.7488 2.05135C12.5481 1.98135 13.571 2.12914 14.2127 2.63969C14.4255 2.80902 14.6176 3.04839 14.6454 3.32859C14.6632 3.50786 14.6568 3.69462 14.6575 3.87506C14.6581 4.03198 14.6693 4.21227 14.6287 4.36499C14.5966 4.48574 14.528 4.60027 14.4486 4.69601C13.9891 5.24987 13.1771 5.42191 12.4966 5.48407C11.6481 5.52015 10.7022 5.42702 10.0129 4.87412C9.80532 4.70766 9.59615 4.46721 9.56788 4.19146C9.55416 4.05765 9.55964 3.91831 9.55797 3.78367C9.55363 3.43267 9.54809 3.14108 9.79227 2.85763C10.2742 2.29816 11.0455 2.11077 11.7488 2.05135Z" fill="#17161E"/>
<path d="M11.9231 2.36713L11.9395 2.36526C12.6091 2.31883 13.4975 2.49251 14.0191 2.93333C14.1648 3.05641 14.3046 3.23025 14.3185 3.42799C14.3304 3.59612 14.249 3.75926 14.1406 3.88339C13.6832 4.40726 12.9342 4.53258 12.2781 4.5829C11.6058 4.5996 10.8257 4.49514 10.2756 4.07516C10.1068 3.94627 9.90463 3.73849 9.88381 3.51682C9.86849 3.35349 9.9574 3.19187 10.0595 3.07169C10.5062 2.54602 11.2754 2.41738 11.9231 2.36713Z" fill="#E3FE0F"/>
<path d="M17.4643 5.58676L17.487 5.58367C18.2828 5.51779 19.2401 5.66568 19.8741 6.18421C20.0923 6.3627 20.3002 6.60801 20.3242 6.90194C20.3388 7.08099 20.3271 7.26964 20.3255 7.44954C20.3245 7.57045 20.3376 7.70925 20.3083 7.82659C20.2701 7.97931 20.1808 8.13333 20.0771 8.25042C19.5808 8.81084 18.7538 8.98629 18.0397 9.0243C17.3029 9.07847 16.4347 8.93986 15.8032 8.53778C15.5632 8.38496 15.2872 8.12976 15.2277 7.83533L15.2237 7.81377L15.2082 7.71534C15.1971 7.58822 15.2024 7.45639 15.2014 7.32861C15.1988 6.98499 15.2033 6.71603 15.4366 6.44057C15.9275 5.86099 16.7407 5.65492 17.4643 5.58676Z" fill="#17161E"/>
<path d="M17.6206 5.91851L17.6253 5.918C18.3141 5.87886 19.1495 6.0051 19.6876 6.46867C19.8357 6.5962 19.9771 6.76386 19.9887 6.9676C19.9994 7.15476 19.8925 7.33328 19.7681 7.4665C19.3142 7.95261 18.5533 8.10353 17.9191 8.12614C17.2304 8.13358 16.4059 8.0147 15.8586 7.55912C15.7116 7.43673 15.559 7.24678 15.5447 7.04882C15.5331 6.88833 15.6166 6.73554 15.7198 6.61915C16.1775 6.10242 16.9675 5.96011 17.6206 5.91851Z" fill="#E3FE0F"/>
<path d="M12.064 8.52304L12.0774 8.52162C12.8845 8.45675 13.8476 8.66295 14.4733 9.19811C14.6802 9.37502 14.8439 9.60881 14.8612 9.88938C14.87 10.032 14.8618 10.1804 14.8619 10.3234C14.862 10.4769 14.8756 10.6536 14.8465 10.8045C14.8205 10.9393 14.7222 11.0947 14.6319 11.1947C14.1431 11.7357 13.2728 11.9255 12.5754 11.9597C11.7792 12.004 10.7458 11.8741 10.1097 11.3517C9.91935 11.1954 9.75433 10.9918 9.73288 10.7368C9.7209 10.5941 9.73024 10.4431 9.73188 10.2996C9.7359 9.9446 9.72125 9.66039 9.96693 9.37565C10.4775 8.78376 11.3162 8.57301 12.064 8.52304Z" fill="#17161E"/>
<path d="M11.9526 8.86973L11.9556 8.86885C12.6663 8.80414 13.5564 8.94108 14.1411 9.37245C14.3092 9.49648 14.4999 9.68968 14.5294 9.90563C14.5536 10.0829 14.475 10.2348 14.3682 10.3688C13.976 10.8607 13.2507 11.0177 12.6604 11.0826C11.9574 11.1554 11.0548 11.0238 10.4761 10.599C10.2861 10.4596 10.1215 10.2722 10.091 10.0304C10.0701 9.86447 10.1408 9.70082 10.2436 9.57379C10.6272 9.09986 11.3786 8.92586 11.9526 8.86973Z" fill="#E3FE0F"/>
<path d="M6.7202 5.08252C7.52568 5.09912 8.42516 5.24389 9.03248 5.82468C9.19897 5.9839 9.32704 6.20096 9.33119 6.43674L9.32754 6.93741C9.32524 7.29207 9.32811 7.56153 9.06591 7.82973C8.51894 8.38924 7.57949 8.54061 6.83376 8.54901C6.04926 8.55276 5.13141 8.40525 4.53308 7.85426C4.35549 7.69071 4.22117 7.51251 4.21286 7.26129L4.2077 6.7593C4.20616 6.40546 4.2083 6.14395 4.46329 5.86815C5.03064 5.25447 5.92909 5.11715 6.7202 5.08252Z" fill="#17161E"/>
<path d="M6.52182 5.42902C7.17239 5.37031 8.02111 5.50725 8.56468 5.88495C8.7407 6.00725 8.96871 6.22352 8.9983 6.44847C9.01787 6.59715 8.92975 6.7793 8.8348 6.88995C8.42822 7.36365 7.64394 7.49803 7.05596 7.53768C6.44276 7.57402 5.76292 7.50769 5.20394 7.23741C5.08125 7.1781 4.95379 7.11363 4.84752 7.02711C4.69213 6.90052 4.55642 6.72185 4.54199 6.51527C4.53183 6.36952 4.62961 6.20189 4.72015 6.09564C5.13242 5.61183 5.92381 5.47277 6.52182 5.42902Z" fill="#E3FE0F"/>
<path d="M22.9962 8.79114C23.8074 8.72655 24.7391 8.89402 25.3885 9.4087C25.5872 9.56613 25.7667 9.80144 25.7933 10.0621C25.8129 10.2534 25.7979 10.4602 25.7974 10.6533C25.7971 10.7929 25.8162 10.968 25.781 11.1031C25.7462 11.2365 25.6735 11.3647 25.5835 11.4684C25.0749 12.0541 24.2093 12.2173 23.4751 12.2711C22.6421 12.2776 21.6594 12.1792 21.0007 11.6094C20.8283 11.4603 20.6523 11.2353 20.639 10.999C20.6301 10.8415 20.6359 10.6802 20.636 10.5224C20.6362 10.1474 20.6293 9.87227 20.8936 9.57232C21.4086 8.98784 22.2592 8.83644 22.9962 8.79114Z" fill="#17161E"/>
<path d="M22.9765 9.12263L22.99 9.12108C23.1847 9.10378 23.3917 9.11596 23.586 9.13254C24.1136 9.17752 24.725 9.30559 25.1419 9.65511C25.305 9.79177 25.4363 9.96454 25.4512 10.1848C25.4636 10.3665 25.3816 10.5266 25.265 10.6605C24.8571 11.1288 24.0815 11.2742 23.4977 11.3134C23.0778 11.3528 22.6332 11.2997 22.2258 11.1982C21.9477 11.129 21.6684 11.0342 21.4295 10.8715C21.261 10.7569 21.0113 10.5113 20.9839 10.2991C20.9601 10.1148 21.0268 9.9532 21.145 9.81348C21.5755 9.30436 22.3503 9.16726 22.9765 9.12263Z" fill="#E3FE0F"/>
</svg>
