<svg width="29" height="30" viewBox="0 0 29 30" fill="none" xmlns="http://www.w3.org/2000/svg">
<path d="M16.28 0C16.4648 0.139355 16.6887 0.24391 16.8872 0.362999L18.4088 1.26521L24.9074 5.13381L27.2442 6.54261L28.0366 7.02502C28.1868 7.1159 28.3499 7.20046 28.4925 7.3027C28.5236 7.32502 28.5501 7.3522 28.5665 7.38793C28.5834 7.42484 28.588 7.46106 28.589 7.50162L28.5948 9.23965L28.5915 13.7241L28.5986 20.4791L28.5984 21.856L28.5985 22.1979C28.5988 22.2602 28.6064 22.3406 28.584 22.3995C28.5525 22.4823 28.4919 22.5373 28.4188 22.5804L25.4007 24.2558L19.2305 27.6551L15.9785 29.4404L15.336 29.7934C15.2125 29.8627 15.0855 29.9448 14.956 30L13.8546 29.3377L10.0999 27.0808L4.99144 24.0437L2.17136 22.3621L1.36198 21.8845C1.25354 21.821 1.1387 21.7659 1.03338 21.6972C0.984407 21.6653 0.938251 21.6222 0.910097 21.5695C0.83938 21.4368 0.876202 20.9792 0.876363 20.8142L0.876503 20.686L0.876001 18.5673L0.875072 18.133C0.874972 18.0934 0.864373 18.0221 0.874685 17.9877C0.896272 17.9157 0.970673 17.8347 1.0174 17.7766L1.2842 17.4475L2.10828 16.4293L3.30053 14.9481L3.64837 14.5244C3.68747 14.479 3.79436 14.3841 3.81479 14.3328C3.83035 14.2938 3.81476 14.1564 3.81473 14.1093L3.81458 13.2456L3.8151 8.23848L3.81759 7.37433C3.81829 7.24861 3.79984 7.07107 3.83592 6.95116C3.85221 6.89707 3.89885 6.85639 3.94419 6.82836L5.32294 6.05613L8.40324 4.35555L12.7614 1.94747L16.28 0Z" fill="#17161E"/>
<path d="M16.2553 0.525818L27.9545 7.50317L27.1634 7.93585C27.0163 7.87584 26.8789 7.77633 26.7437 7.69217L26.0716 7.28143L22.9203 5.38997L18.1137 2.5244L16.3815 1.5034L15.4723 0.955691L16.2553 0.525818Z" fill="white"/>
<path d="M1.32935 18.4665L14.777 26.5196L14.778 29.3662L1.331 21.32L1.32935 18.4665Z" fill="white"/>
<path d="M6.20395 6.08613C6.21936 6.08336 6.23477 6.07517 6.25017 6.07787C6.265 6.08048 6.30491 6.10942 6.31962 6.11799L6.55311 6.2572L7.90937 7.08283L14.4403 10.9789L17.3678 12.7306L17.3649 22.2712L4.68917 14.6507L4.25525 14.3895L4.26036 13.4702C4.31008 13.4819 4.35773 13.5178 4.40173 13.5438L4.68009 13.7087L6.31938 14.6991L9.7537 16.7666L14.1586 19.3827L15.6466 20.2998C15.6737 20.3161 15.7 20.3262 15.7318 20.3224C15.7972 20.3148 15.8665 20.2724 15.9049 20.2172C15.9215 20.1932 15.931 20.167 15.9361 20.1382C15.9675 19.9588 15.9408 19.7302 15.9394 19.5452L15.9348 18.2697L15.9406 15.2272L15.9451 14.3776C15.9456 14.2534 15.9628 14.0964 15.938 13.9756C15.9251 13.9124 15.8865 13.8595 15.8352 13.8238C15.7227 13.7455 15.5917 13.6845 15.4725 13.6169L14.8488 13.2558L13.3019 12.3324L7.51752 8.85127L5.64938 7.71959L4.5074 7.01823L6.20395 6.08613Z" fill="white"/>
<path d="M4.26472 7.41534L15.4924 14.1647L15.488 19.6592L4.25677 12.9091L4.26472 7.41534Z" fill="white"/>
<path d="M4.01205 14.7925L17.4191 22.845L14.9079 26.0384L14.8635 26.0348L1.42615 17.9973L4.01205 14.7925Z" fill="white"/>
<path d="M4.65164 16.5705C4.68227 16.563 4.7122 16.5618 4.74331 16.5666C4.86486 16.5854 5.03246 16.7198 5.13899 16.7848L5.9481 17.2786L9.46758 19.3897L13.7657 21.9341L15.2623 22.8182C15.2967 22.8397 15.3297 22.8639 15.3511 22.9C15.378 22.9453 15.3804 23.052 15.3625 23.1007C15.3205 23.2147 14.7731 23.8709 14.661 23.9333C14.6236 23.9396 14.5847 23.9422 14.5469 23.9375C14.5016 23.9319 14.4585 23.9052 14.4196 23.8821L11.6883 22.2258L7.77258 19.8908L5.21721 18.3608L4.08099 17.6896C4.0418 17.6652 4.0049 17.6342 3.97829 17.5954C3.92882 17.5231 3.94352 17.4439 3.95494 17.3621C4.06689 17.1954 4.21249 17.0425 4.34036 16.8883C4.41952 16.7928 4.53451 16.6106 4.65164 16.5705Z" fill="#17161E"/>
<path d="M8.27006 19.2181L10.9502 20.8079L10.7066 21.0949L8.02863 19.498L8.27006 19.2181Z" fill="white"/>
<path d="M4.77399 17.1287L7.88428 18.9804C7.81277 19.085 7.71756 19.1792 7.63408 19.2741L4.51721 17.3975L4.77399 17.1287Z" fill="white"/>
<path d="M11.3479 21.0291L14.8098 23.0927L14.5593 23.3665L14.5312 23.385C14.4521 23.372 14.3325 23.2771 14.2612 23.2342L13.501 22.7726L12.2488 22.0172L11.1118 21.3264C11.175 21.2191 11.268 21.1239 11.3479 21.0291Z" fill="white"/>
<path d="M28.1251 7.92242L28.1444 7.92468C28.1752 7.98147 28.1603 20.7185 28.1565 22.198L15.2543 29.3172L15.2452 29.3111C15.2447 29.3106 15.2264 29.2852 15.2259 29.2836C15.2149 29.246 15.2232 29.1663 15.2224 29.1243L15.2194 28.642L15.2275 26.3446L17.3728 23.6256L17.7785 23.1119C17.8284 23.047 17.8746 22.9465 17.9363 22.8981C18.0105 22.8399 18.1114 22.7959 18.1945 22.7508L18.6811 22.4865L20.1065 21.6978L25.4389 18.7693L26.6937 18.0791L27.07 17.8704C27.1469 17.8276 27.2333 17.7909 27.2969 17.7278C27.3413 17.6837 27.3768 17.6241 27.3802 17.5593C27.3962 17.2496 27.3775 16.9288 27.3774 16.6181L27.3777 14.6016L27.3796 8.32265L28.1251 7.92242Z" fill="white"/>
<path d="M26.4009 8.04811L26.4363 8.03882C26.5007 8.05649 26.5612 8.10066 26.6186 8.1349L26.9358 8.33163L26.9275 17.4113L18.1612 22.2485L17.8053 22.4292L17.8038 12.7058L26.4009 8.04811Z" fill="white"/>
<path d="M26.0954 9.16241C26.1153 9.1643 26.1026 9.16245 26.1331 9.17098L26.1451 16.8796L18.6646 20.9899L18.6426 20.998L18.6266 20.9809L18.6312 15.5955L18.6296 13.9543C18.629 13.7114 18.6029 13.44 18.6314 13.2L26.0954 9.16241Z" fill="#17161E"/>
<path d="M15.0046 1.2251C15.1126 1.27389 15.2186 1.34734 15.3218 1.40746L16.0081 1.80976L18.8041 3.46287L23.644 6.35571L24.909 7.11291L25.9839 7.74976L17.6554 12.2719L17.5532 12.322L6.69403 5.80534L15.0046 1.2251Z" fill="white"/>
</svg>
