<svg width="24" height="30" viewBox="0 0 24 30" fill="none" xmlns="http://www.w3.org/2000/svg">
<path d="M13.6671 0.00905124C13.7361 -0.00319723 13.8167 0.000677529 13.8873 0.000281809C14.178 -0.0013473 14.4754 0.0557114 14.7418 0.174844C14.8887 0.240511 15.0231 0.342386 15.1593 0.427928L15.9504 0.926741L16.8753 1.50616L17.3943 1.82548C17.5008 1.89862 17.6019 1.98363 17.6929 2.07585C17.9728 2.35976 18.1741 2.74056 18.2589 3.13127C18.3235 3.42876 18.3169 3.7323 18.3157 4.0348L18.3074 5.04397L18.3009 7.26477L18.301 8.53647C18.3023 8.58729 18.3311 8.58944 18.3702 8.61134L19.4378 9.24929L21.7954 10.6545L23.053 11.4094C23.16 11.4789 23.2875 11.5454 23.3786 11.6348C23.3923 11.6638 23.3986 11.6826 23.3998 11.7154L23.4 12.7433L23.3885 15.171L23.3786 21.836C23.1273 22.05 22.8293 22.2248 22.5476 22.3939L21.7105 22.8988L19.2954 24.3629L14.0587 27.5307L10.2218 29.8434L9.97593 30L0.784784 24.5024C0.719693 24.4575 0.621415 24.3746 0.610489 24.291C0.599883 24.2095 0.606264 24.1171 0.606205 24.0344L0.60673 23.558L0.605739 21.9959L0.605827 16.465L0.601223 14.8449L0.60099 14.4775C0.601106 14.4385 0.595483 14.3513 0.609906 14.3163C0.624795 14.2801 0.690003 14.2358 0.721412 14.2145L2.11671 13.3521L4.74406 11.7135L5.48631 11.2512C5.5116 11.2352 5.63689 11.1688 5.64779 11.1485C5.65446 11.1361 5.64826 11.043 5.64831 11.0241L5.64995 10.555L5.65018 8.38065C5.65 7.97139 5.62984 7.54976 5.66213 7.14232C5.74709 6.0707 6.19346 5.08405 6.8428 4.24461C7.08793 3.92771 7.39171 3.62992 7.71218 3.39114C8.04064 3.1464 8.40902 2.95258 8.75921 2.74126L10.4993 1.68255L12.1415 0.686244C12.4028 0.527343 12.6653 0.33466 12.9391 0.203161C13.1697 0.0924495 13.4154 0.0405133 13.6671 0.00905124Z" fill="#17161E"/>
<path d="M17.9783 10.1653C17.9952 10.1685 17.9857 10.1651 18.0048 10.1796L18.0064 11.1543L16.8156 11.9008L16.7822 11.8893L16.7806 10.9181L17.9783 10.1653Z" fill="white"/>
<path d="M9.66306 15.124L9.67092 16.2125L8.23279 17.1075C8.212 17.1051 8.22291 17.1088 8.20173 17.0923L8.19995 16.0535L9.66306 15.124Z" fill="white"/>
<path d="M14.5755 9.91736L16.2903 10.9544L16.2865 11.9008L14.5742 10.8967L14.5755 9.91736Z" fill="white"/>
<path d="M5.99356 14.876L7.70799 16.0454L7.70969 17.1074L5.99593 15.973L5.99356 14.876Z" fill="white"/>
<path d="M5.72331 11.653C5.73242 11.6562 5.74026 11.6623 5.74838 11.6675L5.74301 13.213L2.60155 15.124C2.54081 15.124 1.93616 14.7424 1.83924 14.6835L1.33548 14.3724C1.48823 14.2502 1.67436 14.1533 1.84141 14.0516L2.76858 13.4848L5.72331 11.653Z" fill="white"/>
<path d="M14.2957 7.19006C14.3171 7.19215 14.3059 7.18875 14.3276 7.20436L14.329 8.57092L9.95094 11.157L9.91738 11.1491L9.91608 9.76537L14.2957 7.19006Z" fill="white"/>
<path d="M14.3023 4.71082L14.3271 4.71865L14.329 6.5649L9.93828 9.17362L9.91608 9.15928C9.91699 8.81109 9.91761 8.47737 10.0119 8.13865C10.1585 7.61216 10.4652 7.12484 10.8724 6.75076C11.0294 6.60652 11.2204 6.49976 11.4056 6.39388L11.9955 6.05264L14.3023 4.71082Z" fill="white"/>
<path d="M15.8799 3.7255L15.9433 3.71925C16.0248 3.71652 16.0708 3.7354 16.1292 3.79236C16.2064 3.86767 16.2617 3.98013 16.2748 4.08597C16.3013 4.30125 16.2857 4.53415 16.2861 4.75157L16.288 5.97991L16.2889 10.4132L15.4455 9.92308L14.5882 9.42132C14.5629 9.32666 14.5796 9.18196 14.579 9.08205L14.5808 8.14694L14.5806 4.47886L15.2777 4.06243C15.4729 3.94492 15.6685 3.81235 15.8799 3.7255Z" fill="white"/>
<path d="M1.09603 14.876L2.31267 15.6229L2.31605 23.2463C2.28308 23.2877 2.22573 23.3175 2.18222 23.3467L1.86857 23.5509L1.09024 24.0495L1.09603 14.876Z" fill="white"/>
<path d="M22.9016 12.1488C22.9163 12.233 22.9069 12.3367 22.906 12.423L22.9008 12.9292L22.8985 14.628L22.8902 21.3224C22.838 21.3232 22.2372 20.9423 22.1392 20.8832C21.9859 20.8145 21.827 20.697 21.684 20.6058L21.6863 12.8832L22.9016 12.1488Z" fill="white"/>
<path d="M2.48692 23.5613C2.50019 23.5588 2.51331 23.5524 2.52672 23.5539C2.53473 23.5548 2.56736 23.5791 2.57472 23.5836L2.77289 23.7067L3.89658 24.4105L7.81271 26.8504L9.67096 28.0189L9.66823 29.5041L8.95209 29.0582L1.33548 24.3086L2.48692 23.5613Z" fill="white"/>
<path d="M21.6423 21.0743C21.7757 21.1325 21.9063 21.2261 22.0312 21.3017C22.3217 21.4775 22.6074 21.6582 22.9097 21.8132L10.9708 29.0214L10.1613 29.5041L10.164 28.0711L21.6423 21.0743Z" fill="white"/>
<path d="M14.1863 9.17346C14.1996 9.17757 14.1904 9.17414 14.2118 9.18812C14.2131 9.30252 14.2287 9.42146 14.1691 9.5229C14.1502 9.55514 14.1328 9.58129 14.1287 9.61945C14.1061 9.83339 14.1275 10.0753 14.1268 10.2917L14.1258 10.7971C14.1259 10.8717 14.1173 10.9593 14.1306 11.0325C14.1386 11.077 14.1574 11.1022 14.1906 11.1307C14.3656 11.2811 14.6174 11.3922 14.8161 11.5107L16.0451 12.2646L11.257 15.2207L10.1864 15.8677L10.1702 14.7531C10.0938 14.6734 10.0078 14.6174 9.91608 14.5576L9.91884 11.8251C9.92102 11.8164 9.92407 11.8074 9.93 11.8007C9.96917 11.757 10.0773 11.7083 10.1296 11.6755L10.9191 11.1878L14.1863 9.17346Z" fill="white"/>
<path d="M16.1891 1.98879C16.2407 1.98026 16.301 1.98448 16.3535 1.98418C16.75 1.98188 17.1514 2.14043 17.432 2.42151C17.7218 2.71181 17.893 3.11958 17.9657 3.51972C18.0226 3.83273 18.0038 4.15113 18.0022 4.46793L17.9968 5.63717L17.9922 9.57944L16.8484 10.3088L16.8429 8.845L16.8422 5.95863L16.8434 4.91303C16.844 4.55883 16.8989 4.14031 16.7709 3.80556C16.6923 3.60003 16.5731 3.43935 16.3672 3.34912C16.1749 3.26484 15.971 3.28283 15.7801 3.36034C15.6125 3.42842 15.4589 3.54278 15.3045 3.63694L14.5348 4.09968L12.2601 5.47118L11.4231 5.97487C11.162 6.13212 10.8983 6.27292 10.6693 6.47801C10.2503 6.85338 9.95503 7.32104 9.74469 7.83878C9.66101 8.082 9.59299 8.32239 9.56613 8.57908C9.5361 8.86588 9.54423 9.15638 9.54402 9.44435L9.54429 10.6593L9.55468 14.6897L8.46096 15.3718L8.45466 15.3442C8.43302 15.2075 8.45504 15.025 8.45551 14.8833L8.45615 13.7466L8.45781 10.365L8.45542 9.33339C8.45382 8.9164 8.45385 8.51669 8.5376 8.10535C8.68068 7.4024 9.00666 6.75484 9.44746 6.19226C9.68294 5.89176 9.98439 5.58059 10.2918 5.35401C10.5505 5.16333 10.8536 5.01147 11.1301 4.84574L12.7481 3.86754L14.5214 2.79234L15.1439 2.4157C15.2847 2.33017 15.4237 2.23745 15.571 2.16368C15.7718 2.0631 15.9677 2.01602 16.1891 1.98879Z" fill="white"/>
<path d="M13.8622 0.495865C14.0596 0.495108 14.2692 0.522719 14.4546 0.593166C14.6649 0.673046 14.8628 0.818689 15.0544 0.936686L16.0452 1.54282C15.7838 1.58998 15.5388 1.64341 15.2969 1.75782C15.0842 1.85841 14.8818 2.00447 14.6788 2.12501L13.2325 2.99439L11.2005 4.22441L10.5066 4.64016C10.2871 4.76873 10.066 4.89103 9.86175 5.04387C9.67686 5.18228 9.50408 5.34744 9.34022 5.50988C8.69507 6.1495 8.20141 7.00717 7.98555 7.8882C7.8376 8.49208 7.85464 9.08098 7.85523 9.69641L7.85641 11.1524L7.85402 15.303L7.85552 15.6198L5.99382 14.5065L5.99497 10.0784L5.99471 8.41403C5.99471 7.79371 5.9733 7.1841 6.11552 6.57527C6.29946 5.78785 6.71308 5.03633 7.24701 4.4305C7.46071 4.188 7.70444 3.9586 7.9702 3.7736C8.28877 3.55183 8.64201 3.36081 8.97662 3.16255L10.7858 2.08524L12.5356 1.0344C12.7459 0.909399 12.9473 0.750415 13.1691 0.649352C13.3909 0.548298 13.6208 0.511517 13.8622 0.495865Z" fill="white"/>
<path d="M18.3491 9.17346L22.9096 11.8356L9.89794 19.5867L5.71972 17.1357L2.8064 15.4381L5.56425 13.7899L5.56522 14.3163C5.52119 14.3518 5.48178 14.3859 5.46216 14.4403C5.42452 14.5446 5.44926 14.729 5.44921 14.8418L5.44797 15.8097C5.44794 15.8964 5.42441 16.0854 5.46635 16.1596C5.48446 16.1917 5.51214 16.2155 5.54239 16.236C5.65808 16.3146 5.79383 16.3764 5.91511 16.4489L7.46857 17.3638C7.61392 17.4474 7.80521 17.5955 7.96561 17.6333C8.10079 17.5802 8.22075 17.4973 8.34309 17.4208L8.74915 17.1759L10.969 15.8319L16.4786 12.5557L17.8292 11.7473C18.004 11.6423 18.2368 11.5368 18.3869 11.4019C18.4499 11.3453 18.4606 11.2916 18.4621 11.2097L18.4643 10.1674C18.4643 10.0072 18.4867 9.80472 18.454 9.64974C18.4403 9.58497 18.407 9.54506 18.3609 9.4988L18.3479 9.486L18.3491 9.17346Z" fill="white"/>
<path d="M10.0162 17.8516C10.0967 17.8487 10.1761 17.8632 10.2488 17.8972C10.3067 17.9243 10.3808 17.9812 10.3993 18.0435C10.4135 18.0913 10.4069 18.1489 10.379 18.1913C10.3119 18.2932 10.1869 18.3265 10.0721 18.347C9.95877 18.3482 9.83963 18.3282 9.74962 18.256C9.70535 18.2205 9.67733 18.1735 9.672 18.1178C9.6667 18.0622 9.68363 18.0124 9.72119 17.9699C9.79601 17.8854 9.90823 17.8633 10.0162 17.8516Z" fill="#17161E"/>
<path d="M20.0757 11.413C20.2155 11.3963 20.3496 11.4019 20.48 11.464C20.5632 11.5036 20.6564 11.5692 20.6873 11.6683C20.7124 11.7486 20.7088 11.8292 20.6707 11.9037C20.6041 12.0337 20.4883 12.0927 20.3659 12.1361C20.2247 12.1635 20.0726 12.1474 19.9432 12.0771C19.8592 12.0315 19.7643 11.95 19.7361 11.8469C19.7176 11.7796 19.7153 11.7105 19.7483 11.6488C19.8184 11.5173 19.9484 11.4523 20.0757 11.413Z" fill="#17161E"/>
<path d="M2.56128 15.8678L9.67096 20.1275L9.66027 27.4983L9.63322 27.5207L2.57425 23.3025L2.56128 15.8678Z" fill="white"/>
<path d="M21.4042 13.1405L21.4288 13.1424C21.4431 13.2027 21.4369 13.2693 21.437 13.3312L21.4373 13.6946L21.4381 15.0023L21.4387 20.6742L10.2002 27.5207L10.1634 27.5125L10.1613 20.037C10.2141 19.9792 10.3138 19.9327 10.3817 19.8901L10.8562 19.5927L12.4958 18.5802L17.7542 15.3489L21.4042 13.1405Z" fill="white"/>
<path d="M16.3977 16.8676L16.6184 16.8595C16.925 16.8686 17.2099 17.0133 17.4186 17.2527C17.9377 17.8483 17.7735 18.8245 17.5358 19.5124C17.4534 19.751 17.3135 19.9989 17.2642 20.246C17.2297 20.419 17.2469 20.637 17.2458 20.8153L17.2371 22.0621L14.9906 23.547C14.8782 23.6266 14.7246 23.7614 14.5955 23.7965C14.5419 23.8111 14.4865 23.7931 14.4425 23.7594C14.3983 23.7254 14.3677 23.6779 14.3554 23.6209C14.3287 23.4985 14.3472 23.3384 14.3472 23.2114L14.3481 22.1324C14.348 21.9656 14.3637 21.7767 14.3394 21.612C14.3244 21.5098 14.132 21.3489 14.0723 21.2513C13.9566 21.0621 13.893 20.8461 13.8609 20.6243C13.7413 19.7977 14.1231 18.8124 14.5776 18.1599C15.0319 17.5077 15.6257 16.9881 16.3977 16.8676Z" fill="#17161E"/>
<path d="M16.5143 17.362L16.6828 17.3553C16.8878 17.3557 17.079 17.4431 17.2222 17.5844C17.7074 18.063 17.4938 18.9404 17.2766 19.4968C17.1797 19.7451 17.0301 20.0022 16.9841 20.2654C16.9488 20.4676 16.9634 20.6852 16.9622 20.89L16.9575 21.9016L14.9383 23.1256L14.641 23.3058L14.6417 22.2408C14.6414 22.0564 14.6604 21.8472 14.6317 21.6656C14.6209 21.5968 14.597 21.525 14.5651 21.4625C14.4902 21.3154 14.3652 21.2073 14.2687 21.0754C14.1883 20.9655 14.1331 20.8179 14.1099 20.6849C13.9826 19.9545 14.3402 19.1214 14.7642 18.5363C15.1845 17.9563 15.7826 17.4873 16.5143 17.362Z" fill="white"/>
</svg>
