<svg width="36" height="30" viewBox="0 0 36 30" fill="none" xmlns="http://www.w3.org/2000/svg">
<path d="M12.0713 19.0279C12.0713 22.3664 9.36907 25.0727 6.03567 25.0727C2.70226 25.0727 0 22.3664 0 19.0279C0 15.6895 2.70226 12.9832 6.03567 12.9832C9.36907 12.9832 12.0713 15.6895 12.0713 19.0279Z" fill="#E3FE0F" fill-opacity="0.3"/>
<path d="M11.0062 19.0279C11.0062 21.7772 8.7808 24.0059 6.03564 24.0059C3.29048 24.0059 1.06509 21.7772 1.06509 19.0279C1.06509 16.2786 3.29048 14.0498 6.03564 14.0498C8.7808 14.0498 11.0062 16.2786 11.0062 19.0279Z" fill="#E3FE0F" fill-opacity="0.5"/>
<path d="M9.94105 19.0279C9.94105 21.1881 8.19253 22.9392 6.03562 22.9392C3.87871 22.9392 2.13019 21.1881 2.13019 19.0279C2.13019 16.8677 3.87871 15.1166 6.03562 15.1166C8.19253 15.1166 9.94105 16.8677 9.94105 19.0279Z" fill="#17161E"/>
<path d="M28.3995 27.5374C28.3995 28.8975 27.2986 30.0001 25.9406 30.0001C24.5825 30.0001 23.4816 28.8975 23.4816 27.5374C23.4816 26.1773 24.5825 25.0747 25.9406 25.0747C27.2986 25.0747 28.3995 26.1773 28.3995 27.5374Z" fill="#E3FE0F" fill-opacity="0.3"/>
<path d="M27.9655 27.5374C27.9655 28.6575 27.0588 29.5655 25.9404 29.5655C24.822 29.5655 23.9154 28.6575 23.9154 27.5374C23.9154 26.4173 24.822 25.5093 25.9404 25.5093C27.0588 25.5093 27.9655 26.4173 27.9655 27.5374Z" fill="#E3FE0F" fill-opacity="0.5"/>
<path d="M27.5315 27.5374C27.5315 28.4174 26.8191 29.1309 25.9404 29.1309C25.0616 29.1309 24.3493 28.4174 24.3493 27.5374C24.3493 26.6573 25.0616 25.9438 25.9404 25.9438C26.8191 25.9438 27.5315 26.6573 27.5315 27.5374Z" fill="#17161E"/>
<path d="M35.9999 7.83581C35.9999 9.6905 34.4987 11.194 32.6468 11.194C30.7949 11.194 29.2936 9.6905 29.2936 7.83581C29.2936 5.98112 30.7949 4.4776 32.6468 4.4776C34.4987 4.4776 35.9999 5.98112 35.9999 7.83581Z" fill="#E3FE0F" fill-opacity="0.3"/>
<path d="M35.4081 7.83584C35.4081 9.36322 34.1718 10.6014 32.6467 10.6014C31.1216 10.6014 29.8853 9.36322 29.8853 7.83584C29.8853 6.30845 31.1216 5.07025 32.6467 5.07025C34.1718 5.07025 35.4081 6.30845 35.4081 7.83584Z" fill="#E3FE0F" fill-opacity="0.5"/>
<path d="M34.8165 7.8358C34.8165 9.03589 33.8451 10.0088 32.6469 10.0088C31.4486 10.0088 30.4772 9.03589 30.4772 7.8358C30.4772 6.63571 31.4486 5.66284 32.6469 5.66284C33.8451 5.66284 34.8165 6.63571 34.8165 7.8358Z" fill="#17161E"/>
<path d="M23.8484 11.9422C23.8484 13.5496 22.5473 14.8527 20.9424 14.8527C19.3374 14.8527 18.0363 13.5496 18.0363 11.9422C18.0363 10.3349 19.3374 9.0318 20.9424 9.0318C22.5473 9.0318 23.8484 10.3349 23.8484 11.9422Z" fill="#E3FE0F" fill-opacity="0.3"/>
<path d="M23.3354 11.9422C23.3354 13.266 22.2639 14.3391 20.9422 14.3391C19.6204 14.3391 18.549 13.266 18.549 11.9422C18.549 10.6185 19.6204 9.54541 20.9422 9.54541C22.2639 9.54541 23.3354 10.6185 23.3354 11.9422Z" fill="#E3FE0F" fill-opacity="0.5"/>
<path d="M22.8226 11.9423C22.8226 12.9824 21.9807 13.8255 20.9422 13.8255C19.9037 13.8255 19.0618 12.9824 19.0618 11.9423C19.0618 10.9022 19.9037 10.0591 20.9422 10.0591C21.9807 10.0591 22.8226 10.9022 22.8226 11.9423Z" fill="#17161E"/>
<path d="M15.4333 2.23845C15.4333 3.47471 14.4327 4.4769 13.1983 4.4769C11.9639 4.4769 10.9632 3.47471 10.9632 2.23845C10.9632 1.00219 11.9639 0 13.1983 0C14.4327 0 15.4333 1.00219 15.4333 2.23845Z" fill="#E3FE0F" fill-opacity="0.3"/>
<path d="M15.039 2.23833C15.039 3.25643 14.2149 4.08176 13.1984 4.08176C12.1818 4.08176 11.3577 3.25643 11.3577 2.23833C11.3577 1.22023 12.1818 0.394897 13.1984 0.394897C14.2149 0.394897 15.039 1.22023 15.039 2.23833Z" fill="#E3FE0F" fill-opacity="0.5"/>
<path d="M14.6446 2.23845C14.6446 3.03838 13.9972 3.68686 13.1984 3.68686C12.3997 3.68686 11.7522 3.03838 11.7522 2.23845C11.7522 1.43851 12.3997 0.790039 13.1984 0.790039C13.9972 0.790039 14.6446 1.43851 14.6446 2.23845Z" fill="#17161E"/>
</svg>
