<svg width="27" height="30" viewBox="0 0 27 30" fill="none" xmlns="http://www.w3.org/2000/svg">
<path d="M8.66897 0.00643143C8.53458 -0.00755328 8.3946 0.000923157 8.26373 0.0352538C8.18833 0.055029 8.10763 0.0825611 8.04128 0.124112L7.34101 0.610041L5.01874 2.18142L3.35556 3.28306C3.09932 3.45383 2.82887 3.61787 2.58404 3.80508C2.51099 3.86094 2.45702 3.94614 2.4225 4.03105C2.34725 4.21637 2.35367 4.39812 2.35468 4.59463L2.35731 5.10461L2.35899 6.2767C2.35859 6.31532 2.37107 6.46239 2.35636 6.49142C2.34832 6.5073 2.24641 6.56328 2.22387 6.57845L1.63049 6.98518C1.38976 7.14875 1.08154 7.29716 0.930859 7.55843C0.868359 7.66683 0.816103 7.79874 0.808062 7.92447C0.786749 8.25729 0.814327 8.60643 0.814175 8.9413L0.811056 10.9319L0.812403 11.5474C0.81329 11.6723 0.805246 11.8111 0.838301 11.9319C0.955992 12.362 1.23626 12.5358 1.58906 12.7652L2.20656 13.1761C2.23066 13.1934 2.34068 13.262 2.34798 13.2792C2.3537 13.2926 2.34667 13.3579 2.34645 13.3756L2.34569 13.6917L2.34012 15.9076L2.33854 16.6029C2.33896 16.7757 2.33591 16.9597 2.36639 17.1302C2.49628 17.8566 2.93158 18.5742 3.45879 19.0737C3.70273 19.3049 3.97138 19.4757 4.24624 19.6637L5.29243 20.372L8.08027 22.2712L14.297 26.5051L18.9599 29.6783C19.1967 29.8333 19.4292 29.9271 19.7072 29.975C19.9891 30.0235 20.3599 30.0054 20.6245 29.885C20.7604 29.8231 20.8767 29.7006 20.9983 29.6128L21.7797 29.0709L25.2993 26.6489C25.4027 26.577 25.5248 26.5397 25.6391 26.4894C25.7494 26.4408 25.8559 26.3788 25.9537 26.3076C26.2767 26.0725 26.5096 25.7268 26.5736 25.3259C26.6089 25.1045 26.5928 24.8658 26.5933 24.6417L26.5948 23.5325L26.5964 19.429L26.5968 15.3597L26.5967 14.1359C26.5966 13.9019 26.6104 13.6571 26.582 13.4247C26.5141 12.8688 26.3012 12.3522 25.9787 11.8998C25.7975 11.6457 25.5982 11.393 25.3489 11.2048L24.5161 10.634L23.3061 9.81059L18.3472 6.44288L12.3377 2.36102L10.4432 1.06951L9.13768 0.18398C8.98828 0.0892045 8.84307 0.0349839 8.66897 0.00643143Z" fill="#17161E"/>
<path d="M2.36499 7.75635C2.25127 7.80219 2.13701 7.89917 2.04301 7.97838L2.1582 8.08049L2.36371 8.22905L2.36499 7.75635Z" fill="#E3FE0F"/>
<path d="M2.37273 6.98633L1.76623 7.3863C1.58066 7.51517 1.27893 7.68259 1.23878 7.92463C1.21031 8.09623 1.27926 8.243 1.39595 8.36408C1.51168 8.48417 1.66765 8.57709 1.80492 8.67011L2.54595 9.16644L5.89307 11.421L6.92052 12.1166C7.08441 12.2294 7.25931 12.3371 7.41208 12.4651C7.59747 12.6204 7.76475 12.8103 7.90538 13.0077C8.31138 13.5776 8.62006 14.32 8.50447 15.0341C8.49802 15.073 8.48772 15.1099 8.50084 15.1484L8.52542 15.1289C8.69696 14.9879 8.77667 14.756 8.79282 14.5393C8.85018 13.7697 8.34783 12.9587 7.83303 12.438C7.62385 12.2265 7.36389 12.0858 7.11722 11.9253L6.41059 11.454L2.9555 9.12702L2.27733 8.68335C2.0865 8.55817 1.87943 8.43331 1.73233 8.25438C1.6601 8.16655 1.6143 8.06596 1.63096 7.94966C1.67805 7.62142 2.13071 7.4135 2.3746 7.24543L2.37273 6.98633Z" fill="#E3FE0F"/>
<path d="M2.81645 17.1641C2.86907 17.3896 2.94026 17.6103 3.04324 17.8174C3.26331 18.2602 3.56767 18.6373 3.95343 18.9422C4.237 19.1662 4.54968 19.3594 4.84781 19.5631L6.54218 20.7162L11.7733 24.2684L17.004 27.8264L18.5997 28.9091C18.8874 29.1017 19.1967 29.3696 19.5243 29.4772C19.8776 29.5932 20.2238 29.5923 20.5583 29.4209L20.5939 29.3968C20.595 29.3958 20.6187 29.3698 20.6202 29.3656C20.6318 29.3329 20.621 29.2542 20.6213 29.2147L20.6273 28.7541C20.3992 28.8218 20.1587 28.8562 19.9214 28.8223C19.7014 28.7909 19.4793 28.7071 19.2895 28.591L18.3826 27.9813L16.5655 26.7494L12.3859 23.9174L11.4045 23.2391L6.59832 19.968L4.36732 18.4573C4.10732 18.2787 3.82797 18.115 3.57666 17.9253C3.29382 17.7118 3.02655 17.452 2.81645 17.1641Z" fill="#E3FE0F"/>
<path d="M1.2215 8.78137C1.20217 8.95617 1.21762 9.15299 1.21746 9.32997L1.217 10.4482L1.21756 11.3504C1.21771 11.4834 1.203 11.6341 1.22211 11.7642C1.24159 11.8966 1.29213 12.0184 1.38885 12.1113C1.5136 12.2313 1.69184 12.3225 1.83576 12.4197L2.80567 13.0776L5.63509 15.0075L7.16917 16.0639C7.36284 15.9895 7.55942 15.8558 7.72179 15.726C7.76768 15.6822 7.80905 15.6376 7.84728 15.5869C8.07211 15.2886 8.15231 14.8939 8.10097 14.5253C8.02291 13.9644 7.74854 13.4108 7.36929 12.9977C7.14373 12.752 6.89101 12.6066 6.62 12.4217L5.69279 11.795L2.55163 9.67855L1.75776 9.13975C1.57745 9.02081 1.39411 8.91235 1.2215 8.78137Z" fill="#E3FE0F"/>
<path d="M6.03715 12.9225C5.933 12.9108 5.80708 12.9055 5.71067 12.952C5.61237 12.9994 5.53116 13.1033 5.49633 13.2066C5.42178 13.4281 5.50535 13.7086 5.60212 13.9113C5.73131 14.1818 5.93872 14.4062 6.22299 14.5049C6.33686 14.5067 6.43021 14.4926 6.53518 14.4458C6.65957 14.3903 6.73146 14.297 6.77739 14.1681C6.85297 13.9559 6.79023 13.7028 6.69158 13.5085C6.55191 13.2335 6.32812 13.017 6.03715 12.9225Z" fill="#17161E"/>
<path d="M25.0917 13.7445L23.32 14.8588L23.336 27.4825L25.1578 26.2034L25.154 17.4443L25.1527 15.2465C25.1519 14.7551 25.1936 14.2256 25.0917 13.7445Z" fill="#E3FE0F"/>
<path d="M8.58749 0.409733C8.30389 0.393751 8.14449 0.56465 7.92446 0.716224C8.07438 0.833911 8.24056 0.936748 8.39663 1.04639L9.61974 1.88416L12.7453 4.01281L20.5929 9.34412L23.0977 11.0236L23.7471 11.4651C24.0202 11.6474 24.2913 11.8254 24.5235 12.061C24.9887 12.5331 25.3889 13.1492 25.5202 13.8115C25.5584 14.0039 25.5552 14.1947 25.5556 14.3897L25.5565 15.0927L25.5569 17.3601L25.5579 26.0561L25.7254 25.9442C25.9692 25.7719 26.147 25.5109 26.1969 25.2111C26.2269 25.031 26.2096 24.8343 26.2089 24.6516L26.2109 23.7851L26.2062 20.2103L26.2037 15.6461L26.2029 14.2933C26.2026 14.0505 26.2187 13.792 26.1892 13.5516C26.1249 13.0281 25.9239 12.5296 25.6186 12.1024C25.4864 11.9174 25.3199 11.709 25.1404 11.5675C24.8774 11.3601 24.5784 11.1803 24.3004 10.9928L22.8884 10.0349L18.825 7.27504L11.6049 2.37065L9.92872 1.22846L8.94668 0.552579C8.82899 0.476453 8.72665 0.431773 8.58749 0.409733Z" fill="#E3FE0F"/>
<path d="M3.95768 3.43691C3.86666 3.42184 3.66014 3.60554 3.57911 3.66459C3.76382 3.69396 3.9568 3.74443 4.11699 3.84538L4.66872 4.23093L5.34934 4.69197L8.34736 6.73093L9.70088 7.63387L15.0494 11.2724L18.6795 13.7452C19.0848 14.0312 19.5499 14.2859 19.9029 14.6364C20.4215 15.1513 20.8252 15.8127 20.9804 16.5361C21.0375 16.8023 21.0381 17.0663 21.0385 17.3369L21.0399 18.0724L21.0431 20.2076L21.0381 29.0535L22.5321 28.0321L22.9133 27.7675L22.9109 15.1395L21.6728 15.917L21.4014 16.0904C21.351 16.123 21.2905 16.1712 21.2308 16.1826C21.1563 16.1967 21.0856 16.1472 21.0475 16.086C20.9829 15.9821 20.9586 15.813 20.9151 15.6946C20.8249 15.449 20.7025 15.2166 20.5597 14.9985C20.4052 14.7626 20.2162 14.5396 20.0003 14.3586C19.8316 14.2173 19.6451 14.0951 19.4643 13.9706L18.6962 13.4411L16.0229 11.6107L11.2452 8.36868L8.14598 6.26192L5.46626 4.44921L4.42056 3.74923L3.95768 3.43691Z" fill="#E3FE0F"/>
<path d="M5.73354 2.21716L4.31455 3.15896L5.67337 4.07927L7.98594 5.6478L16.4432 11.3938L19.1732 13.2607L19.8214 13.708C19.9744 13.8132 20.1353 13.9165 20.2729 14.0419C20.6041 14.3438 20.8882 14.7127 21.0985 15.1106C21.1502 15.2085 21.1955 15.3095 21.2336 15.4136C21.2573 15.4781 21.2799 15.5908 21.3279 15.6386L21.3644 15.6207L22.8335 14.7005C22.6513 14.1383 22.3224 13.6095 21.8797 13.2208C21.6911 13.0552 21.4583 12.9213 21.2502 12.781L20.2013 12.0635L16.1969 9.32914L12.5619 6.84411L9.3387 4.66422L5.73354 2.21716Z" fill="#E3FE0F"/>
<path d="M7.55668 0.984619C7.33612 1.10281 7.13111 1.26284 6.92416 1.40383L6.1205 1.95423L8.04496 3.27089L10.1399 4.69312L17.558 9.74743L20.6202 11.8457L21.6301 12.5355C21.8225 12.6686 22.0286 12.7988 22.2032 12.955C22.6531 13.3575 22.961 13.891 23.1851 14.4488L23.3462 14.3498C23.5002 14.2562 24.9007 13.3982 24.916 13.3417C24.7192 12.9075 24.4251 12.5072 24.0597 12.2031C23.8208 12.0042 23.5497 11.8395 23.2924 11.6661L22.0483 10.8286L18.6174 8.50596L10.9855 3.33187L8.76643 1.81802L7.55668 0.984619Z" fill="#E3FE0F"/>
<path d="M3.43886 4.03749C3.32502 4.02465 3.20831 4.0235 3.09615 4.05011C2.98482 4.07657 2.89511 4.11534 2.8356 4.21772C2.81123 4.25965 2.80081 4.30381 2.79555 4.35183C2.77439 4.54471 2.7887 4.75462 2.78848 4.94893L2.78867 6.17381L2.78861 8.06008L2.78845 8.39284C2.78845 8.41902 2.78029 8.49067 2.78842 8.51275C2.80341 8.55357 7.42544 11.5864 7.84456 11.8993C7.96096 11.9862 8.06664 12.0875 8.16843 12.1914C8.63311 12.6652 9.01058 13.2964 9.1635 13.9497C9.26104 14.3663 9.26229 14.8212 9.03257 15.1949C8.96239 15.309 8.87607 15.419 8.77489 15.5065C8.58966 15.6666 8.35137 15.7951 8.14699 15.9307L7.68809 16.2461C7.57404 16.3251 7.4388 16.4298 7.30111 16.4586C7.19458 16.4809 7.07083 16.4721 6.9718 16.4245C6.83762 16.36 6.70917 16.2508 6.58655 16.165L5.96865 15.7433L2.76411 13.5635L2.76369 14.9748C2.7625 15.3119 2.74106 15.6659 2.80744 15.9976C2.91627 16.5417 3.22124 17.0269 3.61932 17.4013C3.78658 17.5585 3.97824 17.6797 4.16742 17.8074L4.726 18.1918L6.80579 19.6093L14.2819 24.6846L17.9052 27.1461L18.8681 27.7984C19.0874 27.9512 19.316 28.1433 19.5537 28.2629C19.9155 28.445 20.2504 28.4115 20.6199 28.2884L20.6289 26.0175L20.6275 21.2153L20.6296 18.3861L20.6314 17.4408C20.6313 17.2528 20.6411 17.0579 20.6179 16.8714C20.5571 16.3831 20.3708 15.9346 20.1049 15.5258C19.9134 15.2315 19.6801 14.9652 19.4009 14.7532L18.5164 14.1405L16.457 12.7332L10.5764 8.74428L5.76324 5.484L4.54667 4.65776C4.34073 4.51456 4.13791 4.34894 3.92574 4.21772C3.77588 4.12504 3.60945 4.07312 3.43886 4.03749Z" fill="#E3FE0F"/>
</svg>
