<svg width="33" height="28" viewBox="0 0 33 28" fill="none" xmlns="http://www.w3.org/2000/svg">
<path d="M10.7795 0.807337C10.5906 0.786997 10.4474 0.806652 10.2797 0.899159C10.133 0.980038 9.99436 1.08469 9.85682 1.17992L9.10643 1.70297L6.44651 3.51999L3.61297 5.44688L2.86018 5.97583L1.24178 7.0785C0.942585 7.28224 0.625896 7.47605 0.34116 7.69838C0.292015 7.73676 0.243439 7.77753 0.227112 7.83936L0.22308 7.85665C0.188793 7.9958 0.208519 8.17074 0.208153 8.3159L0.207287 9.2618L0.20499 12.7194C0.205788 12.7739 0.198856 12.8619 0.227379 12.908C0.259731 12.9604 0.306709 13.0001 0.357052 13.0354L2.96406 14.8166L4.33434 15.7722L12.7381 21.4985L18.887 25.6929L20.8344 27.0109L21.7836 27.6582C21.8887 27.7243 21.9914 27.7623 22.1117 27.7928C22.2611 27.8096 22.406 27.7996 22.5452 27.7385C22.6999 27.6706 22.8429 27.5448 22.9837 27.4507L23.9614 26.8024L26.9753 24.7845L30.3864 22.5095L31.6298 21.6844C31.8403 21.5458 32.073 21.4179 32.2709 21.2633C32.4267 21.1415 32.5317 20.9774 32.5999 20.7956C32.6388 20.6919 32.6676 20.5886 32.6725 20.4776L32.6688 19.6278L32.6687 17.9103L32.6727 16.6942C32.6739 16.4771 32.6865 16.2524 32.672 16.0361C32.6638 15.9138 32.6304 15.794 32.5757 15.6837C32.5035 15.5384 32.3947 15.4377 32.2623 15.3447L30.7377 14.3117L27.3066 11.9906L16.8538 4.89185L13.0744 2.31247L11.8077 1.44435L11.3145 1.10566C11.1396 0.985583 10.9846 0.873525 10.7795 0.807337Z" fill="#17161E"/>
<path d="M32.2275 16.0317C32.0662 16.0903 31.8957 16.2027 31.7746 16.3223C31.7439 16.3526 31.687 16.4157 31.673 16.4544C31.6501 16.518 31.6631 16.6262 31.663 16.6951L31.6628 17.2528C31.742 17.2444 31.8129 17.2454 31.8876 17.2744C31.9232 17.3092 31.9467 17.3342 31.9532 17.3845C31.9738 17.5443 31.9577 17.7265 31.9572 17.8884C31.9568 18.0075 31.9726 18.158 31.943 18.2725C31.9346 18.305 31.9149 18.3331 31.8936 18.3588C31.8473 18.4149 31.7779 18.4794 31.7013 18.4841C31.6452 18.4875 31.5973 18.4741 31.5573 18.4342C31.5307 18.4076 31.5088 18.3671 31.5016 18.3305C31.4866 18.254 31.4963 18.1583 31.4964 18.0798L31.4991 17.5503L24.9154 22.0659L23.2023 23.243C23.1663 23.2682 22.9439 23.4038 22.934 23.4303C22.9248 23.4548 22.9346 23.5339 22.9347 23.5649L22.9366 23.9776L22.9375 25.8154C22.9371 26.1022 22.9567 26.4056 22.9332 26.6908C22.9308 26.7198 22.9227 26.7455 22.9045 26.7686C22.8652 26.8186 22.7959 26.8428 22.7335 26.8466C22.6621 26.851 22.5847 26.8199 22.5355 26.7691C22.5095 26.7423 22.4892 26.7115 22.4843 26.6742C22.4717 26.5789 22.4803 26.4721 22.48 26.3754L22.4786 25.8102L22.4743 23.9029L22.4718 23.7202L21.9301 24.1094L21.9202 26.249V26.7994C21.9205 26.8978 21.9121 27.0065 21.9293 27.1035C21.9402 27.1657 21.9745 27.2243 22.0194 27.2691C22.0776 27.3269 22.1598 27.336 22.2391 27.3369C22.3069 27.3378 22.3594 27.3201 22.4181 27.2879C22.5234 27.23 22.6238 27.15 22.7226 27.0817L23.2628 26.7184L25.8586 24.9857L30.4373 21.9315L31.666 21.1237C31.805 21.0304 31.978 20.9401 32.0973 20.8246C32.172 20.7522 32.213 20.6431 32.2276 20.5426C32.2515 20.3785 32.237 20.1932 32.2364 20.027L32.2319 19.0599L32.2275 16.0317Z" fill="white"/>
<path d="M31.8089 18.9613C31.7816 18.9574 31.7524 18.9555 31.7252 18.9613C31.6599 18.9752 31.5801 19.0469 31.544 19.0995C31.5232 19.1298 31.5112 19.1615 31.5068 19.1977C31.4842 19.382 31.5004 19.5818 31.5003 19.7683C31.5003 19.9858 31.4794 20.2237 31.5147 20.437C31.5496 20.4953 31.5861 20.5079 31.6486 20.5332C31.6886 20.5339 31.7292 20.5341 31.767 20.5195C31.8455 20.4891 31.9126 20.4018 31.9428 20.3266C31.9745 20.2481 31.9765 19.1313 31.94 19.0658C31.9069 19.0063 31.8731 18.983 31.8089 18.9613Z" fill="#17161E"/>
<path d="M30.247 18.7983C30.1893 18.8 30.1591 18.8084 30.11 18.8383C29.7674 19.0465 29.4416 19.2987 29.1113 19.5265L27.0627 20.9333L25.1279 22.262L24.3308 22.8121C24.1372 22.9461 23.9394 23.0742 23.7587 23.2248C23.7277 23.3653 23.7502 23.5563 23.7494 23.7015L23.7441 24.892L23.7398 25.4787C23.7389 25.5747 23.7269 25.6831 23.7432 25.777C23.7551 25.846 23.7887 25.8511 23.8461 25.8875L23.9413 25.9026C23.9843 25.8915 24.0126 25.8773 24.0494 25.8531L26.4702 24.2226L28.9104 22.5947L29.788 22.0122C29.9703 21.8943 30.1866 21.7884 30.3417 21.6387C30.3664 21.5097 30.3505 21.3518 30.3504 21.2198L30.3497 20.3924L30.3497 19.4611C30.3507 19.2626 30.3658 19.0611 30.3437 18.8636C30.31 18.8188 30.2983 18.8176 30.247 18.7983Z" fill="#17161E"/>
<path d="M25.449 22.4316L25.181 22.65L25.1814 24.6966L25.4318 24.511C25.4689 24.465 25.45 22.6373 25.449 22.4316Z" fill="white"/>
<path d="M28.8916 20.0658C28.8011 20.1175 28.716 20.1867 28.6316 20.2479L28.628 22.3936L28.8942 22.2164L28.8916 20.0658Z" fill="white"/>
<path d="M27.1645 21.2408L26.8901 21.4499L26.8946 23.574L27.161 23.3814L27.1645 21.2408Z" fill="white"/>
<path d="M0.660133 9.99329L0.661463 12.7L21.4588 26.8882L21.4703 24.168C21.3338 24.0487 21.1376 23.9463 20.9854 23.8417L19.5076 22.8443L14.41 19.3711L9.84634 16.2546L7.79998 14.8353L5.47394 13.2585L1.82993 10.7742L0.660133 9.99329Z" fill="white"/>
<path d="M2.9331 13.3029C2.88579 13.2943 2.84661 13.2943 2.80096 13.3096C2.73369 13.3321 2.69737 13.3784 2.66666 13.4387C2.63963 13.4918 2.63327 13.5553 2.65649 13.6112C2.67179 13.648 2.69931 13.6734 2.73046 13.6977C2.90648 13.8351 3.10742 13.9529 3.29107 14.0826L5.40934 15.521L6.38669 16.1871C6.52536 16.2808 6.6575 16.3953 6.80997 16.4663C6.83512 16.4754 6.85375 16.4786 6.8811 16.4787C6.94234 16.479 6.99861 16.4344 7.03723 16.3918C7.0928 16.3305 7.09177 16.2671 7.08914 16.1891C7.05812 16.1175 7.01114 16.0801 6.94907 16.0349L5.44632 15.0203L3.82223 13.9096L3.29284 13.5409C3.18065 13.4603 3.06244 13.3548 2.9331 13.3029Z" fill="#17161E"/>
<path d="M10.6651 1.23623L10.6373 1.23108C10.4335 1.30795 10.2252 1.48654 10.0426 1.60671L7.98818 3.0104L2.68476 6.63414L0.649126 8.02642L0.656954 9.41686C0.747013 9.5237 0.954853 9.62891 1.0731 9.70982L2.02666 10.3658L6.26017 13.2391L10.7959 16.3568L18.2935 21.4658L21.6759 23.76L21.7778 23.6825L24.1989 22.0104L28.8141 18.8411L30.9847 17.3445C31.0412 17.3036 31.16 17.2455 31.1983 17.1968C31.2038 17.1899 31.1974 17.0644 31.1973 17.0481C31.1961 16.8662 31.173 16.6478 31.2213 16.4708C31.3247 16.0922 31.5909 15.8618 31.924 15.669C31.4434 15.303 30.9202 14.9748 30.4177 14.6373L28.0312 13.0254L23.808 10.1465L19.6188 7.3167L13.8108 3.35362L12.0081 2.1218C11.5754 1.82225 11.1323 1.48018 10.6651 1.23623Z" fill="white"/>
<path d="M10.6741 2.31421L7.71792 4.30633L5.05284 6.13252L3.28974 7.34359C3.00844 7.53702 2.70121 7.72096 2.43383 7.93085C2.40141 7.95626 2.36569 7.98939 2.34957 8.02778C2.24808 8.26931 2.52789 8.37983 2.69055 8.48961L7.8443 12.0388L11.6527 14.6694L12.8815 15.5102C12.9442 15.5553 13.056 15.6217 13.0843 15.6903C13.0475 15.7107 13.0186 15.7258 12.99 15.7571C13.0434 16.0432 13.1268 16.3272 13.1999 16.6093C13.2265 16.7121 13.2497 16.8764 13.3063 16.9637C13.6132 17.147 13.9022 17.3656 14.1977 17.5663L15.8871 18.7165L19.9848 21.4998L20.8653 22.0995C20.934 22.146 21.0728 22.2763 21.1545 22.2749L21.7382 22.2774L22.2314 22.2806L27.5511 18.6449L29.4406 17.3519C29.6795 17.1841 29.9511 17.0325 30.1593 16.8296C30.1924 16.6648 30.1764 16.4826 30.1761 16.315C30.1756 16.0673 30.1827 15.8173 30.165 15.5702C30.0367 15.4328 29.8508 15.3295 29.6939 15.2245L28.9261 14.7096L24.8771 11.9654L15.3536 5.48535L12.2473 3.37201L10.6741 2.31421Z" fill="#17161E"/>
<path d="M7.73375 4.84082L7.32447 5.12198L17.9289 12.3543C18.0683 12.2808 18.2069 12.1742 18.334 12.0822L7.73375 4.84082Z" fill="white"/>
<path d="M8.5586 4.29028L8.1298 4.57715L18.7302 11.7987C18.8721 11.734 19.0199 11.6161 19.147 11.5262L8.5586 4.29028Z" fill="white"/>
<path d="M4.20134 7.28592L4.18008 7.28113C4.07846 7.29783 3.87142 7.48127 3.78276 7.5466L14.3032 14.8086L14.7283 14.5077L4.20134 7.28592Z" fill="white"/>
<path d="M3.40496 7.85671L3.35075 7.84546L2.93894 8.13376L13.4461 15.3368C13.4642 15.3509 13.4748 15.3548 13.4961 15.3619L13.8802 15.0813L3.40496 7.85671Z" fill="white"/>
<path d="M6.91393 5.41443C6.83923 5.45066 6.76593 5.50894 6.6969 5.55577L6.23388 5.87495L5.15184 6.61357L4.60059 6.9911L15.1348 14.2584L17.5199 12.6239L6.91393 5.41443Z" fill="white"/>
<path d="M10.7027 2.86694L10.6642 2.85986L8.97136 4.00764C9.05602 4.11131 9.25563 4.21502 9.37031 4.29519L10.7951 5.27553L16.0999 8.89724L18.3578 10.4362L19.3407 11.1006C19.4547 11.1789 19.662 11.2903 19.7336 11.4045C19.7662 11.4565 19.7709 11.5108 19.7546 11.569C19.7364 11.6343 19.6971 11.6801 19.6425 11.72L18.0433 12.8021L15.1966 14.7422L14.0708 15.4941C13.8815 15.6219 13.6945 15.7761 13.4899 15.8781L13.4692 15.8883C13.5018 16.0089 13.6404 16.6289 13.6997 16.6809C13.7919 16.7617 13.9152 16.83 14.0175 16.9005L14.7803 17.4194L17.0122 18.9302L20.4651 21.2874L21.0979 21.7181C21.1468 21.7508 21.228 21.8214 21.2798 21.839C21.3058 21.8478 21.3732 21.8396 21.4026 21.8398L21.709 21.8418C21.8078 21.8437 21.9739 21.8698 22.0653 21.8486C22.1329 21.833 22.2486 21.7292 22.3102 21.6862L23.0037 21.2061L27.3293 18.2542L29.7208 16.6191L29.7251 15.7868L10.7027 2.86694Z" fill="white"/>
<path d="M22.1279 12.7797C20.8374 12.6825 19.4319 13.0598 18.4422 13.8858C17.7792 14.439 17.3024 15.2048 17.2403 16.0672C17.1824 16.8709 17.4732 17.601 18.0046 18.2063C18.8602 19.1809 20.1855 19.6791 21.4714 19.7721L21.4931 19.7742C21.807 19.8021 22.1308 19.7859 22.4435 19.7528C23.4173 19.6497 24.4244 19.3034 25.1837 18.6839C25.8266 18.1593 26.3273 17.4439 26.3962 16.607C26.465 15.7712 26.1517 14.9693 25.5962 14.3402C24.725 13.3537 23.4328 12.8703 22.1279 12.7797Z" fill="#17161E"/>
<path d="M22.1266 13.823C21.6728 13.7964 21.261 13.8421 20.8147 13.9227C20.9844 14.2307 21.1221 14.5569 21.2759 14.8731C21.3149 14.953 21.3621 15.1024 21.4259 15.1571L21.4881 15.1462C21.7228 15.1042 21.9254 15.1375 22.1575 15.1415L22.8517 13.944L22.1266 13.823Z" fill="white"/>
<path d="M22.1854 17.5311C21.9524 17.5705 21.7354 17.5709 21.5026 17.5348L20.7943 18.8492L21.3802 18.9341C21.8575 19.0042 22.3424 18.943 22.8101 18.8445L22.1854 17.5311Z" fill="white"/>
<path d="M23.3853 14.1183L23.325 14.1096C23.2207 14.2375 23.1382 14.3928 23.0531 14.5337L22.6013 15.2937C22.831 15.4127 22.9837 15.5392 23.1589 15.7252L23.7944 15.4972L24.8042 15.1243C24.7194 15.0293 24.6399 14.9283 24.5477 14.8399C24.2173 14.5234 23.8179 14.276 23.3853 14.1183Z" fill="white"/>
<path d="M18.5896 15.5858L18.5476 15.5908C18.359 16.1176 18.3679 16.6838 18.6157 17.19L19.6682 16.8002L20.2584 16.5984C20.22 16.4448 20.226 16.2704 20.2518 16.1152L20.2567 16.0865L18.5896 15.5858Z" fill="white"/>
<path d="M20.3498 14.0546C19.711 14.2865 19.1591 14.6034 18.7647 15.1639L19.6758 15.4299C19.7727 15.46 20.4329 15.6879 20.4639 15.678C20.5068 15.6644 20.6283 15.5291 20.67 15.4943C20.7648 15.4153 20.8638 15.3648 20.9769 15.3158L20.3498 14.0546Z" fill="white"/>
<path d="M23.1041 17.0129C22.9717 17.16 22.8122 17.2663 22.6407 17.3646C22.6381 17.4285 22.7243 17.5722 22.7526 17.6347L23.2519 18.6979L23.5775 18.5641C23.7225 18.4967 23.8591 18.4147 23.995 18.3313C24.3357 18.1148 24.6131 17.8556 24.8593 17.539L23.1041 17.0129Z" fill="white"/>
<path d="M25.0759 15.4857L23.3883 16.1264C23.4033 16.3041 23.3896 16.4623 23.3587 16.6378L23.9212 16.7996L25.0958 17.1624L25.1098 17.1418C25.1494 17.0726 25.1738 16.9698 25.1967 16.8933C25.344 16.4007 25.2468 15.9549 25.0759 15.4857Z" fill="white"/>
<path d="M20.476 16.9918L18.8145 17.5747C19.071 17.9272 19.3579 18.1854 19.7279 18.4211L20.3441 18.724L21.0755 17.4019C20.8378 17.3003 20.6524 17.1782 20.476 16.9918Z" fill="white"/>
<path d="M21.9711 15.5511C21.6518 15.5394 21.3917 15.5727 21.1093 15.7282C20.92 15.8324 20.7467 15.9854 20.6946 16.2016C20.6607 16.3422 20.6921 16.5148 20.7707 16.6356C20.9577 16.9233 21.2891 17.0615 21.6178 17.1258C21.9502 17.1766 22.3179 17.0853 22.5901 16.8925C22.7552 16.7755 22.9022 16.5944 22.9318 16.393C22.9549 16.2363 22.89 16.0844 22.7918 15.9632C22.5899 15.714 22.2861 15.5891 21.9711 15.5511Z" fill="white"/>
<path d="M22.217 13.2228C21.6844 13.1774 21.1154 13.222 20.5921 13.3234C19.6203 13.5119 18.6557 14.0666 18.1031 14.8847C17.7277 15.4406 17.6082 16.1384 17.7466 16.7863C17.9175 17.5866 18.4782 18.1418 19.1519 18.5754L19.1678 18.565C18.9641 18.3996 18.7722 18.2323 18.6094 18.026C18.1601 17.4564 17.8757 16.741 17.9802 16.0125C18.0937 15.2213 18.5603 14.6169 19.1999 14.1432C19.4543 13.9547 19.7517 13.8227 20.0493 13.7144C20.8177 13.4348 21.658 13.3307 22.4709 13.444L23.0967 13.571C24.0143 13.8224 24.9372 14.3886 25.4098 15.2179C25.716 15.7553 25.8187 16.3708 25.6431 16.9676C25.375 17.8784 24.6268 18.5018 23.8081 18.9425V18.9607C24.2304 18.7807 24.6248 18.5545 24.9799 18.2656C25.5182 17.8278 25.877 17.2509 25.9405 16.5627C26.0037 15.8767 25.7501 15.2056 25.2979 14.6844C24.5241 13.7926 23.3933 13.3181 22.217 13.2228Z" fill="white"/>
</svg>
