<svg width="21" height="22" viewBox="0 0 21 22" fill="none" xmlns="http://www.w3.org/2000/svg">
<path d="M4.36447 10.4815C4.36448 10.364 4.38766 10.2478 4.43265 10.1393C4.47764 10.0309 4.54357 9.93248 4.62665 9.84965C4.70974 9.76681 4.80832 9.70124 4.91676 9.65668C5.02521 9.61213 5.14137 9.58948 5.25859 9.59003L6.74102 9.59487C6.97737 9.59487 7.20405 9.68894 7.37117 9.85637C7.53831 10.0238 7.63221 10.2509 7.63221 10.4877V16.1032C7.79909 16.0536 8.01343 16.0006 8.24796 15.9453C8.41088 15.907 8.55606 15.8146 8.65999 15.6832C8.7639 15.5518 8.82043 15.3891 8.8204 15.2214V8.25566C8.8204 8.01885 8.91428 7.79175 9.0814 7.62428C9.24853 7.45682 9.47521 7.36273 9.71159 7.36268H11.197C11.4333 7.36273 11.66 7.45682 11.8271 7.62428C11.9942 7.79175 12.0881 8.01885 12.0881 8.25566V14.7206C12.0881 14.7206 12.46 14.5698 12.8223 14.4166C12.9568 14.3596 13.0717 14.2642 13.1525 14.1422C13.2332 14.0202 13.2764 13.8771 13.2765 13.7308V6.02364C13.2765 5.78689 13.3704 5.55981 13.5375 5.39239C13.7045 5.22496 13.9312 5.13089 14.1675 5.13084H15.6529C15.8892 5.13084 16.1159 5.22489 16.2831 5.39233C16.4502 5.55976 16.5441 5.78685 16.5441 6.02364V12.3703C17.8318 11.4353 19.1369 10.3108 20.1725 8.95864C20.3228 8.76237 20.4222 8.53189 20.4619 8.28779C20.5016 8.04368 20.4804 7.79351 20.4001 7.55961C19.9207 6.17783 19.1588 4.91151 18.1628 3.84169C17.1669 2.7719 15.959 1.92215 14.6165 1.34685C13.2739 0.771554 11.8263 0.483369 10.3662 0.500741C8.90609 0.518113 7.46569 0.840659 6.13718 1.44773C4.80865 2.05481 3.62125 2.93305 2.65097 4.02626C1.68069 5.11944 0.9489 6.40354 0.502425 7.79634C0.0559507 9.18913 -0.0953743 10.66 0.0581327 12.1147C0.21164 13.5695 0.6666 14.9761 1.3939 16.2446C1.52059 16.4634 1.70699 16.6415 1.93119 16.7578C2.15538 16.8742 2.40807 16.9241 2.65958 16.9016C2.94054 16.8769 3.29035 16.8418 3.70626 16.7928C3.88731 16.7722 4.05447 16.6856 4.17588 16.5495C4.2973 16.4134 4.36448 16.2373 4.36464 16.0548L4.36447 10.4815Z" fill="#E3FE0F"/>
<path d="M4.33203 19.4883C5.8977 20.6294 7.74798 21.3143 9.67813 21.4674C11.6083 21.6202 13.5431 21.2353 15.2684 20.355C16.9937 19.4746 18.4422 18.1333 19.4539 16.4794C20.4654 14.8255 21.0005 12.9234 21 10.9837C21 10.7417 20.9888 10.5022 20.9727 10.2642C17.1382 15.9934 10.0583 18.6719 4.33236 19.4874" fill="#E3FE0F"/>
</svg>
