<svg width="3265" height="6968" viewBox="0 0 3265 6968" fill="none" xmlns="http://www.w3.org/2000/svg">
<mask id="path-1-inside-1_1_422" fill="white">
<path d="M1157 1471C1157 1708.48 964.482 1901 727 1901C489.518 1901 297 1708.48 297 1471C297 1233.52 489.518 1041 727 1041C964.482 1041 1157 1233.52 1157 1471Z"/>
<path d="M1146.66 1471C1146.66 1702.77 958.774 1890.66 727 1890.66C495.226 1890.66 307.335 1702.77 307.335 1471C307.335 1239.23 495.226 1051.34 727 1051.34C958.774 1051.34 1146.66 1239.23 1146.66 1471Z"/>
<path d="M1136.59 1471C1136.59 1697.21 953.212 1880.59 727 1880.59C500.788 1880.59 317.407 1697.21 317.407 1471C317.407 1244.79 500.788 1061.41 727 1061.41C953.212 1061.41 1136.59 1244.79 1136.59 1471Z"/>
<path d="M1126.52 1471C1126.52 1691.65 947.649 1870.52 727 1870.52C506.351 1870.52 327.479 1691.65 327.479 1471C327.479 1250.35 506.351 1071.48 727 1071.48C947.649 1071.48 1126.52 1250.35 1126.52 1471Z"/>
<path d="M1116.45 1471C1116.45 1686.09 942.087 1860.45 727 1860.45C511.913 1860.45 337.551 1686.09 337.551 1471C337.551 1255.91 511.913 1081.55 727 1081.55C942.087 1081.55 1116.45 1255.91 1116.45 1471Z"/>
<path d="M1106.38 1471C1106.38 1680.52 936.524 1850.38 727 1850.38C517.476 1850.38 347.623 1680.52 347.623 1471C347.623 1261.48 517.476 1091.62 727 1091.62C936.524 1091.62 1106.38 1261.48 1106.38 1471Z"/>
<path d="M1096.3 1471C1096.3 1674.96 930.961 1840.3 727 1840.3C523.039 1840.3 357.695 1674.96 357.695 1471C357.695 1267.04 523.039 1101.7 727 1101.7C930.961 1101.7 1096.3 1267.04 1096.3 1471Z"/>
<path d="M1086.23 1471C1086.23 1669.4 925.399 1830.23 727 1830.23C528.601 1830.23 367.767 1669.4 367.767 1471C367.767 1272.6 528.601 1111.77 727 1111.77C925.399 1111.77 1086.23 1272.6 1086.23 1471Z"/>
<path d="M1076.16 1471C1076.16 1663.84 919.836 1820.16 727 1820.16C534.164 1820.16 377.839 1663.84 377.839 1471C377.839 1278.16 534.164 1121.84 727 1121.84C919.836 1121.84 1076.16 1278.16 1076.16 1471Z"/>
<path d="M1066.09 1471C1066.09 1658.27 914.274 1810.09 727 1810.09C539.726 1810.09 387.911 1658.27 387.911 1471C387.911 1283.73 539.726 1131.91 727 1131.91C914.274 1131.91 1066.09 1283.73 1066.09 1471Z"/>
<path d="M1056.02 1471C1056.02 1652.71 908.711 1800.02 727 1800.02C545.289 1800.02 397.983 1652.71 397.983 1471C397.983 1289.29 545.289 1141.98 727 1141.98C908.711 1141.98 1056.02 1289.29 1056.02 1471Z"/>
<path d="M1045.95 1471C1045.95 1647.15 903.148 1789.95 727 1789.95C550.851 1789.95 408.055 1647.15 408.055 1471C408.055 1294.85 550.851 1152.05 727 1152.05C903.148 1152.05 1045.95 1294.85 1045.95 1471Z"/>
<path d="M1035.87 1471C1035.87 1641.59 897.586 1779.87 727 1779.87C556.414 1779.87 418.127 1641.59 418.127 1471C418.127 1300.41 556.414 1162.13 727 1162.13C897.586 1162.13 1035.87 1300.41 1035.87 1471Z"/>
<path d="M1025.8 1471C1025.8 1636.02 892.023 1769.8 727 1769.8C561.977 1769.8 428.199 1636.02 428.199 1471C428.199 1305.98 561.977 1172.2 727 1172.2C892.023 1172.2 1025.8 1305.98 1025.8 1471Z"/>
<path d="M1015.73 1471C1015.73 1630.46 886.461 1759.73 727 1759.73C567.539 1759.73 438.271 1630.46 438.271 1471C438.271 1311.54 567.539 1182.27 727 1182.27C886.461 1182.27 1015.73 1311.54 1015.73 1471Z"/>
<path d="M1005.66 1471C1005.66 1624.9 880.898 1749.66 727 1749.66C573.102 1749.66 448.343 1624.9 448.343 1471C448.343 1317.1 573.102 1192.34 727 1192.34C880.898 1192.34 1005.66 1317.1 1005.66 1471Z"/>
<path d="M995.585 1471C995.585 1619.34 875.336 1739.59 727 1739.59C578.664 1739.59 458.415 1619.34 458.415 1471C458.415 1322.66 578.664 1202.41 727 1202.41C875.336 1202.41 995.585 1322.66 995.585 1471Z"/>
<path d="M985.513 1471C985.513 1613.77 869.773 1729.51 727 1729.51C584.227 1729.51 468.487 1613.77 468.487 1471C468.487 1328.23 584.227 1212.49 727 1212.49C869.773 1212.49 985.513 1328.23 985.513 1471Z"/>
<path d="M975.441 1471C975.441 1608.21 864.21 1719.44 727 1719.44C589.79 1719.44 478.559 1608.21 478.559 1471C478.559 1333.79 589.79 1222.56 727 1222.56C864.21 1222.56 975.441 1333.79 975.441 1471Z"/>
<path d="M965.37 1471C965.37 1602.65 858.648 1709.37 727 1709.37C595.352 1709.37 488.63 1602.65 488.63 1471C488.63 1339.35 595.352 1232.63 727 1232.63C858.648 1232.63 965.37 1339.35 965.37 1471Z"/>
<path d="M955.298 1471C955.298 1597.09 853.085 1699.3 727 1699.3C600.915 1699.3 498.702 1597.09 498.702 1471C498.702 1344.91 600.915 1242.7 727 1242.7C853.085 1242.7 955.298 1344.91 955.298 1471Z"/>
<path d="M945.226 1471C945.226 1591.52 847.523 1689.23 727 1689.23C606.477 1689.23 508.774 1591.52 508.774 1471C508.774 1350.48 606.477 1252.77 727 1252.77C847.523 1252.77 945.226 1350.48 945.226 1471Z"/>
<path d="M935.154 1471C935.154 1585.96 841.96 1679.15 727 1679.15C612.04 1679.15 518.846 1585.96 518.846 1471C518.846 1356.04 612.04 1262.85 727 1262.85C841.96 1262.85 935.154 1356.04 935.154 1471Z"/>
<path d="M925.082 1471C925.082 1580.4 836.397 1669.08 727 1669.08C617.603 1669.08 528.918 1580.4 528.918 1471C528.918 1361.6 617.603 1272.92 727 1272.92C836.397 1272.92 925.082 1361.6 925.082 1471Z"/>
<path d="M915.01 1471C915.01 1574.83 830.835 1659.01 727 1659.01C623.165 1659.01 538.99 1574.83 538.99 1471C538.99 1367.17 623.165 1282.99 727 1282.99C830.835 1282.99 915.01 1367.17 915.01 1471Z"/>
<path d="M904.938 1471C904.938 1569.27 825.272 1648.94 727 1648.94C628.728 1648.94 549.062 1569.27 549.062 1471C549.062 1372.73 628.728 1293.06 727 1293.06C825.272 1293.06 904.938 1372.73 904.938 1471Z"/>
<path d="M894.866 1471C894.866 1563.71 819.71 1638.87 727 1638.87C634.29 1638.87 559.134 1563.71 559.134 1471C559.134 1378.29 634.29 1303.13 727 1303.13C819.71 1303.13 894.866 1378.29 894.866 1471Z"/>
<path d="M884.794 1471C884.794 1558.15 814.147 1628.79 727 1628.79C639.853 1628.79 569.206 1558.15 569.206 1471C569.206 1383.85 639.853 1313.21 727 1313.21C814.147 1313.21 884.794 1383.85 884.794 1471Z"/>
<path d="M871.365 1471C871.365 1550.73 806.73 1615.36 727 1615.36C647.27 1615.36 582.635 1550.73 582.635 1471C582.635 1391.27 647.27 1326.64 727 1326.64C806.73 1326.64 871.365 1391.27 871.365 1471Z"/>
<path d="M861.293 1471C861.293 1545.17 801.168 1605.29 727 1605.29C652.832 1605.29 592.707 1545.17 592.707 1471C592.707 1396.83 652.832 1336.71 727 1336.71C801.168 1336.71 861.293 1396.83 861.293 1471Z"/>
<path d="M851.221 1471C851.221 1539.61 795.605 1595.22 727 1595.22C658.395 1595.22 602.779 1539.61 602.779 1471C602.779 1402.39 658.395 1346.78 727 1346.78C795.605 1346.78 851.221 1402.39 851.221 1471Z"/>
<path d="M841.149 1471C841.149 1534.04 790.043 1585.15 727 1585.15C663.957 1585.15 612.851 1534.04 612.851 1471C612.851 1407.96 663.957 1356.85 727 1356.85C790.043 1356.85 841.149 1407.96 841.149 1471Z"/>
<path d="M831.077 1471C831.077 1528.48 784.48 1575.08 727 1575.08C669.52 1575.08 622.923 1528.48 622.923 1471C622.923 1413.52 669.52 1366.92 727 1366.92C784.48 1366.92 831.077 1413.52 831.077 1471Z"/>
<path d="M821.005 1471C821.005 1522.92 778.917 1565 727 1565C675.083 1565 632.995 1522.92 632.995 1471C632.995 1419.08 675.083 1377 727 1377C778.917 1377 821.005 1419.08 821.005 1471Z"/>
<path d="M810.933 1471C810.933 1517.35 773.355 1554.93 727 1554.93C680.645 1554.93 643.067 1517.35 643.067 1471C643.067 1424.65 680.645 1387.07 727 1387.07C773.355 1387.07 810.933 1424.65 810.933 1471Z"/>
<path d="M800.861 1471C800.861 1511.79 767.792 1544.86 727 1544.86C686.208 1544.86 653.139 1511.79 653.139 1471C653.139 1430.21 686.208 1397.14 727 1397.14C767.792 1397.14 800.861 1430.21 800.861 1471Z"/>
<path d="M790.789 1471C790.789 1506.23 762.23 1534.79 727 1534.79C691.77 1534.79 663.211 1506.23 663.211 1471C663.211 1435.77 691.77 1407.21 727 1407.21C762.23 1407.21 790.789 1435.77 790.789 1471Z"/>
<path d="M780.717 1471C780.717 1500.67 756.667 1524.72 727 1524.72C697.333 1524.72 673.283 1500.67 673.283 1471C673.283 1441.33 697.333 1417.28 727 1417.28C756.667 1417.28 780.717 1441.33 780.717 1471Z"/>
<path d="M770.645 1471C770.645 1495.1 751.105 1514.65 727 1514.65C702.895 1514.65 683.355 1495.1 683.355 1471C683.355 1446.9 702.895 1427.35 727 1427.35C751.105 1427.35 770.645 1446.9 770.645 1471Z"/>
<path d="M760.573 1471C760.573 1489.54 745.542 1504.57 727 1504.57C708.458 1504.57 693.427 1489.54 693.427 1471C693.427 1452.46 708.458 1437.43 727 1437.43C745.542 1437.43 760.573 1452.46 760.573 1471Z"/>
<path d="M750.501 1471C750.501 1483.98 739.979 1494.5 727 1494.5C714.021 1494.5 703.499 1483.98 703.499 1471C703.499 1458.02 714.021 1447.5 727 1447.5C739.979 1447.5 750.501 1458.02 750.501 1471Z"/>
<path d="M740.429 1471C740.429 1478.42 734.417 1484.43 727 1484.43C719.583 1484.43 713.571 1478.42 713.571 1471C713.571 1463.58 719.583 1457.57 727 1457.57C734.417 1457.57 740.429 1463.58 740.429 1471Z"/>
<path d="M730.357 1471C730.357 1472.85 728.854 1474.36 727 1474.36C725.146 1474.36 723.643 1472.85 723.643 1471C723.643 1469.15 725.146 1467.64 727 1467.64C728.854 1467.64 730.357 1469.15 730.357 1471Z"/>
</mask>
<path d="M1157 1471C1157 1708.48 964.482 1901 727 1901C489.518 1901 297 1708.48 297 1471C297 1233.52 489.518 1041 727 1041C964.482 1041 1157 1233.52 1157 1471Z" stroke="white" stroke-opacity="0.05" stroke-width="2" mask="url(#path-1-inside-1_1_422)"/>
<path d="M1146.66 1471C1146.66 1702.77 958.774 1890.66 727 1890.66C495.226 1890.66 307.335 1702.77 307.335 1471C307.335 1239.23 495.226 1051.34 727 1051.34C958.774 1051.34 1146.66 1239.23 1146.66 1471Z" stroke="white" stroke-opacity="0.05" stroke-width="2" mask="url(#path-1-inside-1_1_422)"/>
<path d="M1136.59 1471C1136.59 1697.21 953.212 1880.59 727 1880.59C500.788 1880.59 317.407 1697.21 317.407 1471C317.407 1244.79 500.788 1061.41 727 1061.41C953.212 1061.41 1136.59 1244.79 1136.59 1471Z" stroke="white" stroke-opacity="0.05" stroke-width="2" mask="url(#path-1-inside-1_1_422)"/>
<path d="M1126.52 1471C1126.52 1691.65 947.649 1870.52 727 1870.52C506.351 1870.52 327.479 1691.65 327.479 1471C327.479 1250.35 506.351 1071.48 727 1071.48C947.649 1071.48 1126.52 1250.35 1126.52 1471Z" stroke="white" stroke-opacity="0.05" stroke-width="2" mask="url(#path-1-inside-1_1_422)"/>
<path d="M1116.45 1471C1116.45 1686.09 942.087 1860.45 727 1860.45C511.913 1860.45 337.551 1686.09 337.551 1471C337.551 1255.91 511.913 1081.55 727 1081.55C942.087 1081.55 1116.45 1255.91 1116.45 1471Z" stroke="white" stroke-opacity="0.05" stroke-width="2" mask="url(#path-1-inside-1_1_422)"/>
<path d="M1106.38 1471C1106.38 1680.52 936.524 1850.38 727 1850.38C517.476 1850.38 347.623 1680.52 347.623 1471C347.623 1261.48 517.476 1091.62 727 1091.62C936.524 1091.62 1106.38 1261.48 1106.38 1471Z" stroke="white" stroke-opacity="0.05" stroke-width="2" mask="url(#path-1-inside-1_1_422)"/>
<path d="M1096.3 1471C1096.3 1674.96 930.961 1840.3 727 1840.3C523.039 1840.3 357.695 1674.96 357.695 1471C357.695 1267.04 523.039 1101.7 727 1101.7C930.961 1101.7 1096.3 1267.04 1096.3 1471Z" stroke="white" stroke-opacity="0.05" stroke-width="2" mask="url(#path-1-inside-1_1_422)"/>
<path d="M1086.23 1471C1086.23 1669.4 925.399 1830.23 727 1830.23C528.601 1830.23 367.767 1669.4 367.767 1471C367.767 1272.6 528.601 1111.77 727 1111.77C925.399 1111.77 1086.23 1272.6 1086.23 1471Z" stroke="white" stroke-opacity="0.05" stroke-width="2" mask="url(#path-1-inside-1_1_422)"/>
<path d="M1076.16 1471C1076.16 1663.84 919.836 1820.16 727 1820.16C534.164 1820.16 377.839 1663.84 377.839 1471C377.839 1278.16 534.164 1121.84 727 1121.84C919.836 1121.84 1076.16 1278.16 1076.16 1471Z" stroke="white" stroke-opacity="0.05" stroke-width="2" mask="url(#path-1-inside-1_1_422)"/>
<path d="M1066.09 1471C1066.09 1658.27 914.274 1810.09 727 1810.09C539.726 1810.09 387.911 1658.27 387.911 1471C387.911 1283.73 539.726 1131.91 727 1131.91C914.274 1131.91 1066.09 1283.73 1066.09 1471Z" stroke="white" stroke-opacity="0.05" stroke-width="2" mask="url(#path-1-inside-1_1_422)"/>
<path d="M1056.02 1471C1056.02 1652.71 908.711 1800.02 727 1800.02C545.289 1800.02 397.983 1652.71 397.983 1471C397.983 1289.29 545.289 1141.98 727 1141.98C908.711 1141.98 1056.02 1289.29 1056.02 1471Z" stroke="white" stroke-opacity="0.05" stroke-width="2" mask="url(#path-1-inside-1_1_422)"/>
<path d="M1045.95 1471C1045.95 1647.15 903.148 1789.95 727 1789.95C550.851 1789.95 408.055 1647.15 408.055 1471C408.055 1294.85 550.851 1152.05 727 1152.05C903.148 1152.05 1045.95 1294.85 1045.95 1471Z" stroke="white" stroke-opacity="0.05" stroke-width="2" mask="url(#path-1-inside-1_1_422)"/>
<path d="M1035.87 1471C1035.87 1641.59 897.586 1779.87 727 1779.87C556.414 1779.87 418.127 1641.59 418.127 1471C418.127 1300.41 556.414 1162.13 727 1162.13C897.586 1162.13 1035.87 1300.41 1035.87 1471Z" stroke="white" stroke-opacity="0.05" stroke-width="2" mask="url(#path-1-inside-1_1_422)"/>
<path d="M1025.8 1471C1025.8 1636.02 892.023 1769.8 727 1769.8C561.977 1769.8 428.199 1636.02 428.199 1471C428.199 1305.98 561.977 1172.2 727 1172.2C892.023 1172.2 1025.8 1305.98 1025.8 1471Z" stroke="white" stroke-opacity="0.05" stroke-width="2" mask="url(#path-1-inside-1_1_422)"/>
<path d="M1015.73 1471C1015.73 1630.46 886.461 1759.73 727 1759.73C567.539 1759.73 438.271 1630.46 438.271 1471C438.271 1311.54 567.539 1182.27 727 1182.27C886.461 1182.27 1015.73 1311.54 1015.73 1471Z" stroke="white" stroke-opacity="0.05" stroke-width="2" mask="url(#path-1-inside-1_1_422)"/>
<path d="M1005.66 1471C1005.66 1624.9 880.898 1749.66 727 1749.66C573.102 1749.66 448.343 1624.9 448.343 1471C448.343 1317.1 573.102 1192.34 727 1192.34C880.898 1192.34 1005.66 1317.1 1005.66 1471Z" stroke="white" stroke-opacity="0.05" stroke-width="2" mask="url(#path-1-inside-1_1_422)"/>
<path d="M995.585 1471C995.585 1619.34 875.336 1739.59 727 1739.59C578.664 1739.59 458.415 1619.34 458.415 1471C458.415 1322.66 578.664 1202.41 727 1202.41C875.336 1202.41 995.585 1322.66 995.585 1471Z" stroke="white" stroke-opacity="0.05" stroke-width="2" mask="url(#path-1-inside-1_1_422)"/>
<path d="M985.513 1471C985.513 1613.77 869.773 1729.51 727 1729.51C584.227 1729.51 468.487 1613.77 468.487 1471C468.487 1328.23 584.227 1212.49 727 1212.49C869.773 1212.49 985.513 1328.23 985.513 1471Z" stroke="white" stroke-opacity="0.05" stroke-width="2" mask="url(#path-1-inside-1_1_422)"/>
<path d="M975.441 1471C975.441 1608.21 864.21 1719.44 727 1719.44C589.79 1719.44 478.559 1608.21 478.559 1471C478.559 1333.79 589.79 1222.56 727 1222.56C864.21 1222.56 975.441 1333.79 975.441 1471Z" stroke="white" stroke-opacity="0.05" stroke-width="2" mask="url(#path-1-inside-1_1_422)"/>
<path d="M965.37 1471C965.37 1602.65 858.648 1709.37 727 1709.37C595.352 1709.37 488.63 1602.65 488.63 1471C488.63 1339.35 595.352 1232.63 727 1232.63C858.648 1232.63 965.37 1339.35 965.37 1471Z" stroke="white" stroke-opacity="0.05" stroke-width="2" mask="url(#path-1-inside-1_1_422)"/>
<path d="M955.298 1471C955.298 1597.09 853.085 1699.3 727 1699.3C600.915 1699.3 498.702 1597.09 498.702 1471C498.702 1344.91 600.915 1242.7 727 1242.7C853.085 1242.7 955.298 1344.91 955.298 1471Z" stroke="white" stroke-opacity="0.05" stroke-width="2" mask="url(#path-1-inside-1_1_422)"/>
<path d="M945.226 1471C945.226 1591.52 847.523 1689.23 727 1689.23C606.477 1689.23 508.774 1591.52 508.774 1471C508.774 1350.48 606.477 1252.77 727 1252.77C847.523 1252.77 945.226 1350.48 945.226 1471Z" stroke="white" stroke-opacity="0.05" stroke-width="2" mask="url(#path-1-inside-1_1_422)"/>
<path d="M935.154 1471C935.154 1585.96 841.96 1679.15 727 1679.15C612.04 1679.15 518.846 1585.96 518.846 1471C518.846 1356.04 612.04 1262.85 727 1262.85C841.96 1262.85 935.154 1356.04 935.154 1471Z" stroke="white" stroke-opacity="0.05" stroke-width="2" mask="url(#path-1-inside-1_1_422)"/>
<path d="M925.082 1471C925.082 1580.4 836.397 1669.08 727 1669.08C617.603 1669.08 528.918 1580.4 528.918 1471C528.918 1361.6 617.603 1272.92 727 1272.92C836.397 1272.92 925.082 1361.6 925.082 1471Z" stroke="white" stroke-opacity="0.05" stroke-width="2" mask="url(#path-1-inside-1_1_422)"/>
<path d="M915.01 1471C915.01 1574.83 830.835 1659.01 727 1659.01C623.165 1659.01 538.99 1574.83 538.99 1471C538.99 1367.17 623.165 1282.99 727 1282.99C830.835 1282.99 915.01 1367.17 915.01 1471Z" stroke="white" stroke-opacity="0.05" stroke-width="2" mask="url(#path-1-inside-1_1_422)"/>
<path d="M904.938 1471C904.938 1569.27 825.272 1648.94 727 1648.94C628.728 1648.94 549.062 1569.27 549.062 1471C549.062 1372.73 628.728 1293.06 727 1293.06C825.272 1293.06 904.938 1372.73 904.938 1471Z" stroke="white" stroke-opacity="0.05" stroke-width="2" mask="url(#path-1-inside-1_1_422)"/>
<path d="M894.866 1471C894.866 1563.71 819.71 1638.87 727 1638.87C634.29 1638.87 559.134 1563.71 559.134 1471C559.134 1378.29 634.29 1303.13 727 1303.13C819.71 1303.13 894.866 1378.29 894.866 1471Z" stroke="white" stroke-opacity="0.05" stroke-width="2" mask="url(#path-1-inside-1_1_422)"/>
<path d="M884.794 1471C884.794 1558.15 814.147 1628.79 727 1628.79C639.853 1628.79 569.206 1558.15 569.206 1471C569.206 1383.85 639.853 1313.21 727 1313.21C814.147 1313.21 884.794 1383.85 884.794 1471Z" stroke="white" stroke-opacity="0.05" stroke-width="2" mask="url(#path-1-inside-1_1_422)"/>
<path d="M871.365 1471C871.365 1550.73 806.73 1615.36 727 1615.36C647.27 1615.36 582.635 1550.73 582.635 1471C582.635 1391.27 647.27 1326.64 727 1326.64C806.73 1326.64 871.365 1391.27 871.365 1471Z" stroke="white" stroke-opacity="0.05" stroke-width="2" mask="url(#path-1-inside-1_1_422)"/>
<path d="M861.293 1471C861.293 1545.17 801.168 1605.29 727 1605.29C652.832 1605.29 592.707 1545.17 592.707 1471C592.707 1396.83 652.832 1336.71 727 1336.71C801.168 1336.71 861.293 1396.83 861.293 1471Z" stroke="white" stroke-opacity="0.05" stroke-width="2" mask="url(#path-1-inside-1_1_422)"/>
<path d="M851.221 1471C851.221 1539.61 795.605 1595.22 727 1595.22C658.395 1595.22 602.779 1539.61 602.779 1471C602.779 1402.39 658.395 1346.78 727 1346.78C795.605 1346.78 851.221 1402.39 851.221 1471Z" stroke="white" stroke-opacity="0.05" stroke-width="2" mask="url(#path-1-inside-1_1_422)"/>
<path d="M841.149 1471C841.149 1534.04 790.043 1585.15 727 1585.15C663.957 1585.15 612.851 1534.04 612.851 1471C612.851 1407.96 663.957 1356.85 727 1356.85C790.043 1356.85 841.149 1407.96 841.149 1471Z" stroke="white" stroke-opacity="0.05" stroke-width="2" mask="url(#path-1-inside-1_1_422)"/>
<path d="M831.077 1471C831.077 1528.48 784.48 1575.08 727 1575.08C669.52 1575.08 622.923 1528.48 622.923 1471C622.923 1413.52 669.52 1366.92 727 1366.92C784.48 1366.92 831.077 1413.52 831.077 1471Z" stroke="white" stroke-opacity="0.05" stroke-width="2" mask="url(#path-1-inside-1_1_422)"/>
<path d="M821.005 1471C821.005 1522.92 778.917 1565 727 1565C675.083 1565 632.995 1522.92 632.995 1471C632.995 1419.08 675.083 1377 727 1377C778.917 1377 821.005 1419.08 821.005 1471Z" stroke="white" stroke-opacity="0.05" stroke-width="2" mask="url(#path-1-inside-1_1_422)"/>
<path d="M810.933 1471C810.933 1517.35 773.355 1554.93 727 1554.93C680.645 1554.93 643.067 1517.35 643.067 1471C643.067 1424.65 680.645 1387.07 727 1387.07C773.355 1387.07 810.933 1424.65 810.933 1471Z" stroke="white" stroke-opacity="0.05" stroke-width="2" mask="url(#path-1-inside-1_1_422)"/>
<path d="M800.861 1471C800.861 1511.79 767.792 1544.86 727 1544.86C686.208 1544.86 653.139 1511.79 653.139 1471C653.139 1430.21 686.208 1397.14 727 1397.14C767.792 1397.14 800.861 1430.21 800.861 1471Z" stroke="white" stroke-opacity="0.05" stroke-width="2" mask="url(#path-1-inside-1_1_422)"/>
<path d="M790.789 1471C790.789 1506.23 762.23 1534.79 727 1534.79C691.77 1534.79 663.211 1506.23 663.211 1471C663.211 1435.77 691.77 1407.21 727 1407.21C762.23 1407.21 790.789 1435.77 790.789 1471Z" stroke="white" stroke-opacity="0.05" stroke-width="2" mask="url(#path-1-inside-1_1_422)"/>
<path d="M780.717 1471C780.717 1500.67 756.667 1524.72 727 1524.72C697.333 1524.72 673.283 1500.67 673.283 1471C673.283 1441.33 697.333 1417.28 727 1417.28C756.667 1417.28 780.717 1441.33 780.717 1471Z" stroke="white" stroke-opacity="0.05" stroke-width="2" mask="url(#path-1-inside-1_1_422)"/>
<path d="M770.645 1471C770.645 1495.1 751.105 1514.65 727 1514.65C702.895 1514.65 683.355 1495.1 683.355 1471C683.355 1446.9 702.895 1427.35 727 1427.35C751.105 1427.35 770.645 1446.9 770.645 1471Z" stroke="white" stroke-opacity="0.05" stroke-width="2" mask="url(#path-1-inside-1_1_422)"/>
<path d="M760.573 1471C760.573 1489.54 745.542 1504.57 727 1504.57C708.458 1504.57 693.427 1489.54 693.427 1471C693.427 1452.46 708.458 1437.43 727 1437.43C745.542 1437.43 760.573 1452.46 760.573 1471Z" stroke="white" stroke-opacity="0.05" stroke-width="2" mask="url(#path-1-inside-1_1_422)"/>
<path d="M750.501 1471C750.501 1483.98 739.979 1494.5 727 1494.5C714.021 1494.5 703.499 1483.98 703.499 1471C703.499 1458.02 714.021 1447.5 727 1447.5C739.979 1447.5 750.501 1458.02 750.501 1471Z" stroke="white" stroke-opacity="0.05" stroke-width="2" mask="url(#path-1-inside-1_1_422)"/>
<path d="M740.429 1471C740.429 1478.42 734.417 1484.43 727 1484.43C719.583 1484.43 713.571 1478.42 713.571 1471C713.571 1463.58 719.583 1457.57 727 1457.57C734.417 1457.57 740.429 1463.58 740.429 1471Z" stroke="white" stroke-opacity="0.05" stroke-width="2" mask="url(#path-1-inside-1_1_422)"/>
<path d="M730.357 1471C730.357 1472.85 728.854 1474.36 727 1474.36C725.146 1474.36 723.643 1472.85 723.643 1471C723.643 1469.15 725.146 1467.64 727 1467.64C728.854 1467.64 730.357 1469.15 730.357 1471Z" stroke="white" stroke-opacity="0.05" stroke-width="2" mask="url(#path-1-inside-1_1_422)"/>
<g opacity="0.05">
<mask id="path-2-inside-2_1_422" fill="white">
<path d="M3264.06 2933.03C3264.06 3401.38 2884.38 3781.06 2416.03 3781.06C1947.67 3781.06 1568 3401.38 1568 2933.03C1568 2464.67 1947.67 2085 2416.03 2085C2884.38 2085 3264.06 2464.67 3264.06 2933.03Z"/>
<path d="M3243.67 2933.03C3243.67 3390.12 2873.12 3760.67 2416.03 3760.67C1958.93 3760.67 1588.38 3390.12 1588.38 2933.03C1588.38 2475.93 1958.93 2105.38 2416.03 2105.38C2873.12 2105.38 3243.67 2475.93 3243.67 2933.03Z"/>
<path d="M3223.81 2933.03C3223.81 3379.15 2862.15 3740.81 2416.03 3740.81C1969.9 3740.81 1608.25 3379.15 1608.25 2933.03C1608.25 2486.9 1969.9 2125.25 2416.03 2125.25C2862.15 2125.25 3223.81 2486.9 3223.81 2933.03Z"/>
<path d="M3203.95 2933.03C3203.95 3368.18 2851.18 3720.95 2416.03 3720.95C1980.87 3720.95 1628.11 3368.18 1628.11 2933.03C1628.11 2497.87 1980.87 2145.11 2416.03 2145.11C2851.18 2145.11 3203.95 2497.87 3203.95 2933.03Z"/>
<path d="M3184.08 2933.03C3184.08 3357.21 2840.21 3701.08 2416.03 3701.08C1991.84 3701.08 1647.97 3357.21 1647.97 2933.03C1647.97 2508.84 1991.84 2164.97 2416.03 2164.97C2840.21 2164.97 3184.08 2508.84 3184.08 2933.03Z"/>
<path d="M3164.22 2933.03C3164.22 3346.24 2829.24 3681.22 2416.03 3681.22C2002.81 3681.22 1667.84 3346.24 1667.84 2933.03C1667.84 2519.81 2002.81 2184.84 2416.03 2184.84C2829.24 2184.84 3164.22 2519.81 3164.22 2933.03Z"/>
<path d="M3144.35 2933.03C3144.35 3335.27 2818.27 3661.35 2416.03 3661.35C2013.78 3661.35 1687.7 3335.27 1687.7 2933.03C1687.7 2530.78 2013.78 2204.7 2416.03 2204.7C2818.27 2204.7 3144.35 2530.78 3144.35 2933.03Z"/>
<path d="M3124.49 2933.03C3124.49 3324.3 2807.3 3641.49 2416.03 3641.49C2024.75 3641.49 1707.56 3324.3 1707.56 2933.03C1707.56 2541.75 2024.75 2224.56 2416.03 2224.56C2807.3 2224.56 3124.49 2541.75 3124.49 2933.03Z"/>
<path d="M3104.63 2933.03C3104.63 3313.33 2796.33 3621.63 2416.03 3621.63C2035.72 3621.63 1727.43 3313.33 1727.43 2933.03C1727.43 2552.72 2035.72 2244.43 2416.03 2244.43C2796.33 2244.43 3104.63 2552.72 3104.63 2933.03Z"/>
<path d="M3084.76 2933.03C3084.76 3302.36 2785.36 3601.76 2416.03 3601.76C2046.69 3601.76 1747.29 3302.36 1747.29 2933.03C1747.29 2563.69 2046.69 2264.29 2416.03 2264.29C2785.36 2264.29 3084.76 2563.69 3084.76 2933.03Z"/>
<path d="M3064.9 2933.03C3064.9 3291.39 2774.39 3581.9 2416.03 3581.9C2057.66 3581.9 1767.15 3291.39 1767.15 2933.03C1767.15 2574.66 2057.66 2284.15 2416.03 2284.15C2774.39 2284.15 3064.9 2574.66 3064.9 2933.03Z"/>
<path d="M3045.04 2933.03C3045.04 3280.42 2763.42 3562.04 2416.03 3562.04C2068.64 3562.04 1787.02 3280.42 1787.02 2933.03C1787.02 2585.64 2068.64 2304.02 2416.03 2304.02C2763.42 2304.02 3045.04 2585.64 3045.04 2933.03Z"/>
<path d="M3025.17 2933.03C3025.17 3269.45 2752.45 3542.17 2416.03 3542.17C2079.61 3542.17 1806.88 3269.45 1806.88 2933.03C1806.88 2596.61 2079.61 2323.88 2416.03 2323.88C2752.45 2323.88 3025.17 2596.61 3025.17 2933.03Z"/>
<path d="M3005.31 2933.03C3005.31 3258.48 2741.48 3522.31 2416.03 3522.31C2090.58 3522.31 1826.74 3258.48 1826.74 2933.03C1826.74 2607.58 2090.58 2343.74 2416.03 2343.74C2741.48 2343.74 3005.31 2607.58 3005.31 2933.03Z"/>
<path d="M2985.45 2933.03C2985.45 3247.51 2730.51 3502.45 2416.03 3502.45C2101.55 3502.45 1846.61 3247.51 1846.61 2933.03C1846.61 2618.55 2101.55 2363.61 2416.03 2363.61C2730.51 2363.61 2985.45 2618.55 2985.45 2933.03Z"/>
<path d="M2965.58 2933.03C2965.58 3236.54 2719.54 3482.58 2416.03 3482.58C2112.52 3482.58 1866.47 3236.54 1866.47 2933.03C1866.47 2629.52 2112.52 2383.47 2416.03 2383.47C2719.54 2383.47 2965.58 2629.52 2965.58 2933.03Z"/>
<path d="M2945.72 2933.03C2945.72 3225.57 2708.57 3462.72 2416.03 3462.72C2123.49 3462.72 1886.34 3225.57 1886.34 2933.03C1886.34 2640.49 2123.49 2403.34 2416.03 2403.34C2708.57 2403.34 2945.72 2640.49 2945.72 2933.03Z"/>
<path d="M2925.86 2933.03C2925.86 3214.6 2697.6 3442.86 2416.03 3442.86C2134.46 3442.86 1906.2 3214.6 1906.2 2933.03C1906.2 2651.46 2134.46 2423.2 2416.03 2423.2C2697.6 2423.2 2925.86 2651.46 2925.86 2933.03Z"/>
<path d="M2905.99 2933.03C2905.99 3203.63 2686.63 3422.99 2416.03 3422.99C2145.43 3422.99 1926.06 3203.63 1926.06 2933.03C1926.06 2662.43 2145.43 2443.06 2416.03 2443.06C2686.63 2443.06 2905.99 2662.43 2905.99 2933.03Z"/>
<path d="M2886.13 2933.03C2886.13 3192.66 2675.66 3403.13 2416.03 3403.13C2156.4 3403.13 1945.93 3192.66 1945.93 2933.03C1945.93 2673.4 2156.4 2462.93 2416.03 2462.93C2675.66 2462.93 2886.13 2673.4 2886.13 2933.03Z"/>
<path d="M2866.27 2933.03C2866.27 3181.69 2664.69 3383.27 2416.03 3383.27C2167.37 3383.27 1965.79 3181.69 1965.79 2933.03C1965.79 2684.37 2167.37 2482.79 2416.03 2482.79C2664.69 2482.79 2866.27 2684.37 2866.27 2933.03Z"/>
<path d="M2846.4 2933.03C2846.4 3170.72 2653.72 3363.4 2416.03 3363.4C2178.34 3363.4 1985.65 3170.72 1985.65 2933.03C1985.65 2695.34 2178.34 2502.65 2416.03 2502.65C2653.72 2502.65 2846.4 2695.34 2846.4 2933.03Z"/>
<path d="M2826.54 2933.03C2826.54 3159.75 2642.75 3343.54 2416.03 3343.54C2189.31 3343.54 2005.52 3159.75 2005.52 2933.03C2005.52 2706.31 2189.31 2522.52 2416.03 2522.52C2642.75 2522.52 2826.54 2706.31 2826.54 2933.03Z"/>
<path d="M2806.68 2933.03C2806.68 3148.78 2631.78 3323.68 2416.03 3323.68C2200.28 3323.68 2025.38 3148.78 2025.38 2933.03C2025.38 2717.28 2200.28 2542.38 2416.03 2542.38C2631.78 2542.38 2806.68 2717.28 2806.68 2933.03Z"/>
<path d="M2786.81 2933.03C2786.81 3137.81 2620.81 3303.81 2416.03 3303.81C2211.25 3303.81 2045.24 3137.81 2045.24 2933.03C2045.24 2728.25 2211.25 2562.24 2416.03 2562.24C2620.81 2562.24 2786.81 2728.25 2786.81 2933.03Z"/>
<path d="M2766.95 2933.03C2766.95 3126.84 2609.84 3283.95 2416.03 3283.95C2222.22 3283.95 2065.11 3126.84 2065.11 2933.03C2065.11 2739.22 2222.22 2582.11 2416.03 2582.11C2609.84 2582.11 2766.95 2739.22 2766.95 2933.03Z"/>
<path d="M2747.09 2933.03C2747.09 3115.87 2598.87 3264.09 2416.03 3264.09C2233.19 3264.09 2084.97 3115.87 2084.97 2933.03C2084.97 2750.19 2233.19 2601.97 2416.03 2601.97C2598.87 2601.97 2747.09 2750.19 2747.09 2933.03Z"/>
<path d="M2727.22 2933.03C2727.22 3104.9 2587.9 3244.22 2416.03 3244.22C2244.16 3244.22 2104.83 3104.9 2104.83 2933.03C2104.83 2761.16 2244.16 2621.83 2416.03 2621.83C2587.9 2621.83 2727.22 2761.16 2727.22 2933.03Z"/>
<path d="M2700.74 2933.03C2700.74 3090.27 2573.27 3217.74 2416.03 3217.74C2258.79 3217.74 2131.32 3090.27 2131.32 2933.03C2131.32 2775.79 2258.79 2648.32 2416.03 2648.32C2573.27 2648.32 2700.74 2775.79 2700.74 2933.03Z"/>
<path d="M2680.87 2933.03C2680.87 3079.3 2562.3 3197.87 2416.03 3197.87C2269.76 3197.87 2151.18 3079.3 2151.18 2933.03C2151.18 2786.76 2269.76 2668.18 2416.03 2668.18C2562.3 2668.18 2680.87 2786.76 2680.87 2933.03Z"/>
<path d="M2661.01 2933.03C2661.01 3068.33 2551.33 3178.01 2416.03 3178.01C2280.73 3178.01 2171.04 3068.33 2171.04 2933.03C2171.04 2797.73 2280.73 2688.04 2416.03 2688.04C2551.33 2688.04 2661.01 2797.73 2661.01 2933.03Z"/>
<path d="M2641.15 2933.03C2641.15 3057.36 2540.36 3158.15 2416.03 3158.15C2291.7 3158.15 2190.91 3057.36 2190.91 2933.03C2190.91 2808.7 2291.7 2707.91 2416.03 2707.91C2540.36 2707.91 2641.15 2808.7 2641.15 2933.03Z"/>
<path d="M2621.28 2933.03C2621.28 3046.39 2529.39 3138.28 2416.03 3138.28C2302.67 3138.28 2210.77 3046.39 2210.77 2933.03C2210.77 2819.67 2302.67 2727.77 2416.03 2727.77C2529.39 2727.77 2621.28 2819.67 2621.28 2933.03Z"/>
<path d="M2601.42 2933.03C2601.42 3035.42 2518.42 3118.42 2416.03 3118.42C2313.64 3118.42 2230.64 3035.42 2230.64 2933.03C2230.64 2830.64 2313.64 2747.64 2416.03 2747.64C2518.42 2747.64 2601.42 2830.64 2601.42 2933.03Z"/>
<path d="M2581.56 2933.03C2581.56 3024.45 2507.45 3098.56 2416.03 3098.56C2324.61 3098.56 2250.5 3024.45 2250.5 2933.03C2250.5 2841.61 2324.61 2767.5 2416.03 2767.5C2507.45 2767.5 2581.56 2841.61 2581.56 2933.03Z"/>
<path d="M2561.69 2933.03C2561.69 3013.48 2496.48 3078.69 2416.03 3078.69C2335.58 3078.69 2270.36 3013.48 2270.36 2933.03C2270.36 2852.58 2335.58 2787.36 2416.03 2787.36C2496.48 2787.36 2561.69 2852.58 2561.69 2933.03Z"/>
<path d="M2541.83 2933.03C2541.83 3002.51 2485.51 3058.83 2416.03 3058.83C2346.55 3058.83 2290.23 3002.51 2290.23 2933.03C2290.23 2863.55 2346.55 2807.23 2416.03 2807.23C2485.51 2807.23 2541.83 2863.55 2541.83 2933.03Z"/>
<path d="M2521.97 2933.03C2521.97 2991.54 2474.54 3038.97 2416.03 3038.97C2357.52 3038.97 2310.09 2991.54 2310.09 2933.03C2310.09 2874.52 2357.52 2827.09 2416.03 2827.09C2474.54 2827.09 2521.97 2874.52 2521.97 2933.03Z"/>
<path d="M2502.1 2933.03C2502.1 2980.57 2463.57 3019.1 2416.03 3019.1C2368.49 3019.1 2329.95 2980.57 2329.95 2933.03C2329.95 2885.49 2368.49 2846.95 2416.03 2846.95C2463.57 2846.95 2502.1 2885.49 2502.1 2933.03Z"/>
<path d="M2482.24 2933.03C2482.24 2969.6 2452.6 2999.24 2416.03 2999.24C2379.46 2999.24 2349.82 2969.6 2349.82 2933.03C2349.82 2896.46 2379.46 2866.82 2416.03 2866.82C2452.6 2866.82 2482.24 2896.46 2482.24 2933.03Z"/>
<path d="M2462.38 2933.03C2462.38 2958.62 2441.62 2979.38 2416.03 2979.38C2390.43 2979.38 2369.68 2958.62 2369.68 2933.03C2369.68 2907.43 2390.43 2886.68 2416.03 2886.68C2441.62 2886.68 2462.38 2907.43 2462.38 2933.03Z"/>
<path d="M2442.51 2933.03C2442.51 2947.65 2430.65 2959.51 2416.03 2959.51C2401.4 2959.51 2389.54 2947.65 2389.54 2933.03C2389.54 2918.4 2401.4 2906.54 2416.03 2906.54C2430.65 2906.54 2442.51 2918.4 2442.51 2933.03Z"/>
<path d="M2422.65 2933.03C2422.65 2936.68 2419.68 2939.65 2416.03 2939.65C2412.37 2939.65 2409.41 2936.68 2409.41 2933.03C2409.41 2929.37 2412.37 2926.41 2416.03 2926.41C2419.68 2926.41 2422.65 2929.37 2422.65 2933.03Z"/>
</mask>
<path d="M3264.06 2933.03C3264.06 3401.38 2884.38 3781.06 2416.03 3781.06C1947.67 3781.06 1568 3401.38 1568 2933.03C1568 2464.67 1947.67 2085 2416.03 2085C2884.38 2085 3264.06 2464.67 3264.06 2933.03Z" stroke="white" stroke-opacity="0.05" stroke-width="2" mask="url(#path-2-inside-2_1_422)"/>
<path d="M3243.67 2933.03C3243.67 3390.12 2873.12 3760.67 2416.03 3760.67C1958.93 3760.67 1588.38 3390.12 1588.38 2933.03C1588.38 2475.93 1958.93 2105.38 2416.03 2105.38C2873.12 2105.38 3243.67 2475.93 3243.67 2933.03Z" stroke="white" stroke-opacity="0.05" stroke-width="2" mask="url(#path-2-inside-2_1_422)"/>
<path d="M3223.81 2933.03C3223.81 3379.15 2862.15 3740.81 2416.03 3740.81C1969.9 3740.81 1608.25 3379.15 1608.25 2933.03C1608.25 2486.9 1969.9 2125.25 2416.03 2125.25C2862.15 2125.25 3223.81 2486.9 3223.81 2933.03Z" stroke="white" stroke-opacity="0.05" stroke-width="2" mask="url(#path-2-inside-2_1_422)"/>
<path d="M3203.95 2933.03C3203.95 3368.18 2851.18 3720.95 2416.03 3720.95C1980.87 3720.95 1628.11 3368.18 1628.11 2933.03C1628.11 2497.87 1980.87 2145.11 2416.03 2145.11C2851.18 2145.11 3203.95 2497.87 3203.95 2933.03Z" stroke="white" stroke-opacity="0.05" stroke-width="2" mask="url(#path-2-inside-2_1_422)"/>
<path d="M3184.08 2933.03C3184.08 3357.21 2840.21 3701.08 2416.03 3701.08C1991.84 3701.08 1647.97 3357.21 1647.97 2933.03C1647.97 2508.84 1991.84 2164.97 2416.03 2164.97C2840.21 2164.97 3184.08 2508.84 3184.08 2933.03Z" stroke="white" stroke-opacity="0.05" stroke-width="2" mask="url(#path-2-inside-2_1_422)"/>
<path d="M3164.22 2933.03C3164.22 3346.24 2829.24 3681.22 2416.03 3681.22C2002.81 3681.22 1667.84 3346.24 1667.84 2933.03C1667.84 2519.81 2002.81 2184.84 2416.03 2184.84C2829.24 2184.84 3164.22 2519.81 3164.22 2933.03Z" stroke="white" stroke-opacity="0.05" stroke-width="2" mask="url(#path-2-inside-2_1_422)"/>
<path d="M3144.35 2933.03C3144.35 3335.27 2818.27 3661.35 2416.03 3661.35C2013.78 3661.35 1687.7 3335.27 1687.7 2933.03C1687.7 2530.78 2013.78 2204.7 2416.03 2204.7C2818.27 2204.7 3144.35 2530.78 3144.35 2933.03Z" stroke="white" stroke-opacity="0.05" stroke-width="2" mask="url(#path-2-inside-2_1_422)"/>
<path d="M3124.49 2933.03C3124.49 3324.3 2807.3 3641.49 2416.03 3641.49C2024.75 3641.49 1707.56 3324.3 1707.56 2933.03C1707.56 2541.75 2024.75 2224.56 2416.03 2224.56C2807.3 2224.56 3124.49 2541.75 3124.49 2933.03Z" stroke="white" stroke-opacity="0.05" stroke-width="2" mask="url(#path-2-inside-2_1_422)"/>
<path d="M3104.63 2933.03C3104.63 3313.33 2796.33 3621.63 2416.03 3621.63C2035.72 3621.63 1727.43 3313.33 1727.43 2933.03C1727.43 2552.72 2035.72 2244.43 2416.03 2244.43C2796.33 2244.43 3104.63 2552.72 3104.63 2933.03Z" stroke="white" stroke-opacity="0.05" stroke-width="2" mask="url(#path-2-inside-2_1_422)"/>
<path d="M3084.76 2933.03C3084.76 3302.36 2785.36 3601.76 2416.03 3601.76C2046.69 3601.76 1747.29 3302.36 1747.29 2933.03C1747.29 2563.69 2046.69 2264.29 2416.03 2264.29C2785.36 2264.29 3084.76 2563.69 3084.76 2933.03Z" stroke="white" stroke-opacity="0.05" stroke-width="2" mask="url(#path-2-inside-2_1_422)"/>
<path d="M3064.9 2933.03C3064.9 3291.39 2774.39 3581.9 2416.03 3581.9C2057.66 3581.9 1767.15 3291.39 1767.15 2933.03C1767.15 2574.66 2057.66 2284.15 2416.03 2284.15C2774.39 2284.15 3064.9 2574.66 3064.9 2933.03Z" stroke="white" stroke-opacity="0.05" stroke-width="2" mask="url(#path-2-inside-2_1_422)"/>
<path d="M3045.04 2933.03C3045.04 3280.42 2763.42 3562.04 2416.03 3562.04C2068.64 3562.04 1787.02 3280.42 1787.02 2933.03C1787.02 2585.64 2068.64 2304.02 2416.03 2304.02C2763.42 2304.02 3045.04 2585.64 3045.04 2933.03Z" stroke="white" stroke-opacity="0.05" stroke-width="2" mask="url(#path-2-inside-2_1_422)"/>
<path d="M3025.17 2933.03C3025.17 3269.45 2752.45 3542.17 2416.03 3542.17C2079.61 3542.17 1806.88 3269.45 1806.88 2933.03C1806.88 2596.61 2079.61 2323.88 2416.03 2323.88C2752.45 2323.88 3025.17 2596.61 3025.17 2933.03Z" stroke="white" stroke-opacity="0.05" stroke-width="2" mask="url(#path-2-inside-2_1_422)"/>
<path d="M3005.31 2933.03C3005.31 3258.48 2741.48 3522.31 2416.03 3522.31C2090.58 3522.31 1826.74 3258.48 1826.74 2933.03C1826.74 2607.58 2090.58 2343.74 2416.03 2343.74C2741.48 2343.74 3005.31 2607.58 3005.31 2933.03Z" stroke="white" stroke-opacity="0.05" stroke-width="2" mask="url(#path-2-inside-2_1_422)"/>
<path d="M2985.45 2933.03C2985.45 3247.51 2730.51 3502.45 2416.03 3502.45C2101.55 3502.45 1846.61 3247.51 1846.61 2933.03C1846.61 2618.55 2101.55 2363.61 2416.03 2363.61C2730.51 2363.61 2985.45 2618.55 2985.45 2933.03Z" stroke="white" stroke-opacity="0.05" stroke-width="2" mask="url(#path-2-inside-2_1_422)"/>
<path d="M2965.58 2933.03C2965.58 3236.54 2719.54 3482.58 2416.03 3482.58C2112.52 3482.58 1866.47 3236.54 1866.47 2933.03C1866.47 2629.52 2112.52 2383.47 2416.03 2383.47C2719.54 2383.47 2965.58 2629.52 2965.58 2933.03Z" stroke="white" stroke-opacity="0.05" stroke-width="2" mask="url(#path-2-inside-2_1_422)"/>
<path d="M2945.72 2933.03C2945.72 3225.57 2708.57 3462.72 2416.03 3462.72C2123.49 3462.72 1886.34 3225.57 1886.34 2933.03C1886.34 2640.49 2123.49 2403.34 2416.03 2403.34C2708.57 2403.34 2945.72 2640.49 2945.72 2933.03Z" stroke="white" stroke-opacity="0.05" stroke-width="2" mask="url(#path-2-inside-2_1_422)"/>
<path d="M2925.86 2933.03C2925.86 3214.6 2697.6 3442.86 2416.03 3442.86C2134.46 3442.86 1906.2 3214.6 1906.2 2933.03C1906.2 2651.46 2134.46 2423.2 2416.03 2423.2C2697.6 2423.2 2925.86 2651.46 2925.86 2933.03Z" stroke="white" stroke-opacity="0.05" stroke-width="2" mask="url(#path-2-inside-2_1_422)"/>
<path d="M2905.99 2933.03C2905.99 3203.63 2686.63 3422.99 2416.03 3422.99C2145.43 3422.99 1926.06 3203.63 1926.06 2933.03C1926.06 2662.43 2145.43 2443.06 2416.03 2443.06C2686.63 2443.06 2905.99 2662.43 2905.99 2933.03Z" stroke="white" stroke-opacity="0.05" stroke-width="2" mask="url(#path-2-inside-2_1_422)"/>
<path d="M2886.13 2933.03C2886.13 3192.66 2675.66 3403.13 2416.03 3403.13C2156.4 3403.13 1945.93 3192.66 1945.93 2933.03C1945.93 2673.4 2156.4 2462.93 2416.03 2462.93C2675.66 2462.93 2886.13 2673.4 2886.13 2933.03Z" stroke="white" stroke-opacity="0.05" stroke-width="2" mask="url(#path-2-inside-2_1_422)"/>
<path d="M2866.27 2933.03C2866.27 3181.69 2664.69 3383.27 2416.03 3383.27C2167.37 3383.27 1965.79 3181.69 1965.79 2933.03C1965.79 2684.37 2167.37 2482.79 2416.03 2482.79C2664.69 2482.79 2866.27 2684.37 2866.27 2933.03Z" stroke="white" stroke-opacity="0.05" stroke-width="2" mask="url(#path-2-inside-2_1_422)"/>
<path d="M2846.4 2933.03C2846.4 3170.72 2653.72 3363.4 2416.03 3363.4C2178.34 3363.4 1985.65 3170.72 1985.65 2933.03C1985.65 2695.34 2178.34 2502.65 2416.03 2502.65C2653.72 2502.65 2846.4 2695.34 2846.4 2933.03Z" stroke="white" stroke-opacity="0.05" stroke-width="2" mask="url(#path-2-inside-2_1_422)"/>
<path d="M2826.54 2933.03C2826.54 3159.75 2642.75 3343.54 2416.03 3343.54C2189.31 3343.54 2005.52 3159.75 2005.52 2933.03C2005.52 2706.31 2189.31 2522.52 2416.03 2522.52C2642.75 2522.52 2826.54 2706.31 2826.54 2933.03Z" stroke="white" stroke-opacity="0.05" stroke-width="2" mask="url(#path-2-inside-2_1_422)"/>
<path d="M2806.68 2933.03C2806.68 3148.78 2631.78 3323.68 2416.03 3323.68C2200.28 3323.68 2025.38 3148.78 2025.38 2933.03C2025.38 2717.28 2200.28 2542.38 2416.03 2542.38C2631.78 2542.38 2806.68 2717.28 2806.68 2933.03Z" stroke="white" stroke-opacity="0.05" stroke-width="2" mask="url(#path-2-inside-2_1_422)"/>
<path d="M2786.81 2933.03C2786.81 3137.81 2620.81 3303.81 2416.03 3303.81C2211.25 3303.81 2045.24 3137.81 2045.24 2933.03C2045.24 2728.25 2211.25 2562.24 2416.03 2562.24C2620.81 2562.24 2786.81 2728.25 2786.81 2933.03Z" stroke="white" stroke-opacity="0.05" stroke-width="2" mask="url(#path-2-inside-2_1_422)"/>
<path d="M2766.95 2933.03C2766.95 3126.84 2609.84 3283.95 2416.03 3283.95C2222.22 3283.95 2065.11 3126.84 2065.11 2933.03C2065.11 2739.22 2222.22 2582.11 2416.03 2582.11C2609.84 2582.11 2766.95 2739.22 2766.95 2933.03Z" stroke="white" stroke-opacity="0.05" stroke-width="2" mask="url(#path-2-inside-2_1_422)"/>
<path d="M2747.09 2933.03C2747.09 3115.87 2598.87 3264.09 2416.03 3264.09C2233.19 3264.09 2084.97 3115.87 2084.97 2933.03C2084.97 2750.19 2233.19 2601.97 2416.03 2601.97C2598.87 2601.97 2747.09 2750.19 2747.09 2933.03Z" stroke="white" stroke-opacity="0.05" stroke-width="2" mask="url(#path-2-inside-2_1_422)"/>
<path d="M2727.22 2933.03C2727.22 3104.9 2587.9 3244.22 2416.03 3244.22C2244.16 3244.22 2104.83 3104.9 2104.83 2933.03C2104.83 2761.16 2244.16 2621.83 2416.03 2621.83C2587.9 2621.83 2727.22 2761.16 2727.22 2933.03Z" stroke="white" stroke-opacity="0.05" stroke-width="2" mask="url(#path-2-inside-2_1_422)"/>
<path d="M2700.74 2933.03C2700.74 3090.27 2573.27 3217.74 2416.03 3217.74C2258.79 3217.74 2131.32 3090.27 2131.32 2933.03C2131.32 2775.79 2258.79 2648.32 2416.03 2648.32C2573.27 2648.32 2700.74 2775.79 2700.74 2933.03Z" stroke="white" stroke-opacity="0.05" stroke-width="2" mask="url(#path-2-inside-2_1_422)"/>
<path d="M2680.87 2933.03C2680.87 3079.3 2562.3 3197.87 2416.03 3197.87C2269.76 3197.87 2151.18 3079.3 2151.18 2933.03C2151.18 2786.76 2269.76 2668.18 2416.03 2668.18C2562.3 2668.18 2680.87 2786.76 2680.87 2933.03Z" stroke="white" stroke-opacity="0.05" stroke-width="2" mask="url(#path-2-inside-2_1_422)"/>
<path d="M2661.01 2933.03C2661.01 3068.33 2551.33 3178.01 2416.03 3178.01C2280.73 3178.01 2171.04 3068.33 2171.04 2933.03C2171.04 2797.73 2280.73 2688.04 2416.03 2688.04C2551.33 2688.04 2661.01 2797.73 2661.01 2933.03Z" stroke="white" stroke-opacity="0.05" stroke-width="2" mask="url(#path-2-inside-2_1_422)"/>
<path d="M2641.15 2933.03C2641.15 3057.36 2540.36 3158.15 2416.03 3158.15C2291.7 3158.15 2190.91 3057.36 2190.91 2933.03C2190.91 2808.7 2291.7 2707.91 2416.03 2707.91C2540.36 2707.91 2641.15 2808.7 2641.15 2933.03Z" stroke="white" stroke-opacity="0.05" stroke-width="2" mask="url(#path-2-inside-2_1_422)"/>
<path d="M2621.28 2933.03C2621.28 3046.39 2529.39 3138.28 2416.03 3138.28C2302.67 3138.28 2210.77 3046.39 2210.77 2933.03C2210.77 2819.67 2302.67 2727.77 2416.03 2727.77C2529.39 2727.77 2621.28 2819.67 2621.28 2933.03Z" stroke="white" stroke-opacity="0.05" stroke-width="2" mask="url(#path-2-inside-2_1_422)"/>
<path d="M2601.42 2933.03C2601.42 3035.42 2518.42 3118.42 2416.03 3118.42C2313.64 3118.42 2230.64 3035.42 2230.64 2933.03C2230.64 2830.64 2313.64 2747.64 2416.03 2747.64C2518.42 2747.64 2601.42 2830.64 2601.42 2933.03Z" stroke="white" stroke-opacity="0.05" stroke-width="2" mask="url(#path-2-inside-2_1_422)"/>
<path d="M2581.56 2933.03C2581.56 3024.45 2507.45 3098.56 2416.03 3098.56C2324.61 3098.56 2250.5 3024.45 2250.5 2933.03C2250.5 2841.61 2324.61 2767.5 2416.03 2767.5C2507.45 2767.5 2581.56 2841.61 2581.56 2933.03Z" stroke="white" stroke-opacity="0.05" stroke-width="2" mask="url(#path-2-inside-2_1_422)"/>
<path d="M2561.69 2933.03C2561.69 3013.48 2496.48 3078.69 2416.03 3078.69C2335.58 3078.69 2270.36 3013.48 2270.36 2933.03C2270.36 2852.58 2335.58 2787.36 2416.03 2787.36C2496.48 2787.36 2561.69 2852.58 2561.69 2933.03Z" stroke="white" stroke-opacity="0.05" stroke-width="2" mask="url(#path-2-inside-2_1_422)"/>
<path d="M2541.83 2933.03C2541.83 3002.51 2485.51 3058.83 2416.03 3058.83C2346.55 3058.83 2290.23 3002.51 2290.23 2933.03C2290.23 2863.55 2346.55 2807.23 2416.03 2807.23C2485.51 2807.23 2541.83 2863.55 2541.83 2933.03Z" stroke="white" stroke-opacity="0.05" stroke-width="2" mask="url(#path-2-inside-2_1_422)"/>
<path d="M2521.97 2933.03C2521.97 2991.54 2474.54 3038.97 2416.03 3038.97C2357.52 3038.97 2310.09 2991.54 2310.09 2933.03C2310.09 2874.52 2357.52 2827.09 2416.03 2827.09C2474.54 2827.09 2521.97 2874.52 2521.97 2933.03Z" stroke="white" stroke-opacity="0.05" stroke-width="2" mask="url(#path-2-inside-2_1_422)"/>
<path d="M2502.1 2933.03C2502.1 2980.57 2463.57 3019.1 2416.03 3019.1C2368.49 3019.1 2329.95 2980.57 2329.95 2933.03C2329.95 2885.49 2368.49 2846.95 2416.03 2846.95C2463.57 2846.95 2502.1 2885.49 2502.1 2933.03Z" stroke="white" stroke-opacity="0.05" stroke-width="2" mask="url(#path-2-inside-2_1_422)"/>
<path d="M2482.24 2933.03C2482.24 2969.6 2452.6 2999.24 2416.03 2999.24C2379.46 2999.24 2349.82 2969.6 2349.82 2933.03C2349.82 2896.46 2379.46 2866.82 2416.03 2866.82C2452.6 2866.82 2482.24 2896.46 2482.24 2933.03Z" stroke="white" stroke-opacity="0.05" stroke-width="2" mask="url(#path-2-inside-2_1_422)"/>
<path d="M2462.38 2933.03C2462.38 2958.62 2441.62 2979.38 2416.03 2979.38C2390.43 2979.38 2369.68 2958.62 2369.68 2933.03C2369.68 2907.43 2390.43 2886.68 2416.03 2886.68C2441.62 2886.68 2462.38 2907.43 2462.38 2933.03Z" stroke="white" stroke-opacity="0.05" stroke-width="2" mask="url(#path-2-inside-2_1_422)"/>
<path d="M2442.51 2933.03C2442.51 2947.65 2430.65 2959.51 2416.03 2959.51C2401.4 2959.51 2389.54 2947.65 2389.54 2933.03C2389.54 2918.4 2401.4 2906.54 2416.03 2906.54C2430.65 2906.54 2442.51 2918.4 2442.51 2933.03Z" stroke="white" stroke-opacity="0.05" stroke-width="2" mask="url(#path-2-inside-2_1_422)"/>
<path d="M2422.65 2933.03C2422.65 2936.68 2419.68 2939.65 2416.03 2939.65C2412.37 2939.65 2409.41 2936.68 2409.41 2933.03C2409.41 2929.37 2412.37 2926.41 2416.03 2926.41C2419.68 2926.41 2422.65 2929.37 2422.65 2933.03Z" stroke="white" stroke-opacity="0.05" stroke-width="2" mask="url(#path-2-inside-2_1_422)"/>
</g>
<g filter="url(#filter0_f_1_422)">
<rect x="126" y="1260" width="2375" height="1324" fill="url(#paint0_linear_1_422)"/>
</g>
<g filter="url(#filter1_f_1_422)">
<circle cx="1647" cy="1007" r="253" fill="#E3FE0F" fill-opacity="0.2"/>
</g>
<g filter="url(#filter2_f_1_422)">
<circle cx="369.5" cy="369.5" r="369.5" fill="#E3FE0F" fill-opacity="0.2"/>
</g>
<g filter="url(#filter3_f_1_422)">
<circle cx="781.5" cy="2541.5" r="166.5" fill="#E3FE0F" fill-opacity="0.2"/>
</g>
<g filter="url(#filter4_f_1_422)">
<circle cx="1952.5" cy="2080.5" r="166.5" fill="#E3FE0F" fill-opacity="0.2"/>
</g>
<g filter="url(#filter5_f_1_422)">
<circle cx="1967.5" cy="3367.5" r="166.5" fill="#E3FE0F" fill-opacity="0.2"/>
</g>
<g filter="url(#filter6_f_1_422)">
<circle cx="643.5" cy="3847.5" r="219.5" fill="#E3FE0F" fill-opacity="0.2"/>
</g>
<g filter="url(#filter7_f_1_422)">
<circle cx="1917.5" cy="4448.5" r="152.5" fill="#E3FE0F" fill-opacity="0.2"/>
</g>
<g filter="url(#filter8_f_1_422)">
<circle cx="643" cy="5392" r="195" fill="#E3FE0F" fill-opacity="0.2"/>
</g>
<g filter="url(#filter9_f_1_422)">
<circle cx="1968.5" cy="5773.5" r="120.5" fill="#E3FE0F" fill-opacity="0.2"/>
</g>
<g filter="url(#filter10_f_1_422)">
<circle cx="1935.5" cy="6706.5" r="219.5" fill="#E3FE0F" fill-opacity="0.2"/>
</g>
<g filter="url(#filter11_f_1_422)">
<circle cx="722.5" cy="6748.5" r="219.5" fill="#E3FE0F" fill-opacity="0.2"/>
</g>
<g filter="url(#filter12_f_1_422)">
<circle cx="2000" cy="5125" r="158" fill="#E3FE0F" fill-opacity="0.2"/>
</g>
<defs>
<filter id="filter0_f_1_422" x="76" y="1210" width="2475" height="1424" filterUnits="userSpaceOnUse" color-interpolation-filters="sRGB">
<feFlood flood-opacity="0" result="BackgroundImageFix"/>
<feBlend mode="normal" in="SourceGraphic" in2="BackgroundImageFix" result="shape"/>
<feGaussianBlur stdDeviation="25" result="effect1_foregroundBlur_1_422"/>
</filter>
<filter id="filter1_f_1_422" x="894" y="254" width="1506" height="1506" filterUnits="userSpaceOnUse" color-interpolation-filters="sRGB">
<feFlood flood-opacity="0" result="BackgroundImageFix"/>
<feBlend mode="normal" in="SourceGraphic" in2="BackgroundImageFix" result="shape"/>
<feGaussianBlur stdDeviation="250" result="effect1_foregroundBlur_1_422"/>
</filter>
<filter id="filter2_f_1_422" x="-500" y="-500" width="1739" height="1739" filterUnits="userSpaceOnUse" color-interpolation-filters="sRGB">
<feFlood flood-opacity="0" result="BackgroundImageFix"/>
<feBlend mode="normal" in="SourceGraphic" in2="BackgroundImageFix" result="shape"/>
<feGaussianBlur stdDeviation="250" result="effect1_foregroundBlur_1_422"/>
</filter>
<filter id="filter3_f_1_422" x="115" y="1875" width="1333" height="1333" filterUnits="userSpaceOnUse" color-interpolation-filters="sRGB">
<feFlood flood-opacity="0" result="BackgroundImageFix"/>
<feBlend mode="normal" in="SourceGraphic" in2="BackgroundImageFix" result="shape"/>
<feGaussianBlur stdDeviation="250" result="effect1_foregroundBlur_1_422"/>
</filter>
<filter id="filter4_f_1_422" x="1286" y="1414" width="1333" height="1333" filterUnits="userSpaceOnUse" color-interpolation-filters="sRGB">
<feFlood flood-opacity="0" result="BackgroundImageFix"/>
<feBlend mode="normal" in="SourceGraphic" in2="BackgroundImageFix" result="shape"/>
<feGaussianBlur stdDeviation="250" result="effect1_foregroundBlur_1_422"/>
</filter>
<filter id="filter5_f_1_422" x="1301" y="2701" width="1333" height="1333" filterUnits="userSpaceOnUse" color-interpolation-filters="sRGB">
<feFlood flood-opacity="0" result="BackgroundImageFix"/>
<feBlend mode="normal" in="SourceGraphic" in2="BackgroundImageFix" result="shape"/>
<feGaussianBlur stdDeviation="250" result="effect1_foregroundBlur_1_422"/>
</filter>
<filter id="filter6_f_1_422" x="-76" y="3128" width="1439" height="1439" filterUnits="userSpaceOnUse" color-interpolation-filters="sRGB">
<feFlood flood-opacity="0" result="BackgroundImageFix"/>
<feBlend mode="normal" in="SourceGraphic" in2="BackgroundImageFix" result="shape"/>
<feGaussianBlur stdDeviation="250" result="effect1_foregroundBlur_1_422"/>
</filter>
<filter id="filter7_f_1_422" x="1265" y="3796" width="1305" height="1305" filterUnits="userSpaceOnUse" color-interpolation-filters="sRGB">
<feFlood flood-opacity="0" result="BackgroundImageFix"/>
<feBlend mode="normal" in="SourceGraphic" in2="BackgroundImageFix" result="shape"/>
<feGaussianBlur stdDeviation="250" result="effect1_foregroundBlur_1_422"/>
</filter>
<filter id="filter8_f_1_422" x="-52" y="4697" width="1390" height="1390" filterUnits="userSpaceOnUse" color-interpolation-filters="sRGB">
<feFlood flood-opacity="0" result="BackgroundImageFix"/>
<feBlend mode="normal" in="SourceGraphic" in2="BackgroundImageFix" result="shape"/>
<feGaussianBlur stdDeviation="250" result="effect1_foregroundBlur_1_422"/>
</filter>
<filter id="filter9_f_1_422" x="1348" y="5153" width="1241" height="1241" filterUnits="userSpaceOnUse" color-interpolation-filters="sRGB">
<feFlood flood-opacity="0" result="BackgroundImageFix"/>
<feBlend mode="normal" in="SourceGraphic" in2="BackgroundImageFix" result="shape"/>
<feGaussianBlur stdDeviation="250" result="effect1_foregroundBlur_1_422"/>
</filter>
<filter id="filter10_f_1_422" x="1216" y="5987" width="1439" height="1439" filterUnits="userSpaceOnUse" color-interpolation-filters="sRGB">
<feFlood flood-opacity="0" result="BackgroundImageFix"/>
<feBlend mode="normal" in="SourceGraphic" in2="BackgroundImageFix" result="shape"/>
<feGaussianBlur stdDeviation="250" result="effect1_foregroundBlur_1_422"/>
</filter>
<filter id="filter11_f_1_422" x="3" y="6029" width="1439" height="1439" filterUnits="userSpaceOnUse" color-interpolation-filters="sRGB">
<feFlood flood-opacity="0" result="BackgroundImageFix"/>
<feBlend mode="normal" in="SourceGraphic" in2="BackgroundImageFix" result="shape"/>
<feGaussianBlur stdDeviation="250" result="effect1_foregroundBlur_1_422"/>
</filter>
<filter id="filter12_f_1_422" x="1342" y="4467" width="1316" height="1316" filterUnits="userSpaceOnUse" color-interpolation-filters="sRGB">
<feFlood flood-opacity="0" result="BackgroundImageFix"/>
<feBlend mode="normal" in="SourceGraphic" in2="BackgroundImageFix" result="shape"/>
<feGaussianBlur stdDeviation="250" result="effect1_foregroundBlur_1_422"/>
</filter>
<linearGradient id="paint0_linear_1_422" x1="1313.5" y1="1260" x2="1313.5" y2="2584" gradientUnits="userSpaceOnUse">
<stop stop-color="#17161E" stop-opacity="0.8"/>
<stop offset="1" stop-color="#17161E"/>
</linearGradient>
</defs>
</svg>
