<svg width="86" height="13" viewBox="0 0 86 13" fill="none" xmlns="http://www.w3.org/2000/svg">
<path d="M76.6431 8.20983C76.6431 6.82638 77.0633 5.73603 77.9037 4.93879C78.7441 4.12982 79.839 3.72534 81.1884 3.72534C82.5378 3.72534 83.6209 4.11224 84.4376 4.88603C85.2662 5.65982 85.6805 6.70914 85.6805 8.03396V8.77258H78.8092C78.8329 9.46431 79.0578 10.0212 79.4839 10.4433C79.9219 10.8536 80.5788 11.0588 81.4547 11.0588C82.7213 11.0588 83.4729 10.584 83.7097 9.63431H86.0001C85.8462 10.4433 85.3846 11.1936 84.6152 11.8853C83.8458 12.5653 82.7923 12.9053 81.4547 12.9053C79.8804 12.9053 78.6849 12.4598 77.8682 11.5688C77.0514 10.6778 76.6431 9.5581 76.6431 8.20983ZM78.8092 7.40086H83.5144C83.5144 6.87327 83.3191 6.43948 82.9284 6.09948C82.5497 5.75948 81.9697 5.58948 81.1884 5.58948C80.4072 5.58948 79.8153 5.76534 79.4129 6.11707C79.0104 6.45707 78.8092 6.885 78.8092 7.40086Z" fill="white"/>
<path d="M69.022 12.7293V5.1145C69.022 4.66898 69.1403 4.32898 69.3771 4.0945C69.6257 3.86001 69.9748 3.74863 70.4246 3.76036L75.911 3.90105V5.8707L71.3124 5.7476V12.7293H69.022Z" fill="white"/>
<path d="M59.0583 11.6743C58.1469 10.8536 57.6912 9.73396 57.6912 8.31534C57.6912 6.89672 58.1469 5.77707 59.0583 4.95638C59.9698 4.13569 61.1475 3.72534 62.5916 3.72534C64.0239 3.72534 65.1957 4.13569 66.1072 4.95638C67.0186 5.77707 67.4743 6.89672 67.4743 8.31534C67.4743 9.73396 67.0186 10.8536 66.1072 11.6743C65.1957 12.495 64.0239 12.9053 62.5916 12.9053C61.1475 12.9053 59.9698 12.495 59.0583 11.6743ZM60.6741 6.39845C60.2124 6.86741 59.9816 7.50638 59.9816 8.31534C59.9816 9.12431 60.2124 9.76327 60.6741 10.2322C61.1357 10.7012 61.7749 10.9357 62.5916 10.9357C63.4084 10.9357 64.0476 10.7012 64.5092 10.2322C64.9708 9.76327 65.2017 9.12431 65.2017 8.31534C65.2017 7.50638 64.9708 6.86741 64.5092 6.39845C64.0476 5.92948 63.4084 5.695 62.5916 5.695C61.7749 5.695 61.1357 5.92948 60.6741 6.39845Z" fill="white"/>
<path d="M44.3269 6.52148C44.3269 4.68079 44.8892 3.16251 46.0137 1.96665C47.1382 0.759066 48.6414 0.155273 50.5235 0.155273C52.2162 0.155273 53.5893 0.600791 54.6427 1.49182C55.6962 2.37114 56.3177 3.57872 56.5071 5.11458H54.2166C54.0746 4.1532 53.678 3.41458 53.027 2.89872C52.3878 2.38286 51.5652 2.12493 50.559 2.12493C49.3161 2.12493 48.3455 2.51769 47.6472 3.30321C46.9606 4.077 46.6173 5.14976 46.6173 6.52148C46.6173 7.89321 46.9606 8.97183 47.6472 9.75734C48.3455 10.5429 49.3161 10.9356 50.559 10.9356C51.5652 10.9356 52.3878 10.6777 53.027 10.1618C53.678 9.63424 54.0746 8.88976 54.2166 7.92838H56.5071C56.3177 9.47596 55.6962 10.6953 54.6427 11.5863C53.5893 12.4656 52.2162 12.9053 50.5235 12.9053C48.6414 12.9053 47.1382 12.3073 46.0137 11.1115C44.8892 9.90389 44.3269 8.37389 44.3269 6.52148Z" fill="white"/>
<path d="M33.0869 10.3026C33.0869 9.54051 33.3414 8.93672 33.8504 8.4912C34.3712 8.04569 35.2235 7.75258 36.4072 7.61189L39.4966 7.24258C39.4611 6.14051 38.7745 5.58948 37.437 5.58948C36.8096 5.58948 36.3065 5.73017 35.9278 6.01155C35.5608 6.2812 35.3774 6.69155 35.3774 7.24258H33.2112C33.2112 6.19913 33.6018 5.355 34.3831 4.71017C35.1643 4.05362 36.1823 3.72534 37.437 3.72534C38.7272 3.72534 39.7748 4.07707 40.5797 4.78051C41.3846 5.47224 41.787 6.46879 41.787 7.77017V10.7598H43.0832V12.7295H41.2721C40.8815 12.7295 40.5797 12.624 40.3666 12.4129C40.1654 12.2019 40.0648 11.9088 40.0648 11.5336V11.2347L40.4199 10.2322H39.8162C39.3901 12.0143 38.1945 12.9053 36.2296 12.9053C35.5904 12.9053 35.0459 12.8174 34.5961 12.6415C34.1582 12.4657 33.8386 12.2312 33.6373 11.9381C33.4361 11.645 33.2941 11.3695 33.2112 11.1115C33.1283 10.8419 33.0869 10.5722 33.0869 10.3026ZM35.3774 9.91569C35.3774 10.2557 35.4898 10.5136 35.7147 10.6895C35.9514 10.8536 36.2592 10.9357 36.638 10.9357C37.5021 10.9357 38.1945 10.7247 38.7154 10.3026C39.2362 9.86879 39.4966 9.30603 39.4966 8.61431L36.8155 8.94845C36.3065 9.00707 35.9396 9.10672 35.7147 9.24741C35.4898 9.37638 35.3774 9.59913 35.3774 9.91569Z" fill="white"/>
<path d="M22.4539 12.7294L25.8274 8.59664V8.0163L22.4539 3.90112H25.1704L27.4964 7.01388L29.8046 3.90112H32.5211L29.1476 8.0163V8.59664L32.5211 12.7294H29.8046L27.4964 9.59906L25.1704 12.7294H22.4539Z" fill="white"/>
<path d="M13.0947 8.20983C13.0947 6.82638 13.5149 5.73603 14.3554 4.93879C15.1958 4.12982 16.2907 3.72534 17.6401 3.72534C18.9895 3.72534 20.0726 4.11224 20.8893 4.88603C21.7179 5.65982 22.1322 6.70914 22.1322 8.03396V8.77258H15.2609C15.2845 9.46431 15.5095 10.0212 15.9356 10.4433C16.3735 10.8536 17.0305 11.0588 17.9064 11.0588C19.173 11.0588 19.9246 10.584 20.1613 9.63431H22.4518C22.2979 10.4433 21.8363 11.1936 21.0669 11.8853C20.2975 12.5653 19.244 12.9053 17.9064 12.9053C16.3321 12.9053 15.1366 12.4598 14.3198 11.5688C13.5031 10.6778 13.0947 9.5581 13.0947 8.20983ZM15.2609 7.40086H19.966C19.966 6.87327 19.7707 6.43948 19.3801 6.09948C19.0013 5.75948 18.4213 5.58948 17.6401 5.58948C16.8589 5.58948 16.267 5.76534 15.8646 6.11707C15.4621 6.45707 15.2609 6.885 15.2609 7.40086Z" fill="white"/>
<path d="M9.39592 0.331055H11.6686V12.7293H9.39592V7.64692H2.66666V12.7293H0.376221V0.331055H2.66666V5.67726H9.39592V0.331055Z" fill="white"/>
</svg>
