<svg width="15" height="17" viewBox="0 0 15 17" fill="none" xmlns="http://www.w3.org/2000/svg">
<path fill-rule="evenodd" clip-rule="evenodd" d="M2.58308 2.65089C2.67195 2.57702 2.76715 2.50966 2.86207 2.44249C2.9091 2.40922 2.95605 2.37599 3.00214 2.34205L4.79225 1.02889C6.66802 -0.359635 7.60585 -0.351054 9.56877 1.10507L12.2911 3.07493C13.4236 3.91388 13.9666 4.48014 14.2412 5.98521C14.2744 6.16669 14.2711 6.36832 14.268 6.56075V6.56076V6.56084C14.267 6.61752 14.2661 6.6734 14.2662 6.72772L14.2662 9.81325C14.2662 9.90495 14.2673 9.99738 14.2684 10.0902C14.2727 10.4441 14.277 10.8034 14.2185 11.149C13.9503 12.733 13.1574 13.3235 11.9297 14.2061L9.45615 16.0079C9.39504 16.0523 9.33447 16.0974 9.27393 16.1424C9.07786 16.2883 8.88208 16.4339 8.66927 16.5547C7.37336 17.2904 6.25699 17.0705 5.08991 16.2177L2.39788 14.2462C2.29124 14.1869 2.18553 14.1042 2.0833 14.0242C2.04266 13.9924 2.00257 13.961 1.9632 13.9317C0.784478 13.0549 0.00962309 12.1626 0.00616675 10.5676L0.00592 6.84856C0.00594767 6.78967 0.00450203 6.72852 0.00303259 6.66636C-0.00111778 6.49079 -0.00545801 6.30719 0.0226726 6.14385C0.305317 4.50249 0.801161 3.94877 2.04259 3.04776L2.40628 2.77751C2.42172 2.76601 2.43722 2.75387 2.45285 2.74163C2.49483 2.70877 2.53778 2.67516 2.58308 2.65089ZM3.38569 6.07106C3.02398 6.69355 3.01325 7.05945 3.01287 7.77048L3.01304 8.65259C3.01314 8.79323 3.01103 8.92413 3.00904 9.04762V9.04764C2.99694 9.79745 2.98925 10.2736 3.50804 10.9938C3.76808 11.2588 4.06215 11.4651 4.36849 11.669L5.35602 12.3054C5.41847 12.3458 5.47877 12.385 5.53712 12.4229C6.72488 13.1947 7.10392 13.441 8.41093 12.6326L9.9338 11.6701C10.9609 10.9999 11.2565 10.5385 11.2582 9.34109L11.2574 7.10512C11.2391 6.22442 10.6405 5.70706 9.97439 5.28783L8.48972 4.34676C7.47789 3.70698 7.03594 3.58815 5.91647 4.26354L4.90228 4.90903C4.80193 4.97418 4.69967 5.03819 4.59704 5.10244C4.29984 5.28848 3.9995 5.47648 3.73298 5.69991C3.64348 5.77493 3.57207 5.858 3.49933 5.94261C3.46605 5.98132 3.4325 6.02036 3.3968 6.05909L3.38569 6.07106ZM7.09897 5.11897C7.4801 5.06306 7.95809 5.39783 8.32823 5.65707C8.41963 5.72108 8.50445 5.78049 8.57962 5.82827L9.25407 6.25519C9.97221 6.71466 10.0666 6.93065 10.0673 7.8419L10.0672 9.26407C10.0665 9.99131 9.91638 10.2554 9.34238 10.6202L7.891 11.5438C7.86803 11.5573 7.84487 11.5713 7.82152 11.5854L7.82146 11.5854C7.72 11.6467 7.61495 11.7101 7.50607 11.7494L7.48978 11.7551C7.3868 11.7921 7.28914 11.8049 7.18114 11.8165C6.71414 11.8288 6.22466 11.4846 5.80187 11.1873C5.70063 11.1161 5.60322 11.0476 5.51085 10.9873C5.40197 10.9163 5.29999 10.8524 5.20491 10.7929L5.2049 10.7929C4.54295 10.3785 4.21493 10.1731 4.21419 9.19713L4.21455 7.76306C4.21536 7.14032 4.26145 6.82098 4.80258 6.41423C5.03684 6.23812 5.29044 6.08439 5.54258 5.93154L5.54261 5.93152C5.64034 5.87227 5.73786 5.81316 5.83395 5.75292C5.91463 5.70234 5.99389 5.6496 6.07293 5.59701L6.07293 5.59701C6.3926 5.38432 6.70851 5.17414 7.09897 5.11897ZM7.09495 6.69162C5.89281 6.78462 5.49219 7.7668 5.58417 8.87449C5.65016 9.66946 6.41521 10.3207 7.1931 10.2862C7.63244 10.2552 8.07274 10.0156 8.36247 9.67798C8.73107 9.24841 8.74101 8.63342 8.70408 8.09026C8.65171 7.31901 7.84808 6.6351 7.09495 6.69162ZM8.0192 9.26974C8.55885 8.51229 8.13128 7.14814 7.03502 7.23995C6.36608 7.36255 6.09659 7.84344 6.09698 8.49773C6.09737 9.23299 6.47718 9.78563 7.28025 9.70571C7.57534 9.65875 7.84078 9.52016 8.0192 9.26974Z" fill="url(#paint0_linear_8002_46)"/>
<defs>
<linearGradient id="paint0_linear_8002_46" x1="-2.76566" y1="7.33689" x2="17.6876" y2="0.767332" gradientUnits="userSpaceOnUse">
<stop offset="0.249585" stop-color="#E3FE0F"/>
<stop offset="1" stop-color="#506491"/>
</linearGradient>
</defs>
</svg>
