<svg width="101" height="16" viewBox="0 0 101 16" fill="none" xmlns="http://www.w3.org/2000/svg">
<path d="M89.9814 10.0116C89.9814 8.38399 90.4762 7.10123 91.4659 6.1633C92.4555 5.21157 93.7448 4.73571 95.3339 4.73571C96.9229 4.73571 98.1983 5.19088 99.1601 6.10123C100.136 7.01157 100.624 8.24606 100.624 9.80468V10.6736H92.5322C92.56 11.4874 92.8249 12.1426 93.3267 12.6392C93.8424 13.1219 94.616 13.3633 95.6475 13.3633C97.1389 13.3633 98.024 12.8047 98.3028 11.6874H101C100.819 12.6392 100.275 13.5219 99.3691 14.3357C98.4631 15.1357 97.2226 15.5357 95.6475 15.5357C93.7936 15.5357 92.3858 15.0116 91.424 13.9633C90.4623 12.915 89.9814 11.5978 89.9814 10.0116ZM92.5322 9.05985H98.0728C98.0728 8.43916 97.8428 7.92881 97.3829 7.52881C96.9368 7.12881 96.2538 6.92881 95.3339 6.92881C94.4139 6.92881 93.717 7.13571 93.243 7.5495C92.7691 7.9495 92.5322 8.45295 92.5322 9.05985Z" fill="white"/>
<path d="M81.0072 15.3288V6.37019C81.0072 5.84605 81.1466 5.44605 81.4254 5.17019C81.7181 4.89433 82.1293 4.76329 82.659 4.77709L89.1196 4.9426V7.25984L83.7044 7.11502V15.3288H81.0072Z" fill="white"/>
<path d="M69.2743 14.0874C68.201 13.1219 67.6644 11.8047 67.6644 10.1357C67.6644 8.46674 68.201 7.1495 69.2743 6.18399C70.3476 5.21847 71.7345 4.73571 73.435 4.73571C75.1216 4.73571 76.5016 5.21847 77.5749 6.18399C78.6481 7.1495 79.1848 8.46674 79.1848 10.1357C79.1848 11.8047 78.6481 13.1219 77.5749 14.0874C76.5016 15.053 75.1216 15.5357 73.435 15.5357C71.7345 15.5357 70.3476 15.053 69.2743 14.0874ZM71.177 7.88054C70.6334 8.43226 70.3615 9.18399 70.3615 10.1357C70.3615 11.0874 70.6334 11.8392 71.177 12.3909C71.7206 12.9426 72.4733 13.2185 73.435 13.2185C74.3968 13.2185 75.1495 12.9426 75.6931 12.3909C76.2367 11.8392 76.5085 11.0874 76.5085 10.1357C76.5085 9.18399 76.2367 8.43226 75.6931 7.88054C75.1495 7.32881 74.3968 7.05295 73.435 7.05295C72.4733 7.05295 71.7206 7.32881 71.177 7.88054Z" fill="white"/>
<path d="M51.9268 8.02536C51.9268 5.85984 52.5889 4.07364 53.9131 2.66674C55.2373 1.24605 57.0075 0.535706 59.2238 0.535706C61.217 0.535706 62.8339 1.05984 64.0745 2.10812C65.315 3.1426 66.0468 4.56329 66.2698 6.37019H63.5727C63.4054 5.23915 62.9385 4.37019 62.1718 3.76329C61.4191 3.1564 60.4504 2.85295 59.2656 2.85295C57.802 2.85295 56.6591 3.31502 55.8367 4.23915C55.0282 5.1495 54.624 6.41157 54.624 8.02536C54.624 9.63915 55.0282 10.9081 55.8367 11.8323C56.6591 12.7564 57.802 13.2185 59.2656 13.2185C60.4504 13.2185 61.4191 12.915 62.1718 12.3081C62.9385 11.6874 63.4054 10.8116 63.5727 9.68053H66.2698C66.0468 11.5012 65.315 12.9357 64.0745 13.984C62.8339 15.0185 61.217 15.5357 59.2238 15.5357C57.0075 15.5357 55.2373 14.8323 53.9131 13.4254C52.5889 12.0047 51.9268 10.2047 51.9268 8.02536Z" fill="white"/>
<path d="M38.6911 12.4736C38.6911 11.5771 38.9908 10.8667 39.5902 10.3426C40.2035 9.81847 41.207 9.47364 42.6009 9.30812L46.2389 8.87364C46.1971 7.57709 45.3887 6.92881 43.8136 6.92881C43.0748 6.92881 42.4824 7.09433 42.0364 7.42537C41.6043 7.74261 41.3883 8.22537 41.3883 8.87364H38.8375C38.8375 7.64605 39.2974 6.65295 40.2174 5.89433C41.1374 5.12192 42.3361 4.73571 43.8136 4.73571C45.3329 4.73571 46.5665 5.1495 47.5143 5.97709C48.4622 6.79088 48.9361 7.9633 48.9361 9.49433V13.0116H50.4624V15.3288H48.3298C47.8698 15.3288 47.5143 15.2047 47.2634 14.9564C47.0265 14.7081 46.908 14.3633 46.908 13.9219V13.5702L47.3262 12.3909H46.6153C46.1135 14.4874 44.7057 15.5357 42.3918 15.5357C41.6391 15.5357 40.998 15.4323 40.4683 15.2254C39.9526 15.0185 39.5762 14.7426 39.3393 14.3978C39.1023 14.053 38.935 13.7288 38.8375 13.4254C38.7399 13.1081 38.6911 12.7909 38.6911 12.4736ZM41.3883 12.0185C41.3883 12.4185 41.5207 12.7219 41.7855 12.9288C42.0643 13.1219 42.4267 13.2185 42.8727 13.2185C43.8903 13.2185 44.7057 12.9702 45.319 12.4736C45.9323 11.9633 46.2389 11.3012 46.2389 10.4874L43.0818 10.8805C42.4824 10.9495 42.0503 11.0667 41.7855 11.2323C41.5207 11.384 41.3883 11.6461 41.3883 12.0185Z" fill="white"/>
<path d="M26.1699 15.3288L30.1425 10.4668V9.784L26.1699 4.94262H29.3689L32.1078 8.60469L34.8259 4.94262H38.0248L34.0523 9.784V10.4668L38.0248 15.3288H34.8259L32.1078 11.6461L29.3689 15.3288H26.1699Z" fill="white"/>
<path d="M15.149 10.0116C15.149 8.38399 15.6439 7.10123 16.6335 6.1633C17.6232 5.21157 18.9125 4.73571 20.5015 4.73571C22.0905 4.73571 23.3659 5.19088 24.3277 6.10123C25.3034 7.01157 25.7913 8.24606 25.7913 9.80468V10.6736H17.6998C17.7277 11.4874 17.9926 12.1426 18.4943 12.6392C19.0101 13.1219 19.7837 13.3633 20.8152 13.3633C22.3066 13.3633 23.1917 12.8047 23.4705 11.6874H26.1676C25.9864 12.6392 25.4428 13.5219 24.5368 14.3357C23.6308 15.1357 22.3902 15.5357 20.8152 15.5357C18.9613 15.5357 17.5535 15.0116 16.5917 13.9633C15.6299 12.915 15.149 11.5978 15.149 10.0116ZM17.6998 9.05985H23.2405C23.2405 8.43916 23.0105 7.92881 22.5505 7.52881C22.1045 7.12881 21.4215 6.92881 20.5015 6.92881C19.5816 6.92881 18.8846 7.13571 18.4107 7.5495C17.9368 7.9495 17.6998 8.45295 17.6998 9.05985Z" fill="white"/>
<path d="M10.7933 0.742594H13.4695V15.3288H10.7933V9.34949H2.86912V15.3288H0.171967V0.742594H2.86912V7.03225H10.7933V0.742594Z" fill="white"/>
</svg>
