<svg width="20" height="26" viewBox="0 0 20 26" fill="none" xmlns="http://www.w3.org/2000/svg">
<path d="M6.40448 21.5668C5.77305 21.5668 5.24066 21.3357 4.8073 20.8737C4.37397 20.4115 4.1573 19.8438 4.1573 19.1705V2.39629C4.1573 1.72297 4.37397 1.15525 4.8073 0.693132C5.24066 0.231044 5.77305 0 6.40448 0H17.7528C18.3843 0 18.9166 0.231044 19.35 0.693132C19.7833 1.15525 20 1.72297 20 2.39629V19.1705C20 19.8438 19.7833 20.4115 19.35 20.8737C18.9166 21.3357 18.3843 21.5668 17.7528 21.5668H6.40448ZM6.40448 20.129H17.7528C17.9775 20.129 18.1835 20.0292 18.3708 19.8295C18.5581 19.6298 18.6517 19.4101 18.6517 19.1705V2.39629C18.6517 2.15666 18.5581 1.93699 18.3708 1.73731C18.1835 1.53763 17.9775 1.43778 17.7528 1.43778H6.40448C6.17977 1.43778 5.97378 1.53763 5.7865 1.73731C5.59924 1.93699 5.50561 2.15666 5.50561 2.39629V19.1705C5.50561 19.4101 5.59924 19.6298 5.7865 19.8295C5.97378 20.0292 6.17977 20.129 6.40448 20.129ZM2.24718 26C1.61575 26 1.08336 25.7689 0.65 25.3068C0.216666 24.8447 0 24.277 0 23.6037V5.39168H1.34831V23.6037C1.34831 23.8433 1.44194 24.063 1.6292 24.2627C1.81646 24.4623 2.02245 24.5622 2.24718 24.5622H14.9438V26H2.24718Z" fill="#17161E"/>
</svg>
