<svg width="170" height="10" viewBox="0 0 170 10" fill="none" xmlns="http://www.w3.org/2000/svg">
<path d="M0 8.84518C2.59507 7.9815 6.1749 7.96798 8.78921 7.7757C17.744 7.11707 26.7032 6.5851 35.6432 5.78125C55.4257 4.00249 75.1236 1.2959 94.979 0.115862C95.6268 0.0773645 96.276 0.0575459 96.9245 0.0291466C98.0469 -0.0200066 97.7318 -0.0166645 96.5771 0.115862C91.6312 0.683469 86.6832 1.3056 81.7779 2.0814C77.0777 2.82476 64.8362 3.67919 63.2962 8.90299C62.7137 10.879 80.5346 9.59346 81.4999 9.5389C102.165 8.37116 122.602 4.98862 143.268 3.58447C152.096 2.98456 160.95 2.60169 169.809 2.60169C170.758 2.60169 167.91 2.60169 166.96 2.60169" stroke="#E3FE0F" stroke-width="2" stroke-linecap="round"/>
</svg>
