<svg width="13" height="28" viewBox="0 0 13 28" fill="none" xmlns="http://www.w3.org/2000/svg">
<path d="M5.87898 28V24.6467C4.47134 24.507 3.2638 24.0529 2.25637 23.2845C1.24894 22.516 0.496815 21.4611 0 20.1198L1.07643 19.6168C1.57325 20.8463 2.24257 21.7964 3.08439 22.4671C3.92622 23.1378 5.07856 23.4731 6.5414 23.4731C7.83864 23.4731 9.04618 23.1378 10.164 22.4671C11.2818 21.7964 11.8408 20.7066 11.8408 19.1976C11.8408 17.9402 11.4337 16.9272 10.6194 16.1587C9.8052 15.3903 8.36306 14.6707 6.29299 14C4.22293 13.3294 2.75318 12.5749 1.88376 11.7366C1.01433 10.8982 0.579618 9.78047 0.579618 8.38326C0.579618 6.90223 1.17304 5.70762 2.35987 4.79943C3.54671 3.89125 4.71975 3.40921 5.87898 3.35332V3.05176e-05H7.03822V3.35332C8.11465 3.43716 9.05308 3.70263 9.8535 4.14973C10.6539 4.59684 11.3439 5.28147 11.9236 6.20362L10.9299 6.79045C10.5159 6.11979 9.95011 5.56091 9.23248 5.1138C8.51486 4.6667 7.61783 4.44314 6.5414 4.44314C5.24416 4.44314 4.11943 4.80642 3.1672 5.53296C2.21497 6.25951 1.73885 7.20961 1.73885 8.38326C1.73885 9.44514 2.08386 10.3114 2.77389 10.9821C3.46391 11.6527 4.91295 12.3513 7.12102 13.0779C9.16348 13.7485 10.6539 14.5589 11.5924 15.509C12.5308 16.4591 13 17.6887 13 19.1976C13 20.7905 12.4135 22.0759 11.2404 23.0539C10.0674 24.032 8.66667 24.5629 7.03822 24.6467V28H5.87898Z" fill="white"/>
</svg>
