<svg width="92" height="90" viewBox="0 0 92 90" fill="none" xmlns="http://www.w3.org/2000/svg">
<path d="M83.4298 36.5684C88.1629 56.7646 75.3588 76.9117 54.8308 81.5684C34.3029 86.2251 13.8248 73.6278 9.09162 53.4317C4.35847 33.2355 17.1627 13.0883 37.6906 8.43167C58.2185 3.775 78.6966 16.3723 83.4298 36.5684Z" fill="#E3FE0F"/>
<path d="M75.2582 45.8253L80.505 46.77L80.2803 47.9781L74.7253 49.6416L74.694 49.81L75.1508 49.7939L79.7873 50.6286L79.6769 51.2217L74.4302 50.2771L74.6549 49.0689L80.2085 47.4128L80.2399 47.2444L79.7831 47.2605L75.1466 46.4257L75.2582 45.8253Z" fill="#17161E"/>
<path d="M76.2592 51.7585C76.8203 51.9538 77.2046 52.2613 77.4121 52.681C77.618 53.1053 77.6301 53.5701 77.4484 54.0753C77.2701 54.5712 76.9758 54.9136 76.5655 55.1024C76.1552 55.2912 75.679 55.2912 75.1369 55.1025L74.9087 55.0231L75.9004 52.2653C75.5228 52.1549 75.183 52.1551 74.881 52.2658C74.5821 52.3828 74.3603 52.6425 74.2156 53.0448C74.1113 53.3349 74.0945 53.5975 74.1651 53.8326C74.2404 54.0694 74.4027 54.2653 74.6519 54.4205L74.4449 54.9959C74.3015 54.9039 74.1743 54.7964 74.0633 54.6736C73.9506 54.5554 73.8481 54.4092 73.7556 54.2349C73.6614 54.0652 73.6094 53.8603 73.5995 53.6199C73.5927 53.386 73.6364 53.138 73.7306 52.876C73.9426 52.2866 74.2783 51.9034 74.7379 51.7264C75.2005 51.5558 75.7076 51.5665 76.2592 51.7585ZM76.3426 52.4192L75.5528 54.6156C75.8476 54.7183 76.1237 54.7091 76.3812 54.5882C76.6435 54.4689 76.8352 54.2409 76.9563 53.904C77.0774 53.5672 77.0783 53.2596 76.9591 52.9812C76.8382 52.7075 76.6327 52.5202 76.3426 52.4192Z" fill="#17161E"/>
<path d="M76.7207 56.9458L76.417 57.4436L72.8749 56.3936L72.7815 56.5467L75.4669 59.0008L74.8088 60.0794L71.3408 58.9081L71.2512 59.0549L73.8548 61.643L73.555 62.1344L70.8216 59.4263L71.4719 58.3605L74.9335 59.5279L75.0269 59.3748L72.3519 56.9181L73.0061 55.846L76.7207 56.9458Z" fill="#17161E"/>
<path d="M68.7108 63.1399L67.89 64.1653L67.4953 63.8179L68.3874 62.7254C68.4976 62.5893 68.6132 62.518 68.7343 62.5114C68.8558 62.5117 68.9823 62.5698 69.1138 62.6857L71.1944 64.5171L71.7493 63.9069L72.144 64.2544L71.589 64.8646L72.3108 65.4999L72.0431 66.0733L71.1804 65.3139L70.3985 66.1737L70.0038 65.8263L70.7857 64.9665L68.7108 63.1399Z" fill="#17161E"/>
<path d="M68.4942 65.8108C68.8764 66.2596 69.0485 66.7166 69.0104 67.1818C68.9684 67.6502 68.7386 68.0565 68.3211 68.4007C67.9113 68.7385 67.4809 68.8861 67.03 68.8434C66.5791 68.8008 66.1691 68.5627 65.7998 68.129L65.6443 67.9465L67.9233 66.0677C67.6552 65.7838 67.3625 65.6139 67.0453 65.5582C66.7274 65.5095 66.4022 65.6222 66.0697 65.8963C65.83 66.0939 65.6798 66.3116 65.6191 66.5494C65.5617 66.7909 65.6001 67.0409 65.7345 67.2991L65.259 67.6911C65.183 67.5401 65.129 67.3839 65.0969 67.2226C65.061 67.0645 65.0482 66.8873 65.0586 66.6909C65.0652 66.4978 65.1263 66.2952 65.242 66.0834C65.3571 65.8785 65.5228 65.6868 65.7393 65.5083C66.2265 65.1067 66.7136 64.9447 67.2007 65.0222C67.6873 65.1067 68.1184 65.3695 68.4942 65.8108ZM68.2246 66.4214L66.4095 67.9178C66.6103 68.1536 66.8528 68.2838 67.1371 68.3085C67.4245 68.337 67.7074 68.2365 67.9858 68.007C68.2642 67.7775 68.4239 67.5131 68.4651 67.2137C68.5024 66.9176 68.4222 66.6535 68.2246 66.4214Z" fill="#17161E"/>
<path d="M65.015 68.8146C65.3067 69.2848 65.402 69.7624 65.3011 70.2474C65.1985 70.7392 64.8953 71.1363 64.3916 71.4388C64.1677 71.5732 63.9275 71.6622 63.6709 71.7058C63.4169 71.7537 63.1442 71.7285 62.8528 71.6302C62.564 71.5362 62.3174 71.3529 62.1129 71.0804L62.6489 70.7585C63.067 71.2516 63.556 71.3301 64.1157 70.994C64.4773 70.7769 64.6832 70.4992 64.7334 70.1609C64.7836 69.8227 64.7009 69.4799 64.4855 69.1326C64.27 68.7852 63.9966 68.5541 63.6653 68.4391C63.3366 68.3283 62.9914 68.3815 62.6297 68.5987C62.07 68.9348 61.9175 69.3985 62.172 69.9898L61.636 70.3116C61.4831 70.0081 61.4289 69.7063 61.4733 69.4064C61.5204 69.1108 61.6222 68.8606 61.779 68.6561C61.9383 68.4557 62.13 68.2884 62.3538 68.1539C62.8576 67.8515 63.3539 67.7657 63.8428 67.8965C64.33 68.0342 64.7207 68.3402 65.015 68.8146Z" fill="#17161E"/>
<path d="M59.7767 73.9547C59.3718 74.1212 59.0057 74.1346 58.6785 73.9949C58.3513 73.8552 58.0894 73.5541 57.8929 73.0917L57.0058 71.004L57.5712 70.7714L58.4262 72.7836C58.576 73.1362 58.7552 73.3583 58.9636 73.4501C59.1694 73.5483 59.4235 73.5352 59.726 73.4108C60.0983 73.2577 60.3433 72.9983 60.4613 72.6324C60.5745 72.2685 60.5348 71.8599 60.3422 71.4067L59.7003 69.8958L60.2727 69.6604L62.4174 74.7081L61.845 74.9435L60.8996 72.7184L60.824 72.2896L60.6635 72.3556C60.7252 72.7068 60.6842 73.0221 60.5406 73.3017C60.3943 73.5878 60.1396 73.8054 59.7767 73.9547Z" fill="#17161E"/>
<path d="M55.2075 75.0689C55.5989 74.9722 55.8807 74.7517 56.0528 74.4074C56.2201 74.0642 56.2429 73.6544 56.1214 73.1779L55.7162 71.5896L56.3179 71.441L57.2333 75.0291L56.6316 75.1777L56.4732 74.5568L56.4636 74.1217L56.2948 74.1634C56.3025 74.5197 56.2141 74.8254 56.0296 75.0808C55.8415 75.3421 55.5566 75.5199 55.175 75.6141C54.7494 75.7192 54.3854 75.6786 54.0831 75.4924C53.7807 75.3061 53.5676 74.9699 53.4435 74.4838L52.8836 72.289L53.478 72.1422L54.0177 74.2576C54.1122 74.6282 54.2556 74.8742 54.4478 74.9956C54.6363 75.123 54.8895 75.1474 55.2075 75.0689Z" fill="#17161E"/>
<path d="M52.3604 74.5051C52.407 75.049 52.2625 75.5192 51.927 75.9155C51.5914 76.3119 51.1297 76.5344 50.5416 76.5832C49.9586 76.6316 49.4705 76.4878 49.0772 76.1519C48.679 75.8164 48.4565 75.3767 48.4099 74.8327C48.3629 74.2839 48.5072 73.8113 48.8427 73.4149C49.1732 73.019 49.63 72.7968 50.213 72.7485C50.8011 72.6997 51.2942 72.8431 51.6925 73.1786C52.0908 73.5141 52.3134 73.9562 52.3604 74.5051ZM51.7422 74.5564C51.7075 74.1509 51.558 73.8247 51.2939 73.5777C51.0302 73.3356 50.6847 73.2323 50.2575 73.2677C49.8303 73.3031 49.51 73.4641 49.2967 73.7508C49.0783 74.0378 48.9863 74.3816 49.0206 74.7821C49.0549 75.1826 49.2039 75.5039 49.4676 75.746C49.7267 75.9934 50.0699 76.0994 50.4971 76.064C50.9243 76.0286 51.2471 75.8673 51.4655 75.5803C51.6843 75.2982 51.7765 74.9569 51.7422 74.5564Z" fill="#17161E"/>
<path d="M47.5758 73.1228L47.5557 73.6435L46.4972 73.6039L46.3235 78.0965L47.1048 78.0587L47.0846 78.5794L46.2048 78.6209C46.0328 78.6294 45.9057 78.5874 45.8235 78.4949C45.7413 78.4025 45.7036 78.267 45.7105 78.0885L45.8848 73.5809L44.8339 73.5416L44.8541 73.0209L47.5758 73.1228Z" fill="#17161E"/>
<path d="M44.0584 75.0337C43.9544 75.5699 43.6866 75.9844 43.255 76.2773C42.8234 76.5701 42.3178 76.6621 41.7381 76.5534C41.1634 76.4455 40.7326 76.1778 40.4458 75.7501C40.154 75.3216 40.0601 74.8392 40.1641 74.303C40.269 73.7619 40.5372 73.345 40.9688 73.0521C41.3955 72.7583 41.8962 72.6654 42.4709 72.7732C43.0506 72.882 43.4863 73.1507 43.7781 73.5792C44.0698 74.0078 44.1632 74.4926 44.0584 75.0337ZM43.4489 74.9194C43.5264 74.5196 43.4718 74.1659 43.285 73.858C43.0972 73.555 42.7928 73.3641 42.3717 73.285C41.9505 73.206 41.598 73.2763 41.3141 73.4958C41.0253 73.7144 40.8426 74.0211 40.766 74.4159C40.6895 74.8108 40.7451 75.1597 40.9328 75.4626C41.1147 75.7696 41.4162 75.9625 41.8373 76.0416C42.2584 76.1206 42.6134 76.0508 42.9023 75.8322C43.1902 75.6185 43.3724 75.3142 43.4489 74.9194Z" fill="#17161E"/>
<path d="M34.6892 74.6488L34.3766 74.5362L34.5588 74.0469L34.8571 74.1544C35.0371 74.2192 35.2084 74.2281 35.371 74.181C35.2828 73.9273 35.2933 73.6536 35.4026 73.36C35.5362 73.0013 35.7904 72.744 36.1652 72.5884C36.5336 72.4358 37.0321 72.3591 37.6608 72.3584C37.3628 72.2933 37.0979 72.2111 36.8663 72.1118C36.6283 72.0154 36.4562 71.8715 36.3502 71.6801C36.2395 71.4869 36.2292 71.2692 36.3194 71.0269C36.3767 70.8731 36.4521 70.7497 36.5459 70.6567C36.6396 70.5636 36.7643 70.5028 36.9199 70.4744C37.0725 70.4395 37.238 70.4278 37.4164 70.4392C37.5948 70.4506 37.8233 70.4933 38.1019 70.5673C38.3823 70.6366 38.6687 70.7187 38.9611 70.8134C39.2535 70.9082 39.6128 71.0324 40.039 71.186L39.8569 71.6753C38.7676 71.2828 38.0252 71.0549 37.6297 70.9917C37.2296 70.9268 36.9818 71.0225 36.8864 71.2787C36.673 71.8519 37.4656 72.1903 39.264 72.294L39.2365 72.7359C38.5902 72.6827 37.9715 72.6421 37.3803 72.6141L37.3205 72.7748C37.9728 72.8407 38.4676 73.0481 38.8051 73.3969C39.1426 73.7458 39.2151 74.1788 39.0225 74.696C38.8508 75.1573 38.5526 75.4462 38.1278 75.5627C37.7031 75.6792 37.2231 75.641 36.6879 75.4482C36.2096 75.2758 35.851 75.0198 35.6122 74.6801C35.3906 74.7271 35.224 74.749 35.1124 74.7458C34.996 74.7408 34.855 74.7085 34.6892 74.6488ZM37.5576 73.0902C36.7383 72.7949 36.2124 72.9595 35.9799 73.5839C35.7493 74.2037 36.0436 74.6611 36.863 74.9564C37.6871 75.2533 38.2145 75.0919 38.4452 74.4722C38.6776 73.8478 38.3818 73.3871 37.5576 73.0902Z" fill="#17161E"/>
<path d="M32.2539 74.2837C32.3932 74.3536 32.4871 74.4564 32.5357 74.5921C32.5797 74.7256 32.5674 74.8587 32.4986 74.9913C32.4322 75.1195 32.3311 75.2053 32.1954 75.2486C32.0552 75.2897 31.9155 75.2753 31.7762 75.2054C31.6414 75.1378 31.5497 75.0361 31.5012 74.9004C31.4526 74.7646 31.4616 74.6326 31.528 74.5044C31.5968 74.3718 31.7012 74.285 31.8414 74.2439C31.9816 74.2028 32.1191 74.2161 32.2539 74.2837ZM35.3524 71.0254L35.1118 71.4896L34.1682 71.0162L32.9103 73.4432L33.6355 73.7318L33.3949 74.196L32.5854 73.8735C32.2796 73.7535 32.2023 73.5476 32.3535 73.2558L33.6492 70.7559L32.7056 70.2825L32.9462 69.8183L35.3524 71.0254Z" fill="#17161E"/>
<path d="M31.3923 71.3527C31.0498 71.8316 30.6451 72.1127 30.1784 72.1961C29.7075 72.2766 29.2494 72.1626 28.8039 71.8541C28.3667 71.5514 28.111 71.1802 28.037 70.7405C27.9629 70.3009 28.0914 69.8498 28.4223 69.3871L28.5617 69.1924L30.9932 70.8761C31.2031 70.5481 31.2947 70.2262 31.2678 69.9102C31.2339 69.5955 31.0396 69.3153 30.6849 69.0697C30.4292 68.8926 30.1767 68.8058 29.9275 68.8092C29.6754 68.8167 29.4399 68.9175 29.2208 69.1117L28.7134 68.7604C28.8422 68.6493 28.9817 68.5578 29.1319 68.4858C29.278 68.411 29.4488 68.3533 29.6443 68.3127C29.8358 68.2693 30.0504 68.2753 30.2883 68.3308C30.5191 68.3875 30.75 68.4958 30.981 68.6558C31.5007 69.0156 31.7851 69.4371 31.8343 69.9202C31.8764 70.4045 31.7291 70.882 31.3923 71.3527ZM30.7232 71.2535L28.7867 69.9125C28.6067 70.1641 28.5411 70.4282 28.59 70.7047C28.6359 70.9854 28.8074 71.2285 29.1044 71.4341C29.4013 71.6398 29.7021 71.7237 30.0068 71.6858C30.3073 71.6451 30.5461 71.501 30.7232 71.2535Z" fill="#17161E"/>
<path d="M25.8998 66.0451C26.11 65.8173 26.3671 65.7085 26.6711 65.7187C26.9717 65.7325 27.3162 65.9129 27.7046 66.2598C28.5522 67.0171 28.6489 67.7502 27.9945 68.4593L27.5352 68.049C27.9624 67.5861 27.9034 67.1111 27.3582 66.6241C27.1379 66.4272 26.9502 66.3132 26.7951 66.2819C26.6401 66.2506 26.4998 66.3029 26.3743 66.4389C26.3269 66.4903 26.2918 66.5394 26.2691 66.5861C26.243 66.6366 26.2334 66.695 26.2402 66.7614C26.2433 66.8245 26.2477 66.8787 26.2535 66.9241C26.2593 66.9695 26.2856 67.0333 26.3325 67.1154C26.3723 67.1978 26.4038 67.2595 26.4273 67.3006C26.447 67.3383 26.4916 67.4117 26.5613 67.5208C26.6271 67.6266 26.6699 67.6983 26.6896 67.736C26.8027 67.9309 26.889 68.0884 26.9485 68.2085C27.0042 68.3253 27.0536 68.46 27.0968 68.6125C27.1366 68.7687 27.1382 68.9109 27.1016 69.0391C27.0651 69.1673 26.9925 69.2902 26.884 69.4078C26.6806 69.6282 26.4299 69.7226 26.132 69.6911C25.8307 69.6632 25.5214 69.5075 25.2039 69.224C24.8044 68.867 24.5982 68.522 24.5855 68.1889C24.569 67.8524 24.6811 67.5538 24.9219 67.2929L25.3812 67.7032C25.0421 68.0706 25.0966 68.4545 25.5447 68.8548C25.9144 69.185 26.2026 69.2381 26.4095 69.014C26.5248 68.8891 26.5664 68.7554 26.5344 68.6128C26.5025 68.4703 26.3988 68.2504 26.2236 67.9531C26.2002 67.9121 26.1591 67.8385 26.1003 67.7324C26.0344 67.6266 25.9896 67.5497 25.9658 67.5016C25.9386 67.4572 25.9013 67.387 25.8537 67.2909C25.8028 67.1984 25.7707 67.1262 25.7574 67.0741C25.737 67.0224 25.7141 66.955 25.6886 66.8719C25.6593 66.7854 25.6486 66.7122 25.6564 66.6521C25.6604 66.5887 25.6695 66.5197 25.6837 66.4453C25.6945 66.3745 25.7198 66.3066 25.7594 66.2414C25.7954 66.173 25.8421 66.1075 25.8998 66.0451Z" fill="#17161E"/>
<path d="M20.806 62.277L19.0795 59.1591L19.5247 58.9206L21.2512 62.0385L20.806 62.277Z" fill="#17161E"/>
<path d="M18.2683 57.9873L17.0833 54.6336L17.5621 54.4698L18.7471 57.8235L18.2683 57.9873Z" fill="#17161E"/>
<path d="M16.4682 53.3118L15.8484 49.8139L16.3478 49.7283L16.9675 53.2261L16.4682 53.3118Z" fill="#17161E"/>
<path d="M17.2847 43.5861L12.049 42.5838L12.2875 41.3782L17.861 39.7759L17.8943 39.6079L17.4373 39.619L12.8106 38.7332L12.9277 38.1414L18.1634 39.1437L17.9249 40.3493L12.3528 41.9443L12.3196 42.1123L12.7765 42.1012L17.4032 42.987L17.2847 43.5861Z" fill="#17161E"/>
<path d="M16.3735 37.5103C15.8153 37.307 15.4356 36.994 15.2344 36.5714C15.0348 36.1441 15.0297 35.6792 15.2189 35.1766C15.4046 34.6834 15.704 34.3453 16.117 34.1624C16.5301 33.9796 17.0063 33.9864 17.5455 34.1829L17.7725 34.2656L16.7398 37.0088C17.1157 37.1246 17.4555 37.1294 17.7591 37.023C18.0597 36.9103 18.2853 36.6539 18.436 36.2537C18.5446 35.9652 18.5653 35.7029 18.4983 35.4667C18.4264 35.2289 18.2671 35.0306 18.0203 34.8719L18.2358 34.2995C18.3778 34.3936 18.5034 34.5029 18.6126 34.6273C18.7235 34.7471 18.8238 34.8948 18.9137 35.0704C19.0053 35.2414 19.0543 35.4471 19.0606 35.6875C19.0639 35.9216 19.0165 36.1689 18.9184 36.4295C18.6977 37.0158 18.3562 37.3941 17.8941 37.5644C17.429 37.7283 16.9221 37.7103 16.3735 37.5103ZM16.2999 36.8485L17.1224 34.6637C16.8291 34.5569 16.5529 34.562 16.2936 34.6792C16.0296 34.7947 15.8345 35.02 15.7084 35.355C15.5823 35.6901 15.5767 35.9976 15.6918 36.2777C15.8087 36.5531 16.0114 36.7434 16.2999 36.8485Z" fill="#17161E"/>
<path d="M15.9345 32.4174L16.2437 31.9229L19.7739 33.0109L19.869 32.8587L17.211 30.376L17.881 29.3046L21.3358 30.513L21.427 30.3671L18.8522 27.7513L19.1575 27.2631L21.8607 30.0004L21.1986 31.0591L17.7502 29.8546L17.655 30.0068L20.3027 32.492L19.6366 33.5571L15.9345 32.4174Z" fill="#17161E"/>
<path d="M23.9751 26.3347L24.8073 25.3183L25.1981 25.6699L24.2939 26.7527C24.1822 26.8876 24.0658 26.9577 23.9446 26.963C23.8232 26.9613 23.6973 26.9018 23.567 26.7846L21.5071 24.9308L20.9453 25.5349L20.5546 25.1833L21.1163 24.5791L20.4017 23.936L20.6758 23.3655L21.5299 24.1342L22.3214 23.2829L22.7122 23.6346L21.9207 24.4859L23.9751 26.3347Z" fill="#17161E"/>
<path d="M24.2392 23.6337C23.8621 23.1807 23.6952 22.7219 23.7386 22.2571C23.7859 21.7892 24.0202 21.3855 24.4416 21.0459C24.8552 20.7126 25.2872 20.5697 25.7376 20.6173C26.188 20.6648 26.5953 20.9074 26.9597 21.3451L27.1131 21.5293L24.8129 23.3831C25.0779 23.6699 25.3686 23.8429 25.6852 23.9021C26.0025 23.9543 26.3289 23.8452 26.6645 23.5747C26.9064 23.3798 27.0591 23.1637 27.1224 22.9266C27.1826 22.6857 27.147 22.4354 27.0155 22.1757L27.4955 21.7889C27.5697 21.9407 27.622 22.0975 27.6523 22.2591C27.6864 22.4176 27.6972 22.595 27.6845 22.7912C27.6757 22.9843 27.6123 23.1861 27.4943 23.3967C27.3769 23.6004 27.209 23.7902 26.9905 23.9663C26.4989 24.3625 26.0099 24.5192 25.5237 24.4364C25.0381 24.3466 24.61 24.079 24.2392 23.6337ZM24.5157 23.026L26.3476 21.5497C26.1495 21.3117 25.9084 21.1788 25.6245 21.151C25.3374 21.1194 25.0533 21.2168 24.7724 21.4432C24.4915 21.6696 24.3287 21.9323 24.2842 22.2312C24.2436 22.5269 24.3207 22.7919 24.5157 23.026Z" fill="#17161E"/>
<path d="M27.6369 20.7236C27.3507 20.2502 27.2608 19.7716 27.3673 19.2877C27.4756 18.7971 27.7833 18.4033 28.2905 18.1065C28.5159 17.9746 28.7572 17.8882 29.0142 17.8475C29.2687 17.8025 29.5411 17.8307 29.8314 17.9322C30.119 18.0294 30.3636 18.2154 30.5649 18.4902L30.0252 18.8061C29.6128 18.3084 29.1248 18.2245 28.5613 18.5543C28.1972 18.7674 27.9881 19.0428 27.934 19.3805C27.88 19.7181 27.9587 20.0618 28.1701 20.4115C28.3816 20.7612 28.6523 20.9954 28.9823 21.1141C29.3097 21.2285 29.6554 21.1791 30.0196 20.966C30.5831 20.6362 30.741 20.1742 30.4933 19.5801L31.033 19.2643C31.1823 19.5695 31.2331 19.8718 31.1852 20.1712C31.1348 20.4663 31.03 20.7153 30.8709 20.9181C30.7093 21.1167 30.5157 21.2819 30.2903 21.4138C29.7832 21.7107 29.2859 21.7909 28.7985 21.6547C28.313 21.5116 27.9257 21.2012 27.6369 20.7236Z" fill="#17161E"/>
<path d="M32.9417 15.6072C33.3485 15.4452 33.7147 15.436 34.0403 15.5794C34.3659 15.7228 34.6242 16.0268 34.8153 16.4914L35.6779 18.5891L35.1098 18.8152L34.2784 16.7935C34.1327 16.4393 33.9562 16.2151 33.7488 16.121C33.5442 16.0204 33.29 16.0306 32.9861 16.1516C32.612 16.3005 32.3639 16.5572 32.2417 16.9216C32.1242 17.2843 32.1591 17.6933 32.3464 18.1487L32.9707 19.6667L32.3956 19.8956L30.3099 14.824L30.885 14.5951L31.8044 16.8307L31.875 17.2603L32.0363 17.1961C31.9787 16.8443 32.0233 16.5295 32.1702 16.2515C32.3198 15.9671 32.577 15.7523 32.9417 15.6072Z" fill="#17161E"/>
<path d="M37.5405 14.5127C37.148 14.6049 36.8636 14.8222 36.6874 15.1646C36.5161 15.5058 36.4885 15.9154 36.6044 16.3932L36.9909 17.986L36.3874 18.1278L35.5144 14.5294L36.1178 14.3877L36.2689 15.0103L36.2733 15.4455L36.4426 15.4057C36.4391 15.0494 36.5311 14.7447 36.7186 14.4915C36.9098 14.2323 37.1967 14.0578 37.5794 13.9679C38.0062 13.8677 38.3697 13.9124 38.6698 14.1021C38.9699 14.2918 39.1791 14.6304 39.2974 15.1179L39.8315 17.3189L39.2354 17.4589L38.7207 15.3375C38.6305 14.9659 38.49 14.7183 38.2993 14.5947C38.1123 14.4652 37.8594 14.4378 37.5405 14.5127Z" fill="#17161E"/>
<path d="M40.4037 15.0817C40.3635 14.5373 40.5134 14.0688 40.8536 13.6763C41.1938 13.2838 41.6581 13.0665 42.2467 13.0243C42.8303 12.9826 43.3167 13.1319 43.7059 13.4722C44.1003 13.8122 44.3175 14.2544 44.3578 14.7988C44.3984 15.3482 44.2486 15.8191 43.9084 16.2117C43.5733 16.6038 43.114 16.8208 42.5304 16.8625C41.9418 16.9046 41.4504 16.7557 41.0561 16.4157C40.6618 16.0757 40.4443 15.6311 40.4037 15.0817ZM41.0225 15.0374C41.0525 15.4433 41.1981 15.7712 41.4593 16.0212C41.7202 16.2662 42.0644 16.3734 42.492 16.3428C42.9196 16.3123 43.2417 16.1549 43.4584 15.8707C43.6801 15.5862 43.7762 15.2434 43.7466 14.8425C43.7169 14.4417 43.5717 14.1187 43.3108 13.8737C43.0546 13.6233 42.7127 13.5134 42.2851 13.544C41.8575 13.5746 41.5329 13.7322 41.3112 14.0167C41.0891 14.2963 40.9929 14.6365 41.0225 15.0374Z" fill="#17161E"/>
<path d="M45.217 16.5053L45.2432 15.9849L46.3011 16.0364L46.5268 11.546L45.7451 11.575L45.7712 11.0546L46.6515 11.0229C46.8235 11.0164 46.9501 11.0598 47.0313 11.1532C47.1125 11.2465 47.1486 11.3824 47.1396 11.5609L46.9132 16.0661L47.9635 16.1172L47.9374 16.6376L45.217 16.5053Z" fill="#17161E"/>
<path d="M48.6722 14.6059C48.7822 14.0709 49.0547 13.6593 49.4896 13.3712C49.9245 13.0831 50.4311 12.9967 51.0096 13.1118C51.583 13.226 52.0107 13.4984 52.2927 13.9292C52.5795 14.361 52.6679 14.8444 52.5579 15.3794C52.4469 15.9193 52.1739 16.3332 51.739 16.6213C51.309 16.9104 50.8073 16.9978 50.2339 16.8837C49.6554 16.7685 49.2228 16.4951 48.9359 16.0633C48.6491 15.6316 48.5611 15.1458 48.6722 14.6059ZM49.2802 14.7269C49.1982 15.1258 49.2489 15.4801 49.4321 15.79C49.6164 16.095 49.9187 16.2893 50.3389 16.373C50.7591 16.4566 51.1124 16.3903 51.3988 16.1739C51.6901 15.9585 51.8762 15.6538 51.9573 15.2598C52.0383 14.8658 51.9866 14.5163 51.8024 14.2113C51.624 13.9024 51.3247 13.7062 50.9045 13.6225C50.4843 13.5389 50.1286 13.6047 49.8372 13.8202C49.5469 14.0307 49.3613 14.333 49.2802 14.7269Z" fill="#17161E"/>
<path d="M58.1203 15.0977L58.4316 15.2137L58.2441 15.701L57.9469 15.5902C57.7677 15.5234 57.5965 15.5127 57.4334 15.5581C57.5187 15.8127 57.5051 16.0863 57.3926 16.3786C57.255 16.736 56.998 16.9904 56.6214 17.1419C56.2514 17.2906 55.752 17.3619 55.1233 17.3558C55.4206 17.4241 55.6845 17.5092 55.915 17.611C56.152 17.7099 56.3224 17.8556 56.4262 18.0482C56.5348 18.2426 56.5426 18.4604 56.4498 18.7017C56.3908 18.8548 56.3139 18.9774 56.2192 19.0695C56.1244 19.1615 55.9991 19.2209 55.8431 19.2477C55.6901 19.2809 55.5245 19.2908 55.3462 19.2775C55.168 19.2641 54.94 19.219 54.6622 19.142C54.3826 19.0697 54.0972 18.9845 53.8059 18.8866C53.5146 18.7887 53.1567 18.6606 52.7321 18.5024L52.9197 18.0151C54.0046 18.4194 54.7444 18.6553 55.1391 18.7227C55.5385 18.792 55.7874 18.699 55.8856 18.4437C56.1054 17.8729 55.3167 17.526 53.5195 17.4029L53.5519 16.9613C54.1976 17.0214 54.8158 17.0687 55.4066 17.1032L55.4683 16.9431C54.8168 16.8701 54.3242 16.6574 53.9907 16.3049C53.6571 15.9525 53.5895 15.5187 53.7878 15.0036C53.9647 14.5441 54.2661 14.2585 54.6921 14.1466C55.1181 14.0347 55.5976 14.0781 56.1307 14.2767C56.6071 14.4542 56.9628 14.7141 57.1978 15.0564C57.4199 15.0118 57.5867 14.9917 57.6983 14.9961C57.8146 15.0023 57.9552 15.0362 58.1203 15.0977ZM55.2347 16.6252C56.0507 16.9293 56.5784 16.7704 56.8178 16.1485C57.0554 15.5313 56.7662 15.0707 55.9501 14.7666C55.1294 14.4608 54.6002 14.6165 54.3626 15.2337C54.1232 15.8555 54.4139 16.3194 55.2347 16.6252Z" fill="#17161E"/>
<path d="M60.572 15.4897C60.4335 15.4184 60.3407 15.3145 60.2937 15.1783C60.2511 15.0443 60.265 14.9114 60.3352 14.7795C60.403 14.652 60.505 14.5673 60.6412 14.5255C60.7818 14.4859 60.9214 14.5018 61.0599 14.5732C61.194 14.6422 61.2845 14.7449 61.3315 14.8812C61.3786 15.0174 61.3682 15.1493 61.3003 15.2768C61.2301 15.4087 61.1247 15.4944 60.984 15.534C60.8434 15.5735 60.7061 15.5588 60.572 15.4897ZM57.4376 18.7145L57.6833 18.253L58.6216 18.7365L59.9063 16.3231L59.1844 16.0267L59.4301 15.5651L60.236 15.8964C60.5405 16.0196 60.6155 16.2263 60.461 16.5165L59.1377 19.0024L60.076 19.4859L59.8303 19.9474L57.4376 18.7145Z" fill="#17161E"/>
<path d="M61.4072 18.4248C61.7551 17.9497 62.1628 17.673 62.6304 17.5946C63.1022 17.5191 63.559 17.638 64.0011 17.9512C64.4349 18.2587 64.6864 18.6326 64.7556 19.073C64.8247 19.5134 64.6913 19.9631 64.3552 20.4222L64.2137 20.6155L61.8011 18.9058C61.5875 19.2314 61.4924 19.5524 61.5158 19.8686C61.5462 20.1837 61.7373 20.4659 62.0893 20.7154C62.3431 20.8952 62.5945 20.9847 62.8437 20.9839C63.0959 20.9791 63.3326 20.8808 63.5538 20.689L64.0572 21.0458C63.9272 21.1554 63.7867 21.2455 63.6357 21.3158C63.4888 21.3891 63.3174 21.445 63.1214 21.4834C62.9295 21.5248 62.7149 21.5165 62.4777 21.4584C62.2475 21.3993 62.0178 21.2885 61.7886 21.1261C61.2729 20.7606 60.9932 20.3361 60.9494 19.8525C60.9127 19.3678 61.0653 18.8919 61.4072 18.4248ZM62.0752 18.5313L63.9968 19.893C64.1795 19.6433 64.248 19.3799 64.2022 19.1029C64.1594 18.8218 63.9906 18.5768 63.696 18.368C63.4013 18.1592 63.1014 18.072 62.7964 18.1066C62.4954 18.1441 62.2551 18.2857 62.0752 18.5313Z" fill="#17161E"/>
<path d="M66.921 23.8587C66.7074 24.0834 66.4487 24.1885 66.1448 24.174C65.8445 24.1558 65.5027 23.9705 65.1195 23.618C64.2832 22.8486 64.1975 22.1142 64.8624 21.4146L65.3156 21.8315C64.8815 22.2882 64.9334 22.764 65.4713 23.2588C65.6887 23.4588 65.8746 23.5755 66.0292 23.609C66.1838 23.6426 66.3248 23.5923 66.4523 23.4581C66.5005 23.4074 66.5364 23.3588 66.5597 23.3124C66.5866 23.2624 66.5971 23.2041 66.5913 23.1376C66.5891 23.0745 66.5855 23.0202 66.5804 22.9747C66.5752 22.9292 66.5498 22.8651 66.5042 22.7823C66.4657 22.6994 66.435 22.6372 66.4122 22.5958C66.3931 22.5578 66.3495 22.4838 66.2815 22.3737C66.2172 22.2669 66.1755 22.1946 66.1563 22.1566C66.0462 21.9601 65.9622 21.8014 65.9046 21.6804C65.8506 21.5628 65.8032 21.4275 65.7623 21.2743C65.7248 21.1176 65.7253 20.9754 65.7638 20.8477C65.8023 20.72 65.8766 20.5982 65.9868 20.4822C66.1935 20.2648 66.4456 20.1739 66.743 20.2098C67.0439 20.242 67.3509 20.4021 67.664 20.6902C68.0582 21.0528 68.2592 21.4008 68.267 21.7341C68.2785 22.0708 68.1619 22.3678 67.9174 22.6251L67.4642 22.2082C67.8087 21.8458 67.7599 21.4612 67.3178 21.0545C66.9531 20.7189 66.6656 20.6617 66.4555 20.8828C66.3384 21.006 66.2947 21.1391 66.3246 21.2821C66.3544 21.4251 66.4548 21.6464 66.6256 21.9463C66.6484 21.9876 66.6884 22.0618 66.7456 22.1687C66.8099 22.2755 66.8536 22.353 66.8766 22.4014C66.9031 22.4462 66.9394 22.5169 66.9856 22.6137C67.0351 22.7069 67.0662 22.7796 67.0786 22.8318C67.0983 22.8839 67.1202 22.9516 67.1445 23.0351C67.1724 23.1219 67.182 23.1953 67.1734 23.2553C67.1684 23.3187 67.1583 23.3874 67.1429 23.4617C67.1311 23.5323 67.1048 23.5999 67.0642 23.6644C67.0273 23.7323 66.9795 23.7971 66.921 23.8587Z" fill="#17161E"/>
<path d="M71.2583 27.7148L72.9526 30.8498L72.505 31.084L70.8108 27.949L71.2583 27.7148Z" fill="#17161E"/>
<path d="M73.7441 31.999L74.9007 35.3623L74.4205 35.5221L73.2639 32.1588L73.7441 31.999Z" fill="#17161E"/>
<path d="M75.4873 36.6183L76.0804 40.1206L75.5804 40.2025L74.9873 36.7002L75.4873 36.6183Z" fill="#17161E"/>
<path d="M39.0875 35.3936C40.6254 34.4017 43.0562 34.5961 43.7153 36.4765L47.3725 52.0373C47.4542 52.3617 47.5474 52.7015 47.5911 53.0326C47.8742 55.1786 46.0678 57.0463 43.8742 56.6664C43.1121 56.5345 43.471 56.4509 42.7201 56.6665C42.2224 56.8094 41.6628 56.9686 41.146 56.988C38.9944 57.0684 36.8965 55.7365 36.4621 53.6061C36.1346 52 36.8608 52.8081 35.1496 52.3335C32.3877 51.5674 31.5843 48.3568 33.0273 46.1769C33.3093 45.751 33.4144 45.9263 33.2601 45.4726C32.9519 44.5658 33.2568 43.4648 33.8667 42.7433L34.1573 42.4277C34.2889 42.2874 34.262 42.2311 34.2366 42.0478L34.2023 41.6901C34.0768 39.9888 35.1524 38.3363 36.7381 37.6529C37.1023 37.4959 37.4347 37.5491 37.5717 37.2193L37.7105 36.9141C38.0269 36.295 38.4976 35.7736 39.0875 35.3936ZM42.1047 40.7977C41.3379 41.3402 41.5462 43.4061 40.1518 44.0188C39.2117 44.4319 39.0015 43.8441 38.3446 43.4334C38.0101 43.2242 37.6218 43.5399 37.5811 43.8949C37.5139 44.4818 38.9235 45.1763 39.4567 45.2038C41.3252 45.3001 41.9432 43.7869 42.4806 42.3475C42.5704 42.1069 42.6635 41.8277 42.8033 41.612C42.7829 41.5553 42.9962 41.258 42.93 41.0606C42.8055 40.6892 42.4221 40.688 42.1047 40.7977ZM38.6376 48.6507C38.31 48.7985 38.1574 49.0672 38.0341 49.3873C37.4299 50.9575 37.8286 52.6216 39.463 53.3668C39.8287 53.5334 40.2406 53.6846 40.6453 53.7169C41.128 53.6458 41.1762 53.0117 40.7972 52.7819C40.6473 52.691 40.4656 52.6669 40.2999 52.6162C39.1438 52.2626 38.5356 51.1041 38.9123 49.9749C39.0089 49.6854 39.2662 49.3573 39.2563 49.0517C39.127 48.8044 38.9383 48.5959 38.6376 48.6507ZM41.8127 47.9309C40.4614 48.4879 43.0649 50.9917 44.6938 50.6167C45.2002 50.4334 45.1973 49.8775 44.7214 49.6784C44.5222 49.5951 44.2749 49.5901 44.0624 49.5451C42.624 49.24 42.6132 47.8149 41.8259 47.9293L41.8127 47.9309Z" fill="#17161E"/>
<path fill-rule="evenodd" clip-rule="evenodd" d="M46.9718 33.3898C48.2546 33.0394 49.5905 33.3729 50.5444 34.2682C50.749 34.4601 50.9277 34.4238 51.1693 34.3747C51.2671 34.3548 51.3753 34.3328 51.4997 34.323C53.2687 34.1839 55.1855 35.32 55.7254 37.0093L55.8051 37.2865C55.8406 37.4181 55.906 37.437 56.0069 37.4662C56.0383 37.4753 56.0731 37.4854 56.1115 37.5002C57.402 37.9964 57.9552 38.8496 58.2397 40.1124C58.3278 40.1803 58.4271 40.2351 58.5268 40.2901C58.5976 40.3291 58.6685 40.3683 58.7357 40.4123C61.1103 41.9667 61.6217 45.1254 59.3285 46.9576C59.1685 47.0855 58.9979 47.1982 58.8272 47.3111C58.7587 47.3564 58.6902 47.4017 58.6223 47.448C59.2151 49.0052 59.1868 50.756 58.1207 52.1249C57.148 53.2228 56.358 53.6009 54.9779 53.9011C54.9417 53.909 54.8854 53.9194 54.8179 53.9318C54.5609 53.9792 54.1422 54.0565 54.0634 54.1374C52.2016 56.0456 49.1113 55.0287 48.4851 52.6123L44.8076 36.9315C44.4468 35.2952 45.1538 33.7126 46.9718 33.3898ZM47.7999 39.4913C47.0163 39.8979 47.6657 40.4036 48.1132 40.7521C48.1966 40.817 48.273 40.8765 48.3318 40.9289C48.4733 41.055 48.6133 41.1882 48.7542 41.3224C49.0773 41.6301 49.4055 41.9426 49.7689 42.184C50.5324 42.6912 51.6493 42.7009 52.4345 42.2345C52.8967 41.9598 53.2076 41.5261 53.4472 41.062C53.5485 40.8342 53.68 40.503 53.5669 40.2587C53.4338 39.9715 53.0951 39.8882 52.8307 40.0542C52.6511 40.167 52.5799 40.3531 52.5013 40.5583C52.3966 40.8319 52.2789 41.1394 51.8744 41.3523L51.8433 41.3692C51.643 41.4736 51.33 41.5377 51.102 41.5305L51.0693 41.5297C50.4972 41.511 50.0714 41.1455 49.6774 40.777L48.9 40.0151C48.8815 39.9969 48.8629 39.9785 48.8442 39.96C48.5556 39.6741 48.2453 39.3667 47.7999 39.4913ZM51.5042 45.7556C52.689 45.5834 52.026 47.4238 51.7653 47.9209C51.4475 48.5267 50.8417 49.1737 50.1655 49.383C49.7751 49.5291 49.5136 49.269 49.5385 48.9038C49.5559 48.6496 49.7536 48.4829 50.0028 48.2728C50.3913 47.9453 50.9052 47.5121 51.0566 46.4763C51.0591 46.4589 51.0616 46.4419 51.064 46.4251C51.1112 46.0962 51.141 45.8882 51.5042 45.7556ZM55.5 45.2508C55.2415 45.029 54.998 44.8773 54.6485 44.9988C54.0092 45.4196 54.4706 45.8043 54.8666 46.1346C54.8784 46.1443 54.89 46.1541 54.9016 46.1637C55.8268 46.9375 55.9898 48.3255 55.1278 49.2104C55.0676 49.2723 55.0015 49.3264 54.9369 49.3794C54.7566 49.527 54.5873 49.6657 54.585 49.939C54.5815 50.3705 55.0093 50.5471 55.3814 50.375C55.6344 50.2479 55.8141 50.045 55.9834 49.8256C57.1466 48.3181 56.996 46.5341 55.5 45.2508Z" fill="#17161E"/>
</svg>
