<svg width="17" height="20" viewBox="0 0 17 20" fill="none" xmlns="http://www.w3.org/2000/svg">
<path fill-rule="evenodd" clip-rule="evenodd" d="M3.04176 3.11869C3.14641 3.03179 3.25851 2.95254 3.37029 2.87352C3.42567 2.83438 3.48096 2.79529 3.53524 2.75535L5.64321 1.21046C7.85206 -0.4231 8.95642 -0.413005 11.2679 1.30008L14.4737 3.61756C15.8072 4.60457 16.4467 5.27075 16.7701 7.04143C16.8091 7.25493 16.8052 7.49215 16.8015 7.71853V7.71854V7.71864C16.8004 7.78532 16.7994 7.85105 16.7994 7.91497L16.7995 11.545C16.7994 11.6529 16.8007 11.7616 16.8021 11.8708C16.8071 12.2871 16.8121 12.7099 16.7432 13.1165C16.4274 14.98 15.4938 15.6747 14.048 16.713L11.1353 18.8329C11.0633 18.8851 10.992 18.9381 10.9207 18.9911C10.6898 19.1627 10.4593 19.334 10.2087 19.4761C8.68264 20.3417 7.36805 20.083 5.99373 19.0796L2.82368 16.7603C2.69809 16.6904 2.57361 16.5931 2.45324 16.499C2.40538 16.4616 2.35817 16.4247 2.3118 16.3903C0.923778 15.3588 0.0113319 14.309 0.00726178 12.4325L0.00697122 8.05713C0.00700379 7.98785 0.00530145 7.9159 0.00357109 7.84277C-0.00131627 7.63622 -0.00642719 7.42022 0.0266986 7.22806C0.359532 5.29705 0.943423 4.64561 2.40529 3.5856L2.83356 3.26766C2.85174 3.25413 2.86999 3.23985 2.88841 3.22545C2.93784 3.18679 2.98841 3.14724 3.04176 3.11869ZM3.98689 7.14242C3.56094 7.87476 3.54832 8.30524 3.54786 9.14175L3.54807 10.1795C3.54819 10.345 3.5457 10.499 3.54335 10.6443V10.6443C3.5291 11.5264 3.52006 12.0866 4.13096 12.9339C4.43717 13.2457 4.78346 13.4884 5.14421 13.7283L6.30709 14.477C6.38063 14.5245 6.45164 14.5706 6.52034 14.6152C7.91902 15.5232 8.36536 15.813 9.90446 14.8619L11.6977 13.7295C12.9072 12.941 13.2553 12.3982 13.2574 10.9895L13.2564 8.35897C13.2348 7.32284 12.5299 6.71419 11.7455 6.22098L9.99724 5.11384C8.80574 4.36115 8.28531 4.22135 6.96706 5.01593L5.77278 5.77533C5.6546 5.85198 5.53419 5.92729 5.41334 6.00286C5.06336 6.22174 4.70969 6.44292 4.39585 6.70577C4.29045 6.79403 4.20636 6.89176 4.12071 6.9913C4.08152 7.03685 4.042 7.08277 3.99997 7.12834L3.98689 7.14242ZM8.35953 6.02231C8.80834 5.95654 9.3712 6.35039 9.80707 6.65537C9.9147 6.73068 10.0146 6.80058 10.1031 6.85679L10.8973 7.35905C11.743 7.8996 11.8541 8.1537 11.8549 9.22576L11.8548 10.8989C11.854 11.7545 11.6772 12.0652 11.0013 12.4943L9.2922 13.5809C9.26515 13.5968 9.23788 13.6133 9.21038 13.6299L9.21031 13.6299C9.09084 13.702 8.96713 13.7766 8.83893 13.8228L8.81974 13.8296C8.69847 13.8731 8.58347 13.8881 8.4563 13.9018C7.90637 13.9163 7.32997 13.5113 6.83211 13.1615C6.71289 13.0778 6.59818 12.9972 6.48941 12.9263C6.36119 12.8427 6.24111 12.7676 6.12914 12.6975L6.12913 12.6975C5.34964 12.21 4.96338 11.9684 4.96251 10.8202L4.96292 9.13301C4.96388 8.40037 5.01816 8.02468 5.65538 7.54615C5.93123 7.33896 6.22986 7.1581 6.52677 6.97828L6.52681 6.97826C6.6419 6.90856 6.75673 6.83901 6.86988 6.76815C6.96489 6.70863 7.05823 6.64659 7.1513 6.58472L7.1513 6.58472C7.52774 6.3345 7.89974 6.08722 8.35953 6.02231ZM8.3548 7.8725C6.9392 7.9819 6.46744 9.13741 6.57575 10.4406C6.65346 11.3758 7.55436 12.142 8.47038 12.1014C8.98774 12.0649 9.50622 11.7831 9.8474 11.3859C10.2814 10.8805 10.2932 10.157 10.2497 9.51796C10.188 8.6106 9.24166 7.806 8.3548 7.8725ZM9.44317 10.9056C10.0786 10.0145 9.57516 8.40958 8.28423 8.51759C7.49651 8.66183 7.17916 9.22757 7.17962 9.99733C7.18008 10.8623 7.62733 11.5125 8.573 11.4185C8.9205 11.3632 9.23306 11.2002 9.44317 10.9056Z" fill="url(#paint0_linear_3_41)"/>
<defs>
<linearGradient id="paint0_linear_3_41" x1="-3.25676" y1="8.63163" x2="20.8241" y2="0.889644" gradientUnits="userSpaceOnUse">
<stop offset="0.249585" stop-color="#E3FE0F"/>
<stop offset="1" stop-color="#506491"/>
</linearGradient>
</defs>
</svg>
